<?xml version="1.0" standalone="no"?>
<!DOCTYPE svg PUBLIC "-//W3C//DTD SVG 20010904//EN"
 "http://www.w3.org/TR/2001/REC-SVG-20010904/DTD/svg10.dtd">
<svg version="1.0" xmlns="http://www.w3.org/2000/svg"
 width="272.000000pt" height="439.000000pt" viewBox="0 0 272.000000 439.000000"
 preserveAspectRatio="xMidYMid meet">

<g transform="translate(0.000000,439.000000) scale(0.100000,-0.100000)"
fill="#000000" stroke="none">
<path d="M1941 4371 c-26 -26 -30 -69 -15 -158 4 -30 2 -33 -20 -33 -24 0 -45
-16 -149 -112 l-51 -46 -31 46 c-43 66 -78 89 -110 74 -23 -11 -26 -9 -40 25
-30 71 -64 92 -86 51 -15 -29 -14 -121 2 -151 7 -12 13 -56 13 -98 1 -86 16
-113 67 -124 16 -4 29 -8 29 -9 0 -1 -27 -55 -60 -120 -86 -170 -160 -413
-186 -614 -6 -44 -10 -53 -31 -58 -37 -10 -53 -42 -53 -110 0 -46 5 -68 19
-85 l19 -24 -72 -75 c-162 -170 -361 -475 -382 -585 -5 -30 1 -57 35 -142 l42
-105 -1 -171 c-2 -290 -5 -377 -10 -377 -3 0 -28 23 -55 51 -57 57 -159 129
-184 129 -22 0 -54 -35 -71 -77 -7 -18 -13 -70 -15 -115 -2 -82 -47 -258 -65
-258 -16 0 -120 77 -174 128 -105 100 -142 175 -133 273 7 78 68 203 120 244
35 27 46 30 105 30 55 0 81 -6 142 -34 135 -61 200 -50 200 36 0 31 -8 44 -50
84 -99 96 -285 119 -422 51 -158 -78 -275 -286 -266 -476 3 -73 8 -92 43 -161
67 -132 221 -280 367 -351 55 -27 58 -30 58 -64 0 -20 7 -57 16 -83 20 -59
119 -154 235 -227 46 -29 75 -50 65 -46 -11 4 -45 9 -76 13 -49 5 -67 2 -116
-21 -114 -51 -109 -46 -109 -104 1 -60 26 -94 84 -113 20 -7 49 -22 64 -35 16
-13 38 -24 50 -24 12 0 41 -7 64 -15 51 -18 174 -8 326 25 68 15 93 17 96 8 7
-21 82 -97 103 -104 12 -3 31 -18 43 -32 18 -20 30 -25 61 -23 44 3 44 3 140
-5 38 -3 86 -2 106 4 33 9 45 6 124 -34 104 -52 163 -59 189 -21 13 19 24 22
83 22 37 1 76 6 87 12 30 18 86 40 117 47 20 5 31 18 49 62 20 48 26 55 46 51
13 -2 42 0 66 5 23 5 67 13 97 19 127 21 150 26 164 39 23 18 20 79 -6 120
-12 19 -36 62 -54 95 -19 36 -49 74 -75 94 -37 28 -49 32 -85 28 -23 -2 -74
-21 -113 -41 -59 -30 -268 -92 -278 -82 -2 1 32 22 75 47 110 63 218 146 285
219 93 100 94 113 23 275 l-45 100 13 95 c14 112 9 140 -28 158 -63 31 -137
14 -218 -50 -41 -32 -43 -31 -28 22 20 68 59 266 69 349 10 78 15 91 66 166
65 98 88 156 81 206 -10 61 -69 178 -163 319 -122 183 -216 350 -204 364 18
22 34 163 20 171 -5 3 16 54 46 112 30 58 62 130 71 159 15 45 21 53 48 58 26
5 36 0 73 -36 52 -51 57 -38 8 19 -39 46 -31 59 26 43 43 -13 48 -6 9 10 -25
10 -30 18 -26 34 3 12 6 26 6 31 0 6 20 10 45 10 79 1 130 75 90 131 -13 20
-11 23 25 47 l39 25 38 -19 c48 -24 74 -24 107 2 20 16 26 29 26 62 0 26 7 48
19 61 11 12 33 47 50 80 38 71 41 133 10 191 -12 22 -28 52 -36 68 -17 33 -61
57 -102 57 -17 0 -53 5 -80 11 -69 15 -147 -3 -211 -47 l-51 -35 -35 21 c-19
12 -32 26 -28 31 3 5 -2 12 -10 15 -25 10 -18 38 14 56 34 19 37 34 14 66 -14
20 -14 23 0 28 39 15 0 88 -67 128 -25 14 -66 29 -90 32 -37 5 -48 3 -66 -15z
m80 -21 c3 -20 4 -25 14 -40 8 -13 7 -13 -8 -1 -9 7 -17 19 -17 26 0 8 -8 16
-17 18 -14 4 -12 5 5 6 12 0 23 -3 23 -9z m-41 -15 c11 -13 10 -14 -6 -8 -17
6 -17 5 -5 -10 8 -10 11 -20 7 -24 -3 -3 -6 0 -6 7 0 7 -3 10 -6 7 -4 -4 -1
-13 5 -21 9 -11 10 -24 1 -57 -9 -33 -9 -44 2 -50 19 -13 40 -11 32 3 -4 7 -3
8 4 4 23 -14 12 -27 -20 -24 -33 3 -33 3 -34 60 -1 31 -4 64 -7 72 -4 9 -1 16
5 16 6 0 5 6 -3 17 -10 11 -10 14 -1 9 6 -4 12 -2 12 3 0 15 5 14 20 -4z m133
-23 c19 -19 25 -32 21 -46 -6 -19 -5 -20 12 -6 17 14 18 14 5 -2 -12 -16 -16
-16 -42 -2 -16 8 -29 17 -29 20 0 3 5 2 10 -1 6 -4 18 -4 27 -1 14 6 14 9 -3
25 -23 23 -57 11 -47 -17 5 -14 4 -15 -8 -4 -8 7 -14 26 -15 43 -1 26 2 29 20
23 12 -3 33 -18 49 -32z m-64 -47 c22 -24 41 -47 41 -50 0 -20 -32 -64 -44
-59 -12 5 -56 118 -56 144 0 20 18 9 59 -35z m72 -56 c6 -12 7 -19 1 -15 -11
7 -24 -18 -15 -28 10 -10 25 -7 18 4 -4 6 1 7 11 3 15 -5 14 -7 -2 -17 -42
-24 -58 -13 -39 25 9 16 13 34 10 39 -3 6 -4 10 -1 10 3 0 10 -10 17 -21z
m-131 -4 c0 -8 -4 -15 -10 -15 -5 0 -7 7 -4 15 4 8 8 15 10 15 2 0 4 -7 4 -15z
m-517 -12 c-4 -10 -2 -14 5 -9 6 3 16 -2 21 -13 15 -26 14 -31 -4 -25 -8 4
-12 10 -9 15 3 5 -2 9 -10 9 -16 0 -22 21 -9 33 11 11 13 8 6 -10z m35 -125
c54 -91 66 -118 53 -118 -20 0 -81 77 -96 119 -14 43 -20 81 -11 81 3 0 27
-37 54 -82z m11 46 c4 3 8 -1 8 -9 0 -8 -4 -15 -9 -15 -4 0 -8 2 -8 4 0 2 -2
10 -3 18 -2 7 -2 10 0 5 3 -4 8 -5 12 -3z m485 0 c5 -13 9 -14 21 -4 10 9 15
9 15 1 0 -6 8 -11 18 -11 11 0 13 -3 5 -8 -6 -4 -13 -22 -15 -40 l-3 -32 -32
30 c-18 17 -42 30 -55 31 -21 0 -21 1 -4 8 18 7 16 9 -12 19 -33 11 -41 5 -20
-16 9 -9 8 -12 -5 -12 -9 0 -16 -3 -15 -7 0 -5 -4 -19 -10 -33 -9 -22 -11 -23
-12 -5 -1 16 -4 15 -12 -7 -11 -30 -28 -38 -28 -12 0 9 5 12 11 8 7 -4 10 -1
7 6 -2 7 7 24 20 37 13 13 21 30 18 38 -6 17 3 20 59 23 31 1 45 -3 49 -14z
m-396 -39 c3 3 -3 12 -14 21 -18 14 -18 15 4 4 27 -13 69 -78 64 -98 -2 -8 1
-11 7 -7 11 6 15 -11 12 -50 -2 -17 0 -17 8 -5 9 13 11 13 11 -2 0 -9 -6 -19
-12 -21 -7 -3 -3 -6 8 -6 25 -1 38 32 24 59 -7 14 0 26 33 56 25 23 50 38 61
36 13 -3 16 0 11 10 -6 9 -5 10 4 2 18 -17 2 -46 -21 -38 -17 5 -19 3 -13 -15
4 -12 2 -21 -4 -21 -6 0 -11 -4 -11 -9 0 -5 9 -7 20 -4 11 3 20 10 20 15 0 7
5 6 13 -1 8 -6 12 -26 11 -45 -3 -35 9 -55 21 -36 3 5 12 10 18 10 7 0 6 -4
-3 -10 -11 -8 -5 -9 21 -7 29 3 43 -2 68 -24 20 -17 39 -25 48 -22 10 4 14 2
10 -4 -4 -6 -23 -9 -44 -8 -51 3 -53 4 -53 14 0 5 10 7 23 3 22 -5 22 -5 2 17
l-19 22 -8 -22 c-11 -29 -3 -49 19 -49 15 0 16 -2 3 -10 -8 -6 -28 -8 -45 -5
-16 3 -25 2 -18 -1 7 -3 9 -12 6 -20 -3 -8 3 -17 13 -21 11 -4 24 -12 30 -18
12 -11 7 -35 -7 -35 -4 0 -6 6 -4 13 4 8 -7 12 -35 12 -40 1 -59 10 -46 22 4
4 16 2 26 -5 11 -7 28 -12 37 -12 13 1 10 5 -9 16 -16 8 -28 21 -28 28 0 19
-32 30 -41 14 -5 -7 -6 -21 -3 -30 10 -31 12 -138 3 -132 -5 3 -7 10 -4 15 3
5 0 6 -8 3 -10 -3 -16 4 -20 23 -7 36 0 43 12 12 l10 -24 0 28 c1 15 -3 27 -9
27 -5 0 -10 8 -10 18 0 14 2 15 10 2 8 -13 10 -13 10 2 0 9 -4 20 -10 23 -5 3
-10 13 -10 21 0 8 5 12 10 9 6 -3 10 -1 10 4 0 13 -10 14 -30 1 -9 -6 -17 -5
-22 3 -4 7 -7 -6 -6 -28 0 -23 3 -30 5 -17 2 12 9 22 15 22 6 0 7 -7 2 -17 -5
-10 -9 -39 -9 -65 0 -25 -3 -41 -7 -35 -5 8 -8 6 -8 -5 0 -10 5 -18 11 -18 6
0 8 -9 4 -21 -4 -13 -3 -19 2 -16 12 8 25 -17 52 -100 37 -112 102 -200 167
-228 24 -10 34 -22 42 -51 8 -32 10 -35 11 -13 1 15 7 29 15 32 11 5 9 -10 -9
-58 -31 -81 -94 -205 -105 -205 -13 0 -19 26 -9 41 4 8 6 25 3 39 -5 23 -4 24
9 7 19 -24 32 -5 17 24 -9 15 -9 24 -1 32 13 13 14 54 2 62 -14 8 -21 -9 -23
-50 -1 -21 -7 -39 -15 -42 -10 -4 -12 -14 -8 -34 4 -15 2 -36 -3 -46 -7 -11
-9 11 -7 73 2 49 1 106 -2 127 -5 35 -8 37 -40 37 -29 0 -33 3 -28 19 3 12 0
21 -10 25 -8 3 -15 17 -15 31 0 19 4 24 13 18 6 -4 24 -8 39 -9 l28 -2 -21 29
c-11 16 -27 29 -34 29 -8 0 -18 7 -23 16 -8 14 -10 12 -16 -10 -3 -14 -11 -26
-16 -26 -15 0 -12 -57 3 -63 8 -4 8 -8 2 -14 -5 -4 -10 -17 -10 -28 0 -11 -7
-20 -15 -20 -12 0 -14 18 -11 115 3 121 8 181 16 189 3 2 5 -11 6 -30 0 -19 3
-28 6 -21 4 10 8 10 19 1 20 -16 18 5 -2 26 -9 9 -14 25 -11 35 3 11 2 18 -2
16 -29 -18 -49 76 -50 242 -1 34 -5 62 -11 62 -6 0 -10 -32 -10 -75 0 -68 -2
-75 -20 -75 -18 0 -20 7 -20 75 0 43 -4 75 -10 75 -6 0 -10 -32 -10 -75 0 -75
0 -76 -29 -81 l-29 -6 6 -64 c4 -56 3 -64 -11 -58 -17 6 -17 6 -16 -91 0 -22
7 -47 16 -57 25 -28 3 -42 -77 -46 l-70 -4 0 -38 c0 -26 -5 -40 -16 -44 -11
-4 -15 -2 -11 8 13 33 19 86 10 86 -5 0 -10 -16 -11 -36 -2 -37 -8 -52 -17
-42 -9 9 13 90 26 99 8 4 11 11 7 14 -8 9 11 65 23 65 5 0 9 -5 9 -12 0 -6 3
-9 6 -6 3 4 1 15 -5 27 -7 13 -8 22 -1 26 5 3 10 14 10 23 1 9 7 31 16 47 12
25 13 26 10 6 -3 -13 0 -33 5 -43 6 -11 8 -22 5 -25 -3 -3 -10 5 -15 18 -9 23
-10 23 -10 2 -1 -12 4 -25 9 -28 6 -3 10 -14 10 -23 -1 -12 -5 -10 -15 8 -10
17 -14 20 -15 9 0 -9 9 -28 20 -41 10 -14 16 -29 12 -33 -4 -5 -1 -5 6 -1 10
6 10 11 1 22 -10 12 -8 18 7 30 10 9 13 12 5 8 -11 -5 -13 -2 -8 16 3 13 2 31
-3 40 -6 11 -6 30 0 49 6 21 5 29 -1 25 -12 -7 35 87 63 128 13 18 18 38 14
58 -2 17 0 28 5 24 5 -3 9 -22 9 -42 0 -26 -6 -41 -20 -50 -11 -7 -20 -18 -20
-24 0 -9 3 -9 12 0 13 13 29 16 26 5 -2 -5 2 -10 7 -13 6 -3 12 25 15 71 4 56
2 75 -7 72 -14 -5 -31 25 -28 49 2 9 -4 19 -12 22 -10 4 -12 13 -8 27 4 12 3
19 -2 16 -5 -3 -17 7 -27 23 -13 23 -14 34 -6 50 l11 21 26 -21 c14 -11 28
-18 31 -15z m495 -54 c9 -7 25 -10 37 -6 15 5 20 2 20 -13 0 -36 -60 -44 -83
-12 -8 11 -16 17 -20 14 -6 -6 0 27 10 56 4 12 7 11 13 -5 4 -12 15 -27 23
-34z m297 37 c0 -4 -4 -8 -8 -8 -13 0 -99 -83 -112 -108 -17 -35 -3 -77 39
-115 20 -18 35 -40 33 -48 -3 -11 -2 -11 8 -3 9 9 19 8 41 -5 29 -16 38 -31
19 -31 -5 0 -10 5 -10 10 0 6 -4 10 -8 10 -5 0 -9 -7 -9 -15 0 -8 9 -15 21
-15 14 0 17 -3 10 -10 -14 -14 -42 -2 -49 20 -3 11 -15 22 -26 25 -12 4 -18
12 -15 21 3 8 1 14 -4 14 -15 0 -12 -30 6 -47 8 -9 13 -22 9 -31 -3 -8 -2 -20
2 -26 5 -7 0 -4 -9 6 -16 18 -17 18 -15 -2 2 -25 33 -36 54 -18 12 9 15 9 9 1
-5 -9 -2 -11 8 -7 9 3 13 10 10 15 -3 5 1 9 10 9 8 0 16 5 18 12 3 8 11 7 28
-5 14 -9 19 -17 12 -17 -7 0 -12 -6 -11 -12 1 -7 -1 -21 -6 -31 -6 -15 -10
-16 -16 -5 -12 18 -11 31 1 23 6 -3 10 1 10 9 0 19 -14 21 -28 4 -5 -8 -6 -22
-1 -33 11 -27 11 -37 0 -31 -5 3 -11 -4 -14 -16 -4 -12 -9 -19 -13 -15 -4 4
-12 0 -18 -9 -12 -15 -46 -10 -46 7 0 5 -7 9 -15 9 -8 0 -15 5 -15 11 0 5 4 8
8 5 4 -3 9 11 9 30 1 33 0 34 -14 17 -11 -13 -13 -14 -10 -3 3 10 -2 16 -13
16 -12 0 -16 -6 -12 -16 3 -8 -8 -2 -23 13 -18 17 -36 26 -47 24 -10 -3 -20
-2 -23 3 -3 4 9 10 25 12 16 3 31 2 33 -1 2 -3 2 0 0 7 -1 8 -3 20 -3 28 0 8
-4 14 -10 14 -5 0 -7 -7 -3 -17 5 -13 2 -15 -15 -11 -12 3 -25 1 -30 -6 -13
-16 -22 -57 -11 -50 5 3 9 1 9 -5 0 -20 -23 -24 -37 -6 -10 15 -13 15 -13 4 0
-21 20 -38 36 -32 8 3 14 1 14 -5 0 -6 -6 -13 -12 -15 -8 -3 -6 -6 5 -6 9 -1
26 -6 37 -13 16 -10 22 -8 42 12 23 25 58 36 58 19 0 -5 -9 -9 -19 -9 -10 0
-21 -7 -25 -15 -3 -9 0 -15 10 -15 8 0 12 5 9 10 -9 15 7 12 29 -5 18 -14 17
-15 -25 -16 -24 0 -38 -3 -31 -6 17 -7 15 -33 -3 -33 -8 0 -15 6 -15 13 0 21
-88 52 -101 34 -3 -4 -16 4 -29 18 -19 21 -21 25 -7 25 9 0 17 -7 17 -15 0 -8
5 -15 10 -15 15 0 12 26 -5 40 -8 7 -22 10 -30 6 -12 -4 -14 -2 -8 9 13 22 3
96 -11 88 -6 -4 -5 1 3 11 11 13 11 16 1 14 -7 -2 -15 3 -18 11 -3 10 0 12 12
8 20 -8 23 31 4 53 -11 12 -10 12 5 1 9 -7 17 -26 17 -42 0 -25 4 -29 30 -29
17 0 33 -7 39 -17 6 -10 11 -12 11 -5 0 6 6 12 13 12 6 0 25 7 41 15 29 15 41
13 41 -8 0 -5 10 -11 23 -12 15 -1 22 4 22 16 0 12 -11 19 -40 24 -41 7 -50
21 -28 43 9 9 9 12 0 12 -7 0 -12 13 -12 30 l0 30 -75 0 c-43 0 -75 4 -75 10
0 6 5 10 10 10 5 0 9 5 7 12 -1 6 7 13 18 15 11 2 16 1 10 -4 -16 -13 -16 -33
1 -33 8 0 12 5 9 10 -3 6 -4 10 -1 10 2 0 13 3 23 7 15 6 16 4 6 -8 -10 -13
-7 -15 22 -17 20 -2 35 2 35 8 0 7 -9 9 -22 5 -16 -4 -19 -3 -9 3 10 7 7 12
-15 20 -24 9 -25 11 -8 11 12 1 27 8 34 16 7 9 18 14 24 12 6 -2 21 7 34 20
31 31 42 30 13 -1 -13 -14 -20 -30 -16 -36 10 -17 -16 -31 -32 -18 -8 6 -16 8
-20 4 -9 -9 2 -17 27 -19 19 -1 21 -5 16 -39 -6 -35 6 -59 19 -38 3 5 2 10 -4
10 -12 0 -4 58 10 76 5 6 4 15 -1 20 -7 7 -1 19 17 35 15 13 21 16 14 7 -7
-10 -10 -18 -6 -18 11 0 80 63 78 70 -1 4 5 7 13 7 8 0 14 -4 14 -9z m-457
-28 c6 -22 59 -40 65 -21 3 9 7 9 18 0 20 -16 17 -42 -6 -72 -17 -21 -18 -26
-5 -31 10 -3 15 1 15 11 0 13 3 14 12 5 8 -8 8 -15 -2 -27 -11 -13 -15 -14
-29 -1 -9 7 -26 17 -38 20 -33 10 -63 54 -63 91 0 46 23 64 33 25z m-58 -44
c0 -13 -2 -22 -4 -20 -2 2 -10 -1 -18 -7 -10 -9 -13 -8 -13 5 0 9 5 16 10 16
6 0 10 7 10 15 0 8 3 15 8 15 4 0 7 -11 7 -24z m-355 -48 c0 -4 -11 -8 -24 -8
-21 0 -25 5 -24 29 l1 28 23 -20 c13 -11 24 -24 24 -29z m533 35 c-5 -11 -3
-14 6 -8 9 5 12 2 9 -11 -1 -9 -7 -18 -12 -18 -10 -1 -18 33 -10 46 9 14 14 9
7 -9z m-483 -55 c0 -5 -4 -7 -9 -3 -5 3 -12 1 -16 -5 -9 -15 -25 -2 -19 14 6
15 44 10 44 -6z m1088 -5 c1 -24 0 -25 -9 -10 -5 9 -7 22 -4 27 9 15 10 13 13
-17z m-1153 -3 c-3 -5 -1 -10 4 -10 6 0 11 -5 11 -11 0 -8 -5 -8 -15 1 -13 11
-12 30 1 30 3 0 2 -4 -1 -10z m557 -28 c-3 -10 -1 -13 6 -8 7 4 12 3 12 -3 0
-5 -4 -13 -10 -16 -5 -3 -10 -1 -10 4 0 6 -4 11 -10 11 -5 0 -10 -7 -10 -15 0
-8 -5 -15 -11 -15 -12 0 -1 43 12 48 5 2 9 11 9 20 0 14 2 14 9 3 5 -8 7 -21
3 -29z m-493 15 c-2 -1 -13 -9 -24 -17 -19 -14 -19 -14 -6 3 7 9 18 17 24 17
6 0 8 -1 6 -3z m1067 -41 c-1 -24 -4 -42 -8 -39 -5 2 -8 0 -8 -6 0 -6 -6 -8
-14 -5 -18 7 -31 -15 -18 -28 8 -8 15 -8 26 1 10 8 16 9 21 1 3 -5 -2 -10 -12
-11 -10 0 -13 -3 -6 -5 9 -4 6 -16 -9 -45 -20 -39 -36 -54 -24 -23 4 9 1 23
-5 30 -6 8 -8 14 -3 14 10 0 -17 20 -28 20 -4 0 -10 -10 -13 -22 -4 -13 -14
-37 -22 -55 -13 -29 -13 -33 8 -57 25 -28 42 -34 33 -12 -7 17 12 31 21 16 4
-6 2 -17 -4 -24 -6 -7 -7 -17 -3 -21 4 -5 1 -5 -5 -1 -7 4 -13 2 -13 -3 0 -20
-20 -11 -30 12 -8 19 -15 10 -11 -15 2 -12 -17 -10 -24 2 -4 6 -10 8 -15 5 -5
-3 -12 0 -16 7 -4 7 -4 10 1 6 12 -11 45 10 45 29 0 14 -3 14 -21 -3 -18 -16
-16 -9 10 38 36 66 37 70 14 61 -15 -6 -16 -5 -3 9 8 9 17 14 19 13 2 -2 21
17 43 43 48 56 54 62 43 43 -5 -10 -4 -12 4 -7 6 4 9 11 6 16 -4 7 13 60 20
60 1 0 1 -20 1 -44z m24 3 c-7 -11 -14 -18 -17 -15 -8 8 5 36 17 36 7 0 7 -6
0 -21z m-657 -26 c-7 -2 -19 -2 -25 0 -7 3 -2 5 12 5 14 0 19 -2 13 -5z m45
-15 c17 -17 15 -28 -5 -28 -10 0 -27 -8 -38 -17 -16 -13 -17 -15 -2 -10 22 8
23 -9 0 -17 -24 -10 -51 20 -37 41 6 9 17 19 25 21 9 3 8 -2 -5 -17 -11 -11
-16 -24 -13 -28 4 -3 7 -1 7 5 0 6 14 19 31 28 25 12 29 18 18 25 -8 5 -9 9
-3 9 5 0 15 -5 22 -12z m-203 -18 c3 -5 1 -10 -4 -10 -6 0 -11 5 -11 10 0 6 2
10 4 10 3 0 8 -4 11 -10z m98 -11 c-4 -15 -8 -17 -14 -8 -6 11 4 28 18 29 0 0
-1 -9 -4 -21z m347 -23 c0 -2 -7 -7 -16 -10 -8 -3 -12 -2 -9 4 6 10 25 14 25
6z m-250 -26 c0 -5 -6 -10 -14 -10 -8 0 -17 -6 -19 -12 -4 -8 -6 -7 -6 4 -1
15 11 25 32 27 4 1 7 -3 7 -9z m426 -17 c-8 -8 -36 5 -36 17 0 7 6 7 21 0 11
-7 18 -14 15 -17z m-596 -3 c13 -8 12 -10 -2 -10 -10 0 -21 0 -25 -1 -4 0 -9
4 -11 10 -5 14 18 14 38 1z m68 -18 c2 -7 -3 -12 -12 -12 -9 0 -16 -4 -16 -10
0 -12 22 -9 31 3 4 5 16 3 28 -5 19 -11 24 -11 34 3 7 9 18 14 26 11 8 -3 11
0 7 6 -3 5 0 12 8 15 30 12 8 -26 -22 -39 l-32 -13 4 -72 c3 -39 7 -74 10 -77
3 -3 6 0 6 8 0 9 3 10 14 1 14 -12 87 -11 79 2 -7 11 5 8 38 -9 17 -8 33 -13
36 -10 9 8 44 -14 38 -24 -3 -4 1 -10 7 -13 7 -3 -6 -2 -29 0 -36 5 -41 3 -39
-13 2 -10 7 -19 13 -21 6 -2 8 -15 5 -29 -5 -26 -23 -28 -30 -3 -3 11 -2 11 7
-1 9 -13 11 -12 11 6 0 12 -6 21 -15 21 -10 0 -15 -10 -15 -30 0 -22 -4 -28
-15 -23 -33 12 -51 -10 -32 -40 4 -7 -1 -14 -13 -17 -15 -4 -20 0 -20 13 0 10
6 20 13 23 6 2 0 4 -15 4 -18 0 -25 -4 -21 -13 11 -30 -25 -10 -88 47 -16 14
-26 29 -22 32 3 4 -2 7 -13 8 -10 0 -13 3 -6 6 6 2 12 9 12 15 0 6 -6 8 -14 5
-13 -5 -42 40 -32 50 2 2 7 -5 11 -16 3 -12 10 -19 15 -16 5 3 6 13 3 22 -4
10 -2 14 4 10 6 -4 10 16 12 51 1 40 -1 53 -8 42 -6 -8 -8 -25 -5 -37 9 -33
-3 -58 -20 -44 -7 6 -16 8 -19 4 -4 -3 -7 1 -7 11 0 9 5 14 10 11 6 -3 10 0
11 7 0 7 4 4 8 -7 6 -14 8 -3 9 34 0 34 5 57 13 62 11 7 12 11 1 17 -14 9 -6
42 10 42 5 0 6 5 2 11 -4 7 -1 10 6 7 8 -2 16 -10 18 -16z m642 9 c0 -6 -4
-12 -10 -16 -5 -3 -7 -12 -4 -19 6 -17 -18 -37 -34 -27 -19 12 5 71 29 71 10
0 19 -4 19 -9z m-706 -105 c-3 -19 -11 -37 -17 -39 -16 -6 -19 60 -5 86 9 18
11 19 20 4 5 -9 6 -32 2 -51z m170 49 c-4 -8 -12 -15 -20 -15 -20 0 -17 18 4
23 9 3 18 5 19 6 1 0 0 -6 -3 -14z m172 1 c15 5 14 3 -3 -10 -13 -10 -23 -22
-23 -28 0 -7 6 -6 15 2 17 14 20 3 5 -20 -8 -13 -11 -12 -24 5 -9 13 -11 22
-4 26 7 4 6 9 -1 13 -6 4 -11 12 -11 18 0 7 5 7 14 -1 7 -6 22 -8 32 -5z
m-398 -31 c-3 -3 -9 2 -12 12 -6 14 -5 15 5 6 7 -7 10 -15 7 -18z m259 -67
c11 -12 12 -18 4 -18 -7 0 -10 -4 -6 -9 3 -6 -4 -9 -15 -8 -12 1 -25 13 -33
29 -6 15 -15 28 -18 28 -3 0 -4 12 -1 27 l5 27 24 -30 c13 -16 31 -37 40 -46z
m80 6 c-3 -3 -12 -4 -19 -1 -8 3 -5 6 6 6 11 1 17 -2 13 -5z m148 -14 c-27
-12 -35 -12 -35 0 0 6 12 10 28 9 24 0 25 -1 7 -9z m-108 -6 c-3 -3 -12 -4
-19 -1 -8 3 -5 6 6 6 11 1 17 -2 13 -5z m-600 -56 c-3 -7 -5 -2 -5 12 0 14 2
19 5 13 2 -7 2 -19 0 -25z m752 -17 c-2 -25 -2 -25 -6 3 -4 22 -7 26 -13 15
-7 -10 -9 -8 -7 8 2 33 27 8 26 -26z m-46 -3 c-3 -16 -10 -28 -15 -28 -6 0 -6
-5 1 -14 9 -11 7 -15 -13 -18 -15 -3 -36 5 -61 23 l-37 28 28 -2 c23 -2 29 2
28 16 -2 17 0 17 15 3 31 -28 50 -14 41 29 -1 7 2 7 9 0 5 -5 7 -22 4 -37z
m20 -25 c-4 -11 -3 -14 5 -9 16 10 15 1 -1 -12 -10 -8 -13 -5 -15 14 -1 13 3
24 8 24 5 0 6 -7 3 -17z m-123 -72 c0 -6 -5 -13 -10 -16 -6 -4 -7 -11 -4 -17
5 -7 2 -8 -6 -3 -10 6 -12 4 -7 -9 4 -10 3 -15 -3 -11 -6 3 -10 3 -10 -2 0 -4
-19 -9 -43 -9 l-42 -2 45 12 c39 11 42 14 20 18 -24 5 -24 5 3 7 20 1 31 7 34
21 5 20 23 28 23 11z m-821 -75 c-9 -8 -10 -7 -5 7 3 10 7 24 7 30 1 7 3 4 6
-7 3 -10 -1 -23 -8 -30z m37 -2 c-4 -9 -9 -15 -11 -12 -3 3 -3 13 1 22 4 9 9
15 11 12 3 -3 3 -13 -1 -22z m21 -16 c-3 -7 -5 -2 -5 12 0 14 2 19 5 13 2 -7
2 -19 0 -25z m376 -2 c4 -10 1 -13 -9 -9 -15 6 -19 23 -5 23 5 0 11 -7 14 -14z
m-390 -81 c24 -17 22 -91 -3 -141 -13 -25 -19 -30 -15 -14 5 18 3 21 -3 11 -8
-11 -11 -9 -17 9 -6 20 -9 21 -17 7 -5 -10 -16 -17 -23 -17 -8 0 -15 -5 -15
-12 0 -6 -2 -9 -5 -6 -9 8 6 38 16 32 5 -3 9 0 9 5 0 6 -6 11 -12 11 -10 0
-10 2 0 8 7 5 12 26 12 48 -2 51 7 99 22 127 11 21 12 21 23 -17 6 -21 19 -44
28 -51z m-6 43 c-3 -7 -5 -2 -5 12 0 14 2 19 5 13 2 -7 2 -19 0 -25z m-80
-130 c-3 -8 -6 -5 -6 6 -1 11 2 17 5 13 3 -3 4 -12 1 -19z m53 -79 c9 -16 14
-18 25 -9 11 9 15 5 21 -24 6 -35 8 -36 53 -37 25 -1 57 0 70 1 13 1 27 -4 32
-11 9 -16 102 -15 107 1 2 5 8 10 13 10 4 0 6 -7 3 -15 -4 -8 -18 -15 -34 -15
-30 0 -90 -29 -90 -43 0 -10 -26 -37 -35 -37 -3 0 -3 5 0 10 4 7 -5 9 -25 5
-17 -3 -29 -2 -26 3 8 13 -7 28 -44 40 l-35 12 43 -4 c23 -2 42 0 42 5 0 5
-13 9 -29 9 -16 0 -32 6 -34 13 -4 8 -8 8 -14 2 -7 -9 -24 -11 -60 -6 -9 1
-13 19 -13 56 0 57 11 70 30 34z m-48 -17 c-7 -2 -12 -10 -12 -18 0 -9 5 -12
12 -8 8 5 9 2 5 -10 -4 -11 2 -26 18 -42 24 -24 52 -34 40 -14 -3 6 -1 10 4
10 6 0 11 -5 11 -11 0 -5 16 -17 36 -25 64 -27 30 -25 -40 2 -47 19 -71 34
-79 51 -6 15 -13 19 -17 12 -4 -6 -8 2 -8 17 0 30 30 70 37 51 2 -6 -1 -13 -7
-15z m-62 -3 c0 -22 -21 -22 -28 1 -3 7 0 10 7 6 6 -4 11 -2 11 3 0 6 2 11 5
11 3 0 5 -9 5 -21z m650 -14 c13 -15 10 -23 -29 -72 -24 -30 -51 -47 -36 -23
3 6 2 10 -4 10 -6 0 -8 7 -5 15 4 8 1 15 -5 15 -6 0 -11 -4 -11 -9 0 -4 -15
-13 -32 -19 -25 -9 -26 -10 -7 -7 16 3 31 -1 39 -9 9 -12 5 -17 -27 -25 -55
-16 -60 -14 -77 21 -16 32 -13 55 4 28 8 -13 10 -12 10 3 0 9 -4 17 -10 17 -5
0 -10 5 -10 11 0 8 26 10 85 7 l85 -4 0 28 c0 31 11 36 30 13z m-630 -65 l25
-22 -32 22 c-18 12 -33 18 -32 13 0 -10 51 -51 75 -60 17 -6 18 -5 4 12 -14
17 -14 17 7 4 15 -9 18 -16 10 -21 -14 -8 64 -43 142 -64 30 -7 56 -15 58 -17
2 -2 -2 -18 -8 -37 -11 -30 -14 -32 -48 -27 -62 8 -144 45 -209 92 -60 44 -62
47 -62 90 0 37 3 43 16 38 14 -5 15 -3 4 18 l-11 24 18 -22 c10 -12 29 -31 43
-43z m373 23 c-13 -2 -35 -2 -50 0 -16 2 -5 4 22 4 28 0 40 -2 28 -4z m34 -50
c34 -45 36 -57 4 -30 -18 15 -37 27 -42 27 -16 0 -53 -22 -66 -39 -6 -9 -15
-13 -19 -8 -4 4 -2 7 4 7 7 0 12 7 12 15 0 8 1 15 3 15 1 0 20 7 42 15 50 18
45 18 62 -2z m-12 -43 c3 -6 -5 -10 -19 -10 -29 0 -55 -33 -81 -102 -17 -46
-17 -59 1 -103 l7 -20 -22 20 c-20 17 -23 27 -18 71 6 57 38 127 64 143 23 13
60 14 68 1z m246 -40 c-5 -24 -15 -47 -23 -51 -27 -17 -188 -49 -247 -49 -65
0 -70 4 -47 49 14 25 22 29 83 34 72 7 212 42 227 57 16 15 17 5 7 -40z m-144
14 c-3 -3 -12 -4 -19 -1 -8 3 -5 6 6 6 11 1 17 -2 13 -5z m-234 -11 c-7 -2
-19 -2 -25 0 -7 3 -2 5 12 5 14 0 19 -2 13 -5z m180 0 c-7 -2 -19 -2 -25 0 -7
3 -2 5 12 5 14 0 19 -2 13 -5z m-403 -85 c0 -10 -4 -18 -10 -18 -5 0 -10 9
-10 19 0 23 -37 38 -53 22 -8 -8 -4 -11 14 -12 l24 0 -25 -11 c-24 -10 -24
-10 20 -24 43 -13 46 -12 62 9 9 12 20 18 25 14 4 -5 1 -12 -7 -18 -11 -6 -4
-8 22 -6 25 3 39 0 42 -9 3 -8 0 -14 -7 -15 -8 0 -8 -2 1 -6 7 -3 22 3 33 13
10 9 19 12 19 6 0 -6 8 -9 18 -5 9 3 -8 -13 -38 -35 -30 -22 -58 -38 -62 -36
-4 2 -10 -1 -14 -7 -5 -8 -9 -8 -14 1 -10 16 -30 4 -30 -17 0 -12 3 -13 13 -4
8 6 17 8 21 4 4 -4 11 -1 16 7 8 13 10 12 10 -3 0 -10 -6 -20 -13 -23 -9 -3
-12 -16 -8 -37 l5 -32 7 30 c6 26 7 23 8 -17 1 -52 -7 -60 -27 -28 -14 24 -32
18 -32 -10 0 -10 -9 -22 -20 -25 -13 -4 -20 -15 -20 -31 0 -13 -4 -24 -10 -24
-5 0 -10 -9 -10 -21 0 -11 -4 -17 -10 -14 -6 4 -10 -8 -10 -29 0 -29 -4 -36
-20 -36 -12 0 -20 7 -20 16 0 21 -27 47 -35 34 -3 -5 -1 -10 4 -10 6 0 11 -9
11 -20 0 -14 -7 -20 -22 -21 -13 0 -33 -2 -45 -5 -17 -3 -23 1 -23 14 0 9 4
13 8 7 9 -12 32 -18 32 -7 0 4 -9 13 -20 20 -17 10 -20 9 -26 -12 -3 -14 -3
-30 2 -37 5 -9 1 -11 -14 -7 -14 4 -26 0 -33 -10 -9 -15 -10 -14 -4 3 4 11 8
28 11 39 6 31 14 31 14 1 0 -35 5 -30 13 13 4 21 3 31 -3 27 -6 -3 -10 -3 -10
2 0 14 14 29 33 36 9 3 17 12 16 19 0 10 -2 10 -6 1 -2 -7 -9 -13 -14 -13 -5
0 -4 8 3 19 8 14 14 16 23 7 7 -6 10 -17 8 -23 -3 -7 0 -13 6 -13 13 0 14 15
2 57 -9 32 3 62 36 89 7 7 16 22 18 35 3 12 10 27 16 33 9 8 10 8 5 -1 -3 -6
-2 -14 4 -18 5 -3 10 0 10 7 0 10 3 9 10 -2 10 -17 15 -14 25 18 6 21 4 23
-14 17 -19 -6 -20 -4 -10 21 15 41 5 71 -23 68 -13 -1 -26 -3 -30 -3 -5 -1 -8
-13 -8 -27 0 -15 -4 -23 -11 -19 -6 4 -8 14 -5 24 4 9 -3 5 -14 -9 -11 -14
-18 -30 -15 -37 2 -7 -2 -10 -13 -7 -14 5 -15 4 -2 -5 20 -15 27 -14 34 5 3 8
2 12 -4 9 -6 -3 -10 -2 -10 4 0 15 20 24 21 9 1 -7 1 -16 0 -20 0 -5 4 -8 10
-8 8 0 8 -5 -1 -15 -7 -8 -19 -15 -26 -15 -8 0 -14 -8 -14 -17 0 -15 2 -16 10
-3 5 8 12 12 15 8 9 -8 -36 -79 -46 -72 -5 3 -9 -1 -9 -8 0 -7 -9 -19 -21 -26
-16 -10 -20 -10 -18 0 4 32 -2 69 -10 64 -5 -3 -7 -25 -4 -49 3 -28 1 -38 -5
-28 -8 11 -10 11 -15 0 -3 -8 -6 -5 -6 8 -1 12 5 24 12 26 9 4 9 7 -1 14 -9 7
-8 14 7 30 11 11 17 25 13 29 -4 5 1 3 10 -4 11 -9 15 -23 13 -43 -7 -49 13
-32 31 26 11 41 13 60 5 69 -8 10 -1 23 29 56 22 24 40 46 40 49 0 11 35 36
50 36 8 0 16 6 16 13 1 6 2 14 3 17 3 13 71 -42 71 -57z m580 -8 c0 -5 -2 -10
-4 -10 -3 0 -8 5 -11 10 -3 6 -1 10 4 10 6 0 11 -4 11 -10z m14 -23 c4 4 4 -1
0 -11 -5 -14 -9 -15 -15 -4 -7 11 -9 11 -9 0 0 -8 9 -27 20 -42 17 -24 18 -30
6 -42 -7 -8 -17 -25 -20 -38 -6 -20 -4 -19 13 8 11 17 23 32 25 32 10 0 13
-28 4 -41 -8 -11 -9 -10 -4 4 7 23 -1 22 -14 -2 -8 -17 -7 -19 8 -16 27 5 43
-8 46 -36 1 -14 5 -29 8 -34 3 -6 3 -26 1 -45 -2 -19 -5 -72 -7 -118 -4 -69
-2 -84 12 -91 9 -5 26 -5 37 0 11 4 22 8 25 8 8 1 14 -101 9 -154 -1 -11 0
-57 3 -102 4 -64 2 -83 -8 -87 -8 -3 -14 -1 -14 4 0 19 -18 10 -23 -11 -3 -11
-14 -23 -25 -26 -21 -5 -37 -43 -23 -53 16 -9 10 -79 -9 -102 -9 -13 -24 -36
-33 -53 -8 -16 -29 -45 -46 -62 -17 -18 -31 -36 -31 -39 0 -7 -75 -108 -97
-132 -8 -8 -13 -9 -13 -3 0 18 -56 12 -74 -8 -17 -18 -13 -51 6 -51 6 0 7 7 4
16 -8 22 11 44 38 43 l21 0 -21 -9 c-23 -9 -41 -30 -27 -30 5 0 14 5 21 12 7
7 12 8 12 2 0 -6 -9 -19 -20 -29 -11 -10 -20 -24 -20 -32 0 -7 -7 -13 -15 -13
-8 0 -15 -5 -15 -11 0 -5 4 -8 9 -4 5 3 12 1 15 -4 4 -5 17 -8 31 -6 14 1 25
-2 25 -6 0 -5 -6 -9 -12 -9 -9 0 -8 -3 2 -10 12 -7 15 -34 16 -130 1 -104 -1
-120 -15 -120 -9 0 -25 -13 -36 -29 -10 -16 -23 -27 -28 -24 -5 3 -6 -5 -3
-18 7 -24 7 -24 -8 1 -20 33 -20 12 0 -29 9 -18 13 -43 10 -59 -3 -15 -2 -34
4 -42 8 -12 10 -13 10 -1 0 8 2 12 5 9 9 -8 -6 -38 -16 -32 -5 3 -7 -1 -4 -8
3 -7 -11 -49 -30 -93 -19 -44 -35 -75 -35 -70 0 15 35 114 43 122 4 3 7 13 7
22 0 12 -3 11 -13 -4 -13 -17 -15 -17 -32 6 l-17 24 6 -27 c4 -16 2 -28 -3
-28 -5 0 -11 10 -13 23 -2 12 -9 21 -17 19 -9 -2 -12 4 -8 18 3 11 0 23 -6 27
-7 4 -8 -9 -3 -43 4 -34 3 -45 -4 -38 -6 6 -12 21 -13 32 -1 13 -5 18 -10 13
-5 -5 -3 -19 4 -32 8 -13 19 -40 26 -59 11 -32 12 -33 8 -5 -3 17 -1 44 4 60
7 24 9 26 10 8 1 -31 31 -59 43 -41 6 8 7 4 2 -12 -3 -14 -10 -30 -15 -35 -14
-19 -21 -77 -8 -69 8 4 9 3 5 -5 -4 -6 -3 -18 4 -26 8 -10 8 -19 -2 -35 -11
-18 -11 -23 5 -31 11 -6 17 -20 15 -33 -3 -23 39 -103 48 -93 3 3 -6 21 -20
40 -23 30 -25 35 -10 41 17 7 44 -9 44 -27 0 -5 -9 -2 -21 9 -21 19 -21 19 1
-18 15 -26 19 -42 12 -54 -7 -13 -17 -4 -57 52 -26 38 -41 63 -34 57 24 -24
30 -13 9 16 -11 16 -16 32 -11 35 5 4 5 21 -1 43 -6 21 -10 52 -9 68 0 18 -3
25 -7 17 -13 -19 -61 116 -66 184 -2 32 -9 70 -14 84 l-9 25 -8 -25 c-5 -14
-4 -25 3 -28 5 -1 7 -12 4 -24 -3 -14 -1 -19 6 -14 8 5 10 1 5 -10 -6 -15 -8
-14 -16 7 -6 13 -18 42 -27 64 -23 53 -40 105 -34 105 2 0 -2 13 -11 29 -9 19
-11 32 -5 36 6 3 10 11 10 17 0 6 -7 5 -17 -3 -9 -8 -14 -9 -10 -3 4 7 0 28
-8 47 -8 19 -11 37 -8 40 3 4 1 12 -4 19 -5 7 -10 33 -10 58 0 25 2 34 4 21 3
-17 7 -20 13 -12 4 7 6 -12 5 -43 -2 -31 1 -56 6 -56 5 0 9 -9 9 -21 0 -11 4
-18 9 -14 13 8 23 -28 16 -62 -5 -28 -5 -28 5 -3 13 27 -3 99 -23 112 -6 4 -8
10 -3 15 4 4 12 0 17 -10 6 -9 15 -14 21 -11 7 5 9 -18 7 -69 l-4 -75 30 -5
c16 -2 39 -7 50 -11 16 -7 17 -6 5 3 -12 9 -9 10 15 5 17 -4 35 -7 40 -8 6 0
13 -7 16 -15 3 -8 3 27 1 78 -4 91 -2 98 31 92 5 -1 6 3 2 8 -3 6 -12 8 -21 4
-12 -4 -15 10 -15 93 -1 55 -2 128 -3 164 l-1 65 30 -3 c17 -1 53 0 81 3 l51
6 -1 77 -1 77 33 3 c25 3 39 -3 57 -22 16 -17 20 -27 12 -35 -8 -8 -6 -11 5
-11 27 0 30 17 6 34 -27 19 -20 28 26 29 20 1 36 5 36 10 0 4 -4 5 -10 2 -5
-3 -10 1 -10 10 0 13 4 14 20 5 11 -6 20 -16 21 -23 0 -9 2 -9 5 0 3 7 0 22
-6 33 -14 26 -3 42 11 17 6 -9 14 -15 20 -12 15 10 10 22 -12 28 -18 5 -19 8
-8 20 8 8 17 13 20 11 4 -2 9 2 12 10 10 26 -33 5 -50 -25 -24 -41 -33 -36
-33 19 0 81 13 212 20 212 4 0 11 -34 15 -75 4 -41 10 -75 14 -75 5 0 6 34 3
75 -5 84 -8 80 76 76 l32 -2 0 90 c0 81 -2 90 -20 96 -11 4 -18 10 -15 15 3 5
13 6 22 3 15 -6 16 -5 3 9 -11 11 -17 12 -22 4 -5 -7 -8 -6 -8 4 0 13 -1 13
-10 0 -8 -12 -10 -12 -16 3 -11 30 -24 18 -24 -23 0 -35 3 -40 23 -40 13 0 28
5 34 11 7 7 13 7 17 1 9 -15 -43 -23 -94 -14 -36 6 -45 12 -43 28 3 34 3 176
-1 309 -3 102 -1 131 10 140 10 7 11 14 3 25 -9 13 -10 12 -5 -2 3 -10 4 -18
2 -18 -3 0 -12 -3 -22 -7 -14 -5 -16 -3 -11 11 4 9 3 15 -2 11 -5 -3 -12 -1
-16 5 -3 5 -32 9 -63 9 -31 -1 -48 -4 -37 -6 24 -6 64 -33 49 -33 -21 0 -74
32 -69 41 4 5 24 12 46 15 28 5 39 11 39 24 0 13 6 17 19 13 10 -3 22 0 25 6
5 7 14 6 30 -4 12 -8 26 -12 30 -8z m-114 -7 c0 -5 -11 -11 -25 -11 -14 -1
-31 -2 -37 -3 -7 -1 -16 -5 -20 -11 -4 -6 -8 -2 -8 9 0 10 5 16 13 13 6 -2 21
-1 32 4 28 11 45 11 45 -1z m-563 -25 c0 -8 -6 -15 -14 -15 -7 0 -13 7 -13 15
0 8 6 15 13 15 8 0 14 -7 14 -15z m377 -7 c8 -13 23 -51 32 -86 15 -54 16 -65
3 -76 -17 -16 -174 -86 -193 -86 -8 0 -20 26 -30 65 -26 103 -23 115 32 153
26 17 54 32 62 32 8 0 -6 -13 -31 -28 -62 -40 -72 -55 -64 -94 11 -50 36 -108
46 -108 6 0 46 16 89 36 62 28 80 41 80 57 0 34 -34 129 -47 134 -15 6 -17 23
-3 23 5 0 16 -10 24 -22z m46 1 c-7 -11 -14 -18 -17 -15 -8 8 5 36 17 36 7 0
7 -6 0 -21z m34 6 c-4 -8 -1 -15 6 -15 10 0 10 -3 0 -15 -7 -8 -16 -12 -21 -9
-5 3 -9 2 -8 -3 1 -4 1 -17 -1 -28 -1 -20 -2 -20 -9 0 -5 13 -1 31 12 52 20
35 30 43 21 18z m245 -15 c11 -24 11 -24 -3 -6 -9 11 -16 24 -16 30 0 12 5 7
19 -24z m-384 -50 c13 0 27 5 30 10 12 20 20 9 32 -41 11 -46 11 -53 -5 -65
-25 -19 -30 -17 -24 12 6 34 -17 77 -40 71 -9 -3 -19 0 -20 5 -2 6 -17 8 -35
4 -30 -7 -30 -7 -26 -64 5 -59 16 -84 26 -58 4 9 2 16 -3 16 -5 0 -9 15 -8 33
1 19 -2 39 -5 44 -4 6 0 14 9 17 25 10 34 7 34 -10 0 -10 -6 -14 -14 -11 -12
5 -13 -2 -8 -31 10 -65 8 -77 -12 -77 -13 0 -23 12 -32 35 -23 63 -18 87 23
115 32 21 39 22 46 10 4 -8 19 -15 32 -15z m183 -16 c-1 -24 -6 -33 -15 -30
-7 3 -13 -2 -13 -10 0 -10 6 -14 15 -10 12 4 15 -7 15 -67 0 -81 -8 -101 -35
-91 -11 5 -16 4 -12 -3 4 -6 -11 -9 -38 -7 -25 1 -45 1 -45 -1 0 -4 60 -35 68
-35 3 0 -3 7 -14 15 -10 8 -13 15 -7 15 7 0 20 -11 29 -24 17 -26 40 -25 47 2
2 10 2 -3 -1 -28 -3 -25 -10 -48 -15 -52 -8 -5 -8 -14 0 -30 23 -47 24 -82 2
-117 -16 -27 -23 -31 -30 -20 -5 8 -9 9 -9 3 0 -20 13 -24 31 -8 9 8 19 12 21
7 3 -4 3 -68 0 -140 l-4 -133 -39 0 -39 0 -1 83 c-1 45 -1 89 0 99 3 28 -19
31 -29 3 -13 -35 -13 -38 5 -31 12 4 15 -7 15 -67 0 -75 -9 -97 -42 -97 -16 0
-24 -23 -19 -54 1 -5 -1 -16 -5 -25 -4 -9 -6 -28 -5 -43 3 -30 11 -28 -109
-32 l-45 -1 3 -72 c2 -76 -7 -91 -34 -55 -12 15 -13 15 -14 0 0 -9 6 -19 13
-22 6 -3 0 -4 -16 -2 -15 2 -30 -1 -33 -6 -3 -4 -9 -6 -14 -3 -10 6 -7 -21 3
-31 4 -4 7 0 7 9 0 11 8 17 23 17 12 0 32 3 45 6 16 5 22 2 22 -10 0 -10 -4
-15 -9 -12 -5 4 -11 1 -13 -5 -3 -9 -9 -9 -25 0 -12 6 -24 7 -27 2 -7 -10 22
-25 42 -22 6 1 12 -6 13 -16 1 -13 3 -10 9 7 6 19 8 9 9 -37 1 -35 -4 -63 -10
-65 -7 -2 -7 -12 0 -31 14 -37 14 -94 0 -103 -8 -5 -10 0 -6 17 3 13 2 44 -3
69 -4 25 -5 49 -2 55 4 5 7 24 8 40 1 17 -1 24 -3 17 -5 -14 -100 64 -96 79 2
5 -1 9 -7 9 -5 0 -7 7 -4 15 4 8 1 15 -5 15 -6 0 -11 -5 -11 -12 0 -10 -39 28
-87 86 -16 19 -18 26 -7 26 8 0 19 -11 24 -25 12 -30 24 -34 15 -4 -5 15 -4
19 5 14 6 -4 9 -17 6 -30 -4 -17 0 -28 16 -39 27 -19 40 -10 13 10 -14 10 -19
24 -17 44 2 18 -1 30 -8 30 -9 0 -9 4 1 16 10 13 10 17 0 24 -10 6 -11 12 -2
26 10 18 10 18 11 -2 0 -19 5 -21 78 -19 43 0 83 4 90 9 14 9 16 43 2 48 -7 2
-19 334 -20 561 0 14 -9 17 -45 17 -25 0 -45 5 -45 10 0 6 9 10 20 10 11 0 20
5 20 10 0 6 11 10 25 10 14 0 25 2 25 4 0 16 -15 36 -27 36 -22 0 -43 26 -43
52 0 28 16 55 27 45 4 -5 1 -12 -7 -17 -19 -12 -13 -12 28 -1 37 11 43 -3 28
-67 -4 -20 -2 -22 16 -16 14 4 18 2 14 -5 -4 -6 -3 -11 2 -11 6 0 12 7 16 15
3 8 10 15 16 15 6 0 9 -4 6 -9 -3 -4 3 -16 14 -26 11 -10 20 -13 20 -7 0 7 10
11 21 9 12 -1 24 4 27 12 3 10 0 12 -11 8 -11 -4 -14 -2 -10 9 3 9 -1 14 -13
14 -16 0 -17 2 -4 10 20 13 31 12 27 -1 -1 -6 4 -14 12 -17 8 -3 11 0 7 6 -4
7 9 5 30 -4 26 -11 40 -12 47 -5 8 8 7 11 -3 11 -13 0 -13 2 0 11 11 8 7 9
-17 4 -18 -4 -40 -2 -50 4 -15 9 -12 10 12 5 21 -4 26 -3 16 4 -11 8 -9 11 10
18 13 4 27 7 32 6 4 -1 7 2 7 7 0 5 9 13 20 16 16 5 19 12 14 32 -5 18 -3 24
5 19 14 -9 15 -56 1 -56 -5 0 -10 -4 -10 -10 0 -14 37 -13 46 2 4 7 3 8 -4 4
-15 -9 -20 61 -11 135 5 41 30 24 27 -17z m-47 5 c-9 -22 -10 -22 -10 -3 -1
11 2 24 6 27 12 12 14 0 4 -24z m-591 -16 c0 -36 -1 -37 -17 -19 -13 13 -14
20 -6 23 7 2 9 11 6 19 -3 8 0 14 6 14 6 0 11 -17 11 -37z m880 7 c6 -11 8
-20 6 -20 -3 0 -10 9 -16 20 -6 11 -8 20 -6 20 3 0 10 -9 16 -20z m-400 -51
c0 -10 -5 -21 -10 -24 -6 -4 -8 -9 -6 -13 2 -4 -7 -8 -21 -8 -22 -2 -24 1 -17
30 3 17 11 40 16 50 10 19 11 19 24 1 8 -10 14 -27 14 -36z m444 -38 c-6 -6
-24 19 -24 34 1 6 7 1 15 -9 8 -11 12 -22 9 -25z m24 -29 c-2 -20 3 -32 12
-27 6 3 7 -1 4 -10 -4 -10 -2 -15 6 -13 7 2 14 -8 16 -22 3 -20 2 -22 -7 -10
-8 11 -9 7 -5 -20 5 -25 3 -31 -5 -23 -6 6 -12 26 -13 45 -2 20 -10 46 -20 59
-20 29 -21 40 -1 33 8 -3 14 -9 13 -12z m-1018 -50 c0 -15 -2 -15 -10 -2 -13
20 -13 33 0 25 6 -3 10 -14 10 -23z m21 -19 c-11 -21 -20 -33 -21 -27 0 15 31
76 37 71 2 -3 -5 -22 -16 -44z m963 -6 c2 -14 0 -29 -5 -32 -15 -10 -10 -28 5
-22 8 3 17 -1 20 -10 8 -19 -12 -45 -27 -36 -6 4 -3 9 9 14 17 7 17 8 -4 8
-20 1 -23 5 -21 44 4 69 14 85 23 34z m-494 -8 c0 -14 -17 -10 -23 5 -4 10 -1
13 9 9 7 -3 14 -9 14 -14z m-500 -37 c-5 -2 -7 -9 -4 -17 3 -7 0 -16 -5 -20
-6 -3 -9 -11 -6 -16 4 -5 1 -9 -5 -9 -10 0 -8 19 7 74 4 15 7 16 14 5 5 -8 4
-15 -1 -17z m1110 -22 c14 -28 18 -48 13 -67 -4 -16 -6 -35 -5 -43 3 -13 2
-13 -7 0 -9 12 -11 10 -11 -12 0 -15 -4 -30 -10 -33 -9 -6 -16 46 -12 103 0
12 -3 20 -9 17 -5 -4 -9 -1 -9 4 0 6 5 11 11 11 5 0 7 5 4 10 -6 10 2 50 10
50 3 0 14 -18 25 -40z m-80 -56 c0 -8 -5 -12 -10 -9 -6 4 -8 11 -5 16 9 14 15
11 15 -7z m-41 -7 c12 -15 5 -27 -16 -27 -7 0 -13 9 -13 20 0 23 13 26 29 7z
m-909 -61 c0 -17 -3 -15 -20 12 -26 42 -26 62 0 32 11 -13 20 -32 20 -44z
m-196 3 c16 -1 13 -3 -9 -9 -45 -11 -65 -11 -65 1 0 6 9 8 20 4 15 -5 18 -3
14 9 -3 9 -10 13 -15 10 -5 -3 -6 3 -2 12 6 16 8 15 21 -4 8 -12 24 -23 36
-23z m75 10 c-6 -11 -17 -23 -25 -26 -8 -3 -14 -11 -14 -19 0 -8 -7 -14 -15
-14 -22 0 -19 8 15 37 17 13 30 31 30 39 0 9 5 12 10 9 7 -4 6 -13 -1 -26z
m64 4 c-3 -24 -2 -25 6 -8 7 16 10 8 11 -35 2 -51 3 -53 13 -27 6 15 14 27 18
27 4 0 8 -50 8 -110 0 -70 -4 -108 -10 -104 -6 3 -7 19 -4 35 5 23 3 29 -10
29 -13 0 -15 -5 -9 -17 4 -10 8 -52 10 -93 3 -95 4 -99 14 -75 7 17 9 16 9
-10 1 -17 4 -25 9 -18 8 12 107 24 130 16 6 -3 12 -14 12 -25 0 -11 -4 -16
-11 -12 -6 3 -3 -5 6 -20 16 -24 16 -28 3 -44 -9 -9 -19 -27 -23 -40 -9 -31
-28 -16 -20 17 l7 26 -21 -23 c-23 -27 -18 -52 10 -52 10 0 19 -4 19 -10 0 -5
-7 -10 -16 -10 -26 0 -54 20 -48 34 3 9 -1 13 -11 13 -10 -1 -27 18 -46 51
-16 29 -25 50 -19 47 5 -3 10 0 10 7 -1 19 -29 66 -30 49 0 -8 -2 -12 -5 -10
-2 3 -1 20 5 37 5 20 5 30 -1 27 -5 -4 -9 -14 -10 -23 -1 -19 -27 44 -28 67
-1 10 4 9 14 -5 8 -10 15 -14 15 -9 0 6 5 3 10 -5 7 -12 10 -8 10 14 0 24 -2
27 -15 16 -12 -10 -15 -10 -15 3 0 9 5 19 10 22 6 3 10 11 10 17 0 6 -8 4 -17
-5 -35 -30 -41 3 -32 166 2 30 15 36 23 10 3 -10 3 6 0 35 -4 30 -2 52 4 52 5
0 8 -12 5 -27z m-206 -57 c-5 -11 2 -14 31 -10 20 2 31 2 24 -2 -6 -3 -10 -9
-8 -13 3 -4 -10 -7 -29 -7 -29 1 -34 4 -32 24 1 12 5 22 10 22 5 0 7 -6 4 -14z
m46 7 c-7 -2 -19 -2 -25 0 -7 3 -2 5 12 5 14 0 19 -2 13 -5z m78 -31 c-5 -9
-8 -37 -6 -62 2 -34 -2 -52 -19 -72 l-22 -28 1 33 c0 17 -4 38 -10 46 -8 11
-6 13 5 9 10 -3 14 -15 12 -32 -2 -17 1 -25 7 -22 15 10 9 122 -7 119 -6 -2
-12 2 -12 7 0 14 27 12 33 -2 3 -7 6 -3 6 10 1 13 5 20 11 17 6 -4 7 -13 1
-23z m1173 6 c-8 -28 -12 -33 -20 -25 -9 8 6 47 17 47 6 0 7 -10 3 -22z
m-1252 -34 c14 -14 20 -14 33 -4 8 7 15 8 15 2 0 -5 -7 -15 -15 -22 -12 -10
-20 -7 -46 14 -17 14 -25 26 -18 26 7 0 21 -7 31 -16z m1247 -69 c2 -48 12
-79 22 -64 4 8 11 10 16 6 4 -5 -3 -16 -15 -26 -19 -14 -21 -19 -10 -29 11 -8
16 -5 27 19 7 16 20 29 29 29 15 0 15 2 2 11 -13 9 -12 10 3 5 10 -3 17 0 17
8 0 8 7 17 16 20 16 6 12 -6 -13 -35 -8 -9 -13 -20 -11 -25 8 -29 -72 -118
-90 -100 -4 4 -7 61 -7 127 0 65 3 111 7 102 3 -10 7 -31 7 -48z m-52 -37 c-2
-13 -4 -5 -4 17 -1 22 1 32 4 23 2 -10 2 -28 0 -40z m-440 0 c-3 -8 -6 -5 -6
6 -1 11 2 17 5 13 3 -3 4 -12 1 -19z m-680 -34 c1 -20 6 -41 12 -47 7 -7 5
-19 -5 -39 -9 -17 -13 -36 -10 -44 3 -9 1 -12 -4 -9 -6 3 -10 1 -10 -5 0 -7 6
-10 13 -7 6 2 12 14 12 27 0 13 5 25 12 27 7 3 9 -4 6 -18 -4 -14 -2 -20 4
-16 12 8 33 -42 34 -82 0 -14 3 -20 6 -12 5 12 18 -5 68 -92 9 -15 12 -33 8
-40 -4 -7 -6 -19 -5 -29 2 -9 -2 -19 -8 -23 -5 -3 -10 1 -10 9 0 9 -5 16 -10
16 -14 0 -60 46 -60 59 0 5 -6 11 -12 14 -7 2 2 7 19 11 35 8 55 26 29 26 -10
0 -13 6 -10 15 4 9 1 15 -7 15 -25 0 -42 -17 -36 -35 4 -9 3 -14 -2 -10 -5 3
-12 -8 -16 -25 -4 -16 -13 -30 -21 -30 -8 0 -14 -9 -14 -20 0 -11 5 -20 10
-20 14 0 60 -46 60 -60 0 -5 8 -10 18 -10 14 0 15 -2 2 -9 -8 -6 -18 -7 -22
-5 -4 3 -8 1 -8 -4 0 -4 -9 -18 -19 -29 -25 -26 -27 -41 -14 -73 6 -14 14 -33
17 -42 3 -10 10 -18 16 -18 6 0 9 4 6 9 -4 5 -1 11 6 13 7 3 9 12 4 23 -6 16
-9 17 -16 5 -8 -13 -10 -12 -10 2 0 9 6 23 13 30 14 15 20 35 19 61 0 9 3 15
9 12 5 -4 12 7 15 24 7 34 43 45 45 14 1 -17 2 -17 6 0 2 9 11 17 19 17 17 0
18 -12 2 -29 -11 -10 -7 -12 16 -9 39 4 42 19 9 52 -33 33 -41 61 -12 43 10
-6 19 -17 19 -24 0 -7 7 -13 15 -13 15 0 51 -58 42 -67 -3 -2 -8 5 -12 18 -6
17 -9 19 -16 8 -11 -18 -11 -32 0 -25 14 9 21 -22 10 -46 -8 -21 -9 -20 -4 5
6 32 -9 29 -18 -2 -3 -14 1 -22 14 -26 10 -3 21 -15 24 -26 6 -19 17 -24 28
-12 4 3 2 12 -4 20 -8 9 -8 13 -1 13 6 0 9 7 6 15 -4 8 -10 15 -15 15 -4 0 -6
-7 -3 -15 4 -8 1 -15 -5 -15 -6 0 -11 4 -11 9 0 15 12 41 19 41 3 0 24 -34 46
-75 33 -60 38 -76 27 -87 -10 -10 -14 -10 -22 1 -6 11 -9 9 -13 -10 -4 -19 -5
-18 -4 5 2 33 23 46 30 19 4 -16 5 -16 6 -1 1 22 -15 32 -37 23 -35 -15 -73
-15 -78 0 -4 8 -10 12 -15 9 -8 -4 -14 17 -10 39 0 4 -8 7 -19 7 -11 0 -20 -5
-20 -11 0 -5 6 -7 13 -3 8 5 8 2 -2 -9 -7 -9 -23 -17 -35 -17 -21 -1 -21 -1
-1 -17 15 -12 16 -14 3 -10 -10 3 -19 -1 -22 -10 -6 -14 -9 -13 -28 3 -21 19
-21 19 -10 -2 6 -12 8 -24 5 -28 -4 -3 -7 -15 -8 -25 -1 -13 3 -17 13 -13 10
3 13 1 8 -6 -9 -15 2 -54 14 -47 4 3 10 -9 12 -27 5 -28 4 -29 -9 -12 -14 19
-80 151 -106 213 -9 19 -13 40 -10 47 2 6 0 15 -6 19 -17 10 -13 25 4 19 17
-7 19 4 6 25 -5 7 -14 10 -20 7 -7 -4 -11 1 -11 13 0 10 -3 28 -6 38 -5 15 -4
16 6 3 10 -12 11 -11 6 10 -3 14 -6 32 -7 40 0 10 -3 9 -10 -5 -7 -15 -8 -10
-5 19 3 22 0 46 -6 53 -8 10 -6 13 9 13 12 0 19 7 19 20 0 25 -16 27 -17 3 0
-15 -2 -15 -9 2 -12 28 -12 37 0 30 6 -3 10 1 10 9 0 10 -6 13 -15 10 -8 -4
-15 -2 -15 4 0 5 6 12 14 15 8 3 12 15 9 29 -2 13 0 43 6 68 6 28 6 49 0 55
-5 5 -9 13 -9 19 0 5 7 1 16 -10 13 -16 15 -16 10 -1 -3 9 -2 17 3 17 5 0 12
11 15 25 9 34 12 31 13 -11z m-61 -91 c-10 -26 -18 -8 -9 23 5 21 8 24 11 11
2 -10 1 -25 -2 -34z m201 25 c-3 -8 -6 -5 -6 6 -1 11 2 17 5 13 3 -3 4 -12 1
-19z m-569 -6 c2 -7 8 -10 12 -7 5 3 19 -5 31 -17 12 -13 19 -17 15 -10 -8 14
10 17 18 3 8 -12 -20 -22 -39 -15 -8 4 -15 13 -15 21 0 8 -5 11 -12 7 -8 -5
-4 -13 11 -25 l22 -18 -36 -17 c-35 -17 -54 -34 -37 -34 5 0 15 6 22 14 6 8
18 12 26 9 8 -3 14 -1 14 4 0 5 15 17 34 26 39 18 50 7 31 -31 -10 -18 -14
-20 -23 -9 -7 8 -9 17 -5 20 3 4 1 7 -5 7 -7 0 -12 -2 -12 -4 0 -2 -3 -11 -6
-19 -3 -9 3 -17 18 -21 15 -5 18 -9 10 -13 -7 -3 -22 3 -32 12 -13 12 -25 15
-37 9 -16 -7 -16 -8 3 -11 12 -2 30 -14 40 -25 11 -12 15 -19 9 -16 -5 2 -34
15 -63 28 l-52 24 27 23 c16 13 24 23 18 22 -5 -1 -21 -1 -35 1 -22 1 -23 2
-6 9 14 5 16 10 8 15 -16 10 -35 -3 -28 -19 3 -8 -3 -16 -12 -18 -9 -2 -1 -3
18 -1 19 1 27 0 18 -2 -10 -3 -18 -9 -18 -12 0 -4 -20 -6 -45 -4 -25 2 -45 8
-45 13 0 5 -19 8 -42 8 l-43 -2 40 -7 c22 -4 33 -8 24 -9 -9 0 -30 -4 -47 -7
-27 -6 -29 -4 -25 18 3 14 17 32 33 41 35 21 40 21 40 2 0 -17 26 -20 35 -4 4
5 19 9 33 7 21 -2 27 1 27 17 0 15 -6 19 -25 17 -14 -1 -32 -5 -40 -9 -8 -3
-27 -6 -42 -6 -15 0 -29 -6 -32 -13 -3 -8 -15 -14 -26 -14 -18 0 -26 -20 -21
-52 0 -5 -5 -8 -12 -8 -15 0 -47 -35 -47 -53 0 -8 3 -7 10 3 5 8 11 12 14 9 3
-3 -13 -24 -34 -48 -41 -44 -49 -58 -28 -45 7 4 8 3 4 -5 -10 -15 -22 -7 -29
20 -5 17 -2 20 14 16 10 -3 19 -1 19 4 0 5 -4 9 -9 9 -5 0 -7 9 -4 20 3 11 9
20 14 20 5 0 6 -8 2 -17 -4 -12 -3 -15 4 -8 6 6 14 25 18 43 6 28 4 32 -13 32
-15 0 -19 -5 -15 -20 3 -12 0 -20 -7 -20 -7 0 -10 7 -6 15 3 9 0 15 -10 15
-14 0 -13 2 1 16 9 9 19 14 22 10 3 -3 11 4 17 16 6 12 17 24 25 26 11 4 13
-2 8 -26 -5 -25 -3 -30 8 -25 8 3 15 16 15 29 0 13 5 24 10 24 6 0 10 5 10 11
0 6 -9 8 -22 4 -13 -3 -6 3 15 14 45 24 65 26 181 26 61 -1 91 -5 94 -13z
m1526 -37 c-4 -8 -10 -15 -14 -15 -5 0 -10 -10 -12 -22 -2 -13 -9 -22 -16 -20
-9 2 -12 -4 -8 -15 3 -10 1 -25 -5 -33 -7 -11 -9 -4 -7 25 2 25 8 39 15 38 7
-2 10 3 7 11 -3 8 5 21 18 30 28 20 29 20 22 1z m56 -5 c0 -5 -5 -10 -11 -10
-5 0 -7 5 -4 10 3 6 8 10 11 10 2 0 4 -4 4 -10z m-1468 -96 c-8 -15 -10 -15
-15 0 -4 10 -3 15 3 11 6 -3 11 4 11 17 1 16 3 18 6 6 2 -10 0 -25 -5 -34z
m48 5 c0 -3 -7 -12 -15 -19 -9 -8 -15 -8 -15 -2 0 6 6 12 13 15 10 4 10 7 0
18 -7 7 -13 18 -13 24 1 11 30 -24 30 -36z m1383 -8 c-8 -6 -9 -10 -11 -61 -2
-21 -6 -28 -17 -24 -11 5 -12 11 -4 26 6 10 8 24 6 31 -2 7 3 25 12 40 12 22
17 25 19 11 2 -9 0 -19 -5 -23z m-1813 19 c-8 -5 -19 -10 -25 -10 -5 0 -3 5 5
10 8 5 20 10 25 10 6 0 3 -5 -5 -10z m-120 -21 c0 -6 -4 -7 -10 -4 -5 3 -10
11 -10 16 0 6 5 7 10 4 6 -3 10 -11 10 -16z m-34 -25 c-21 -20 -28 -17 -14 5
7 11 16 17 20 15 5 -3 2 -12 -6 -20z m544 0 c0 -2 -11 -3 -24 -2 -14 1 -23 5
-20 9 4 7 44 0 44 -7z m-520 -19 c-7 -8 -9 -22 -6 -31 4 -12 2 -15 -9 -10 -9
3 -15 0 -15 -9 0 -7 10 -15 22 -17 12 -2 23 -9 26 -17 3 -9 0 -11 -8 -6 -9 5
-11 4 -6 -3 4 -7 0 -26 -8 -44 -20 -46 -28 -115 -16 -138 6 -11 6 -21 1 -25
-5 -3 -12 3 -14 12 -2 10 -3 4 -1 -14 3 -38 -5 -73 -17 -73 -12 0 -12 27 0 32
5 2 3 25 -4 51 -10 40 -10 57 1 90 13 41 13 41 11 9 -1 -19 -5 -36 -9 -38 -12
-7 -10 -24 3 -24 5 0 8 4 4 9 -3 5 -1 12 5 16 12 8 14 95 1 95 -16 0 -33 -29
-27 -46 3 -8 -2 -23 -11 -32 -15 -16 -16 -15 -10 10 10 37 -1 62 -19 47 -8 -6
-15 -21 -15 -33 -1 -16 -2 -17 -6 -4 -2 9 1 27 8 40 8 13 12 26 11 31 -1 4 3
7 9 7 6 0 8 7 5 16 -4 10 -2 13 6 8 7 -5 9 -2 6 8 -9 22 23 83 34 66 6 -10 13
-6 29 15 12 15 24 26 27 23 2 -3 -1 -12 -8 -21z m1902 -7 c-6 -6 -8 -24 -5
-39 6 -31 -13 -42 -20 -11 -4 18 23 75 32 67 2 -3 0 -10 -7 -17z m60 -7 c6 10
7 7 3 -10 -5 -18 -4 -22 6 -16 9 6 11 3 6 -9 -4 -10 -7 -27 -8 -39 -1 -20 -2
-20 -9 3 -4 14 -8 19 -9 12 -1 -7 -5 -10 -11 -7 -15 10 -12 -16 4 -29 9 -7 11
-18 6 -31 -5 -11 -9 -14 -9 -7 -1 6 -5 12 -9 12 -4 0 -7 -36 -7 -80 0 -58 -3
-80 -13 -80 -7 0 -26 -15 -42 -32 -25 -28 -29 -42 -30 -85 0 -51 -13 -71 -24
-35 -2 9 -2 -4 1 -30 3 -31 1 -48 -5 -48 -6 0 -10 -9 -9 -20 1 -19 22 -23 22
-4 0 14 15 34 26 34 5 0 9 -5 9 -11 0 -5 -4 -8 -9 -4 -5 3 -10 -7 -9 -22 0
-29 -31 -110 -32 -83 0 13 -1 13 -10 0 -13 -20 -12 -33 2 -24 7 4 8 3 4 -4 -4
-7 -9 -22 -11 -33 -6 -31 -12 -33 -25 -10 -8 16 -8 21 1 19 6 -2 13 2 16 9 6
15 -33 5 -48 -13 -13 -16 -3 -35 15 -28 7 3 16 -2 20 -11 4 -10 2 -14 -5 -9
-8 4 -9 -1 -4 -16 4 -12 3 -25 -1 -29 -16 -11 -34 -50 -35 -73 0 -22 -1 -22
-9 -3 -5 11 -9 37 -9 58 -1 20 -5 37 -11 37 -5 0 -10 -5 -10 -12 0 -6 -3 -8
-6 -5 -4 4 -1 13 6 22 12 14 0 22 -13 8 -4 -3 -18 -8 -32 -9 -22 -2 -24 0 -14
17 6 11 13 44 15 72 7 74 16 73 11 -1 -3 -34 -1 -65 4 -68 5 -3 10 16 11 43 0
26 2 61 3 76 1 20 -2 27 -11 23 -16 -6 -19 55 -4 89 8 19 9 19 9 1 2 -37 19
-2 25 49 3 29 2 42 -2 31 -8 -18 -9 -18 -15 -2 -4 10 -7 27 -7 39 0 18 2 19
10 7 5 -8 10 -13 11 -10 10 52 9 64 -2 53 -7 -7 -19 -13 -27 -13 -10 0 -10 4
2 22 23 32 20 45 -4 18 -25 -29 -26 -16 -1 16 10 13 21 20 25 17 12 -12 66 50
61 68 -4 10 2 23 13 31 10 7 31 32 47 56 29 44 44 57 25 22 -6 -11 -8 -20 -4
-20 3 0 1 -6 -5 -13 -6 -8 -8 -17 -4 -21 4 -4 1 -11 -7 -16 -12 -7 -12 -12 -2
-22 9 -9 12 -9 12 3 0 12 2 12 11 -1 7 -11 9 -2 6 33 -2 26 0 50 4 53 5 3 9
14 9 24 0 10 5 22 11 26 8 4 9 0 4 -15 -5 -15 -2 -21 9 -21 9 0 16 -7 16 -15
0 -8 6 -15 13 -15 8 0 12 14 11 43 -1 23 0 37 3 30 7 -20 31 8 26 32 -2 11 0
14 3 6 5 -11 8 -11 16 0z m-2052 -158 c0 -5 -5 -15 -10 -23 -8 -12 -10 -11
-10 8 0 12 5 22 10 22 6 0 10 -3 10 -7z m2042 -15 c-7 -7 -12 -8 -12 -2 0 6 3
14 7 17 3 4 9 5 12 2 2 -3 -1 -11 -7 -17z m-1462 -28 c0 -11 -5 -20 -11 -20
-6 0 -8 8 -5 18 5 14 3 14 -9 -2 -8 -11 -13 -28 -10 -37 3 -9 -1 -19 -9 -22
-20 -8 -14 38 9 63 23 25 35 25 35 0z m-610 -32 c-1 -26 -3 -30 -10 -16 -6 9
-7 23 -4 32 9 25 14 19 14 -16z m17 -15 c-3 -10 -5 -2 -5 17 0 19 2 27 5 18 2
-10 2 -26 0 -35z m641 31 c12 -8 19 -20 16 -26 -4 -6 -3 -8 3 -5 5 3 32 -16
58 -43 32 -33 44 -50 33 -50 -9 0 -18 5 -20 11 -3 9 -10 9 -27 0 -12 -7 -26
-9 -29 -5 -4 4 -2 8 3 11 24 8 39 22 32 29 -4 4 -18 -5 -32 -20 -20 -21 -29
-25 -39 -17 -10 8 -17 7 -26 -4 -9 -10 -9 -15 -1 -15 6 0 11 5 11 11 0 8 5 8
15 -1 9 -8 28 -10 49 -6 41 8 67 -1 59 -20 -9 -24 25 -64 55 -64 l27 1 -31 28
c-22 20 -29 33 -23 42 5 8 9 10 9 4 0 -5 11 -22 23 -37 16 -18 23 -39 22 -62
0 -19 2 -33 6 -30 11 6 16 -18 13 -60 -2 -22 2 -47 7 -55 9 -14 10 -14 5 2 -3
9 -2 17 3 17 11 0 22 -56 15 -75 -4 -8 -10 -15 -15 -15 -5 0 -9 -8 -9 -17 0
-15 2 -16 10 -3 5 8 10 11 10 5 0 -5 -4 -17 -9 -24 -8 -12 -11 -9 -17 14 -5
21 -3 31 10 40 17 13 23 30 6 20 -5 -3 -10 0 -10 7 0 9 -3 9 -10 -2 -8 -12
-10 -10 -10 10 0 19 -2 22 -9 11 -6 -9 -6 -22 0 -32 5 -10 9 -21 9 -26 -1 -4
-6 2 -13 15 -7 13 -12 43 -10 68 2 26 0 43 -6 40 -5 -3 -14 1 -21 9 -8 9 -8
15 -2 15 6 0 12 -5 14 -12 3 -8 6 -7 10 3 5 12 -1 15 -22 15 l-29 0 25 -41
c36 -63 29 -67 -10 -5 -32 51 -38 87 -12 74 6 -3 3 1 -8 10 -10 8 -15 19 -12
25 4 5 1 13 -5 17 -9 5 -10 -2 -6 -27 6 -31 5 -32 -8 -15 -8 10 -12 22 -10 27
3 4 0 11 -6 15 -8 4 -9 3 -5 -4 9 -14 -6 -16 -20 -3 -5 6 -9 -10 -10 -44 0
-30 4 -51 8 -48 5 3 7 12 4 20 -3 8 -1 11 4 8 6 -3 10 -2 10 4 0 5 -4 13 -10
16 -5 3 -10 12 -10 18 0 7 9 -1 20 -18 11 -16 20 -34 20 -40 0 -5 -4 -4 -8 3
-6 9 -13 1 -24 -27 -14 -36 -14 -39 1 -36 10 1 15 11 13 26 -2 19 0 21 8 9 9
-13 11 -13 20 0 6 9 10 10 10 3 0 -6 -4 -15 -10 -18 -19 -12 -10 -26 10 -15
16 9 18 8 14 -5 -4 -8 -1 -15 5 -15 5 0 15 -10 21 -22 10 -21 10 -22 -4 -5
-13 17 -15 16 -21 -12 -7 -34 -6 -33 -85 -37 -30 -1 -61 -3 -68 -3 -9 -1 -12
-28 -12 -108 1 -123 -2 -145 -20 -151 -8 -3 -11 1 -7 11 4 11 -1 14 -19 13
-13 0 -24 -2 -24 -3 0 -1 14 -15 31 -32 19 -19 29 -37 25 -47 -3 -8 -2 -12 4
-9 6 3 10 1 10 -4 0 -47 -104 57 -114 113 -7 36 -6 39 9 26 11 -10 15 -23 11
-42 -3 -15 -2 -28 3 -28 4 0 8 24 8 53 0 28 3 63 7 77 6 19 5 22 -3 10 -6 -8
-11 -10 -11 -5 0 6 -3 21 -7 34 -4 14 -2 22 3 18 6 -3 16 -1 24 5 12 8 12 9
-2 4 -18 -5 -24 16 -19 66 1 9 -3 19 -9 23 -7 4 -10 -15 -9 -58 1 -35 -4 -73
-10 -83 -11 -16 -12 -14 -7 15 3 18 6 65 6 104 l0 70 20 -23 c24 -27 25 -24 6
22 -9 20 -11 40 -6 48 4 7 6 20 2 28 -3 10 -1 13 7 8 8 -6 10 -1 6 16 -6 27
25 151 40 158 6 3 11 -14 13 -37 2 -24 6 -43 10 -43 4 0 6 21 4 47 -4 56 -4
104 0 134 2 20 3 20 18 2 18 -22 71 -28 63 -7 -3 8 -9 11 -14 8 -5 -3 -6 2 -3
10 3 9 1 16 -5 16 -6 0 -11 -10 -11 -22 0 -14 -3 -19 -10 -12 -10 10 -3 54 9
54 4 0 17 -7 29 -16z m1187 -13 c-3 -6 -11 -11 -17 -11 -6 0 -6 6 2 15 14 17
26 13 15 -4z m-850 -21 c-9 -16 -20 -30 -26 -30 -11 0 -5 13 20 42 22 26 24
22 6 -12z m295 -5 c5 -14 12 -25 16 -25 3 0 4 7 1 14 -3 8 12 -3 34 -25 41
-41 41 -41 21 -59 -18 -17 -20 -18 -26 -2 -3 9 -9 24 -12 32 -5 10 0 9 15 -4
11 -11 23 -17 26 -14 3 2 -8 16 -24 31 -16 14 -31 21 -33 16 -2 -6 -10 2 -18
18 -8 15 -19 31 -25 35 -6 5 -5 8 3 8 7 0 17 -11 22 -25z m-1255 -15 c-4 -13
-2 -20 5 -18 7 2 14 -2 17 -8 2 -6 -3 -11 -11 -11 -18 0 -28 21 -20 42 9 23
16 18 9 -5z m-16 -45 c15 -9 14 -48 -1 -42 -7 2 -12 11 -10 20 1 8 -2 18 -8
22 -5 3 -10 16 -9 28 l0 22 9 -21 c5 -12 13 -25 19 -29z m531 3 c0 -16 -3 -19
-11 -11 -6 6 -8 16 -5 22 11 17 16 13 16 -11z m-434 -25 c-3 -8 -2 -12 2 -10
4 3 17 -11 29 -30 13 -19 18 -31 13 -28 -17 10 -11 -4 10 -25 11 -11 25 -20
30 -20 6 0 9 -6 8 -12 -2 -7 3 -12 11 -10 12 3 12 0 2 -12 -8 -10 -9 -16 -1
-21 7 -4 7 -12 0 -25 -14 -26 -13 -50 3 -50 18 0 39 -38 29 -55 -7 -13 -11
-13 -30 1 -12 8 -22 20 -22 26 0 6 8 4 18 -5 29 -26 38 -20 12 8 -15 16 -27
22 -33 16 -11 -11 -99 67 -91 81 3 4 1 8 -4 8 -6 0 -8 10 -5 23 4 18 3 19 -6
7 -10 -13 -12 -13 -21 0 -5 8 -9 20 -9 25 0 6 3 4 6 -2 7 -18 23 -16 23 1 0
10 -8 13 -25 10 -21 -4 -25 0 -30 30 -4 19 -2 43 4 53 10 17 10 17 11 1 0 -10
6 -18 14 -18 8 0 16 -3 19 -7 2 -5 2 -3 1 4 -2 7 1 15 6 18 6 4 10 15 10 26 0
12 4 17 11 14 6 -4 8 -14 5 -22z m1914 12 c-6 -8 -8 -20 -4 -26 4 -8 3 -9 -5
-5 -8 6 -10 0 -6 -21 4 -23 4 -24 -4 -8 -8 16 -10 17 -10 3 -1 -9 -4 -25 -7
-35 -5 -15 -4 -16 6 -3 8 10 10 11 8 2 -2 -8 -8 -13 -13 -12 -6 1 -13 -9 -16
-22 -3 -13 -6 5 -5 40 0 35 2 58 4 52 7 -19 22 -10 22 13 0 27 7 37 28 37 12
0 12 -3 2 -15z m267 -9 c36 -6 17 -13 -29 -10 -29 2 -47 1 -40 -2 6 -3 12 -21
12 -40 0 -21 4 -33 10 -29 6 3 10 1 10 -4 0 -6 9 -11 20 -11 11 0 20 -4 20
-10 0 -5 -4 -10 -10 -10 -5 0 -9 -24 -7 -55 1 -30 6 -55 11 -55 4 0 5 20 2 44
-5 29 -3 47 4 51 7 5 9 21 5 47 -5 29 -4 39 4 34 14 -9 15 -86 1 -86 -7 0 -8
-18 -4 -49 5 -39 3 -49 -10 -54 -14 -6 -15 -11 -6 -28 6 -11 8 -28 4 -37 -4
-9 -8 -39 -9 -67 -1 -27 0 -44 2 -37 4 9 9 10 18 2 10 -8 14 -2 19 25 4 20 4
45 1 55 -4 11 -3 20 2 20 5 0 14 -21 22 -47 7 -27 16 -57 21 -68 17 -41 19
-55 9 -60 -5 -4 -8 -14 -7 -23 2 -13 -4 -16 -29 -14 -26 3 -33 0 -33 -13 0
-11 -5 -15 -15 -11 -17 6 -21 -19 -5 -29 8 -5 7 -11 -1 -21 -6 -8 -8 -14 -4
-14 7 0 -49 -56 -63 -62 -3 -2 -20 -16 -37 -31 -17 -16 -37 -26 -47 -23 -20 5
-25 -10 -6 -16 8 -3 7 -6 -3 -10 -9 -4 -20 2 -27 13 -10 16 -9 19 5 20 29 2
37 4 66 19 36 18 29 35 -15 35 -25 0 -35 -4 -34 -15 1 -9 -7 -15 -20 -14 -17
0 -21 -5 -20 -27 0 -15 5 -25 9 -22 5 3 7 -3 5 -13 -3 -20 -48 -33 -48 -14 0
7 8 9 21 5 19 -6 20 -5 8 8 -9 9 -18 12 -25 6 -6 -5 -14 -5 -19 -1 -4 4 -3 -3
3 -14 6 -12 8 -25 4 -29 -4 -5 -1 -5 7 0 10 5 12 4 7 -4 -11 -18 -68 -44 -101
-46 -16 -1 -40 -6 -52 -10 -23 -7 -29 3 -24 42 1 8 -5 10 -14 7 -9 -4 -17 1
-21 10 -9 23 2 31 21 16 12 -10 15 -10 15 4 0 13 4 15 19 6 25 -13 41 -13 41
0 0 6 -10 10 -22 10 -38 0 -52 14 -39 38 8 15 8 23 0 27 -6 4 -8 12 -6 19 3 6
-1 20 -9 31 -8 10 -14 23 -14 29 0 6 7 0 16 -12 8 -12 20 -22 26 -22 7 0 3 6
-7 14 -17 12 -18 17 -7 42 11 27 11 27 -3 10 -8 -11 -15 -15 -15 -9 0 7 5 15
10 18 6 3 10 15 10 26 0 22 107 143 131 147 9 2 16 -4 16 -13 0 -18 -13 -20
-20 -2 -4 7 -8 4 -12 -8 -3 -12 -16 -25 -28 -30 -12 -6 -23 -20 -25 -33 -2
-13 -9 -21 -15 -19 -14 4 -36 -21 -37 -42 0 -11 3 -11 13 3 7 9 23 18 35 19
19 1 22 6 18 24 -4 12 -2 25 4 28 6 3 7 -1 4 -9 -5 -12 0 -16 22 -15 17 1 22
3 12 6 -22 6 -22 12 -1 35 17 19 43 24 43 8 0 -6 -5 -9 -11 -8 -6 2 -13 -2
-16 -9 -3 -7 3 -9 16 -6 12 3 21 12 21 20 0 9 8 6 25 -11 31 -31 31 -36 1 -36
-22 0 -24 -5 -31 -69 -4 -39 -4 -74 -1 -79 3 -5 -6 -7 -19 -4 -15 2 -25 0 -25
-7 0 -7 -10 -9 -27 -6 -28 5 -28 5 -3 -5 13 -6 27 -16 31 -22 11 -18 40 -1 32
18 -4 11 -3 15 5 10 6 -3 13 -2 17 4 9 15 142 13 148 -2 4 -9 6 -8 6 3 1 9 13
22 29 29 15 8 29 15 31 17 7 4 -28 33 -41 33 -10 0 -9 -3 2 -10 12 -7 12 -12
2 -22 -10 -10 -14 -10 -21 1 -7 11 -9 11 -14 0 -3 -8 -5 -3 -4 11 0 14 0 42
-1 63 -2 32 -5 37 -27 37 -14 0 -25 2 -25 5 0 3 11 17 25 31 14 14 25 28 25
32 1 4 5 26 9 49 6 29 5 40 -2 36 -6 -4 -8 0 -5 9 4 8 2 21 -4 29 -6 9 -7 -4
-2 -40 l6 -54 -25 24 c-22 21 -23 25 -9 37 21 16 12 15 -33 -4 -41 -17 -55
-28 -73 -59 -10 -18 -11 -18 -12 10 0 23 -3 27 -10 15 -5 -8 -10 -10 -10 -5 1
24 32 49 62 49 33 1 33 1 34 56 1 30 7 56 13 58 14 5 15 32 1 32 -5 0 -10 -7
-10 -15 0 -8 -4 -15 -10 -15 -5 0 -10 7 -10 16 0 8 -4 12 -10 9 -5 -3 -10 -1
-10 4 0 6 6 11 13 12 10 0 10 2 0 6 -15 6 -17 33 -3 33 6 0 10 4 10 9 0 5 -11
4 -25 -2 -25 -12 -34 -27 -15 -27 21 0 9 -18 -15 -22 -17 -4 -25 -1 -25 9 0 8
5 11 11 8 6 -4 9 -1 8 6 -3 16 61 86 111 120 l35 24 -16 -25 c-9 -14 -26 -26
-38 -28 -33 -5 -25 -20 15 -28 26 -5 39 -3 45 7 11 17 12 48 1 34 -4 -5 -16
-17 -26 -25 -19 -15 -19 -14 -2 13 10 15 23 27 28 27 5 0 6 10 3 23 -5 17 -4
19 4 7 7 -9 11 -10 11 -3 0 13 37 23 60 16 8 -3 20 -6 27 -7z m-521 -58 c1
-40 0 -41 -8 -15 -8 23 -6 57 4 57 2 0 4 -19 4 -42z m-403 -71 c-8 -17 -10 -9
-10 43 l0 65 10 -43 c7 -28 7 -50 0 -65z m332 84 c-3 -6 -11 -11 -17 -11 -6 0
-6 6 2 15 14 17 26 13 15 -4z m582 -28 c-3 -10 -5 -2 -5 17 0 19 2 27 5 18 2
-10 2 -26 0 -35z m-1202 -31 c0 -48 3 -62 15 -63 71 -5 123 -1 131 12 6 9 9
-1 9 -33 0 -27 -5 -49 -12 -52 -10 -5 -10 -7 0 -12 15 -7 16 -66 1 -81 -6 -6
-15 -31 -19 -55 -7 -36 -5 -46 11 -61 16 -15 19 -15 19 -2 0 8 4 15 9 15 13 0
11 -54 -3 -63 -7 -5 -4 -7 8 -5 10 2 21 -2 23 -9 7 -20 -31 -7 -42 14 -6 12
-15 27 -21 34 -6 8 -23 35 -38 61 -19 34 -22 46 -11 42 10 -4 15 0 15 11 0 9
-4 13 -10 10 -10 -6 -15 13 -11 52 1 12 -3 24 -8 27 -5 4 -7 -4 -4 -16 l6 -23
-22 24 c-11 13 -21 19 -21 13 0 -6 7 -18 16 -27 9 -9 14 -19 10 -22 -3 -4 -7
-4 -9 -2 -1 2 -13 20 -27 39 -18 26 -24 48 -25 87 0 29 -3 53 -7 53 -5 0 -8 5
-8 11 0 5 5 7 11 3 7 -4 10 -1 7 7 -3 8 -9 13 -14 12 -5 -1 -8 13 -7 30 2 41
1 39 16 34 8 -2 12 -25 12 -65z m168 3 c-3 -9 -8 -14 -10 -11 -3 3 -2 9 2 15
9 16 15 13 8 -4z m-303 -20 c-7 -9 -9 -19 -5 -23 4 -4 10 -1 12 6 5 12 32 -16
46 -48 4 -8 12 -22 19 -31 6 -9 8 -24 5 -33 -7 -18 -27 -22 -27 -5 0 5 5 7 10
4 12 -7 12 2 0 30 -7 17 -12 12 -9 -12 1 -9 -30 -21 -57 -22 -24 -1 -33 21
-24 59 5 21 11 25 39 23 28 -1 31 0 20 13 -10 12 -14 12 -21 2 -6 -11 -10 -10
-17 1 -6 9 -11 10 -15 2 -4 -6 -12 -11 -18 -11 -7 0 1 14 17 30 30 31 47 41
25 15z m330 -21 c0 -24 4 -33 12 -28 7 4 8 3 4 -5 -4 -7 0 -28 9 -48 10 -20
17 -54 17 -77 0 -23 3 -35 5 -27 4 9 11 2 19 -18 10 -24 11 -38 4 -52 -16 -28
-19 -23 -13 16 4 28 2 35 -11 35 -18 0 -22 -15 -6 -25 6 -3 10 -12 10 -18 0
-9 -2 -9 -8 -1 -12 19 -30 -8 -21 -31 7 -19 8 -19 8 -1 1 11 4 16 8 12 10 -10
11 -86 1 -86 -5 0 -5 -12 -2 -26 12 -46 -12 -18 -26 30 -7 25 -20 53 -30 63
-9 11 -20 25 -24 33 -3 8 -4 2 0 -15 4 -22 3 -27 -6 -19 -13 13 -3 87 11 78 5
-3 6 -11 3 -17 -4 -7 -3 -8 2 -4 5 5 10 23 11 40 4 53 9 71 21 75 7 2 12 16
11 30 l-1 27 -9 -25 c-8 -22 -8 -20 -5 10 2 19 -1 44 -5 55 -9 19 -9 19 -5 -2
2 -12 0 -37 -4 -55 -7 -31 -8 -30 -9 17 -1 57 7 95 20 95 5 0 9 -16 9 -36z
m520 26 c0 -5 -4 -10 -10 -10 -5 0 -10 5 -10 10 0 6 5 10 10 10 6 0 10 -4 10
-10z m-1536 -70 c16 -17 26 -33 24 -35 -3 -3 -19 11 -37 30 -39 43 -27 47 13
5z m1796 -70 c0 -6 5 -8 11 -4 6 3 3 -5 -6 -20 -21 -32 -23 -32 -20 -3 2 13
-3 31 -10 40 -11 16 -12 15 -12 -8 0 -14 4 -25 9 -25 19 0 -7 -47 -53 -95 -34
-36 -47 -44 -43 -28 3 11 14 23 25 26 10 3 19 11 19 17 0 9 -5 9 -17 -1 -16
-12 -16 -12 -6 1 6 8 12 20 12 25 3 25 13 44 24 42 6 -1 12 7 14 18 3 16 2 17
-6 5 -7 -9 -11 -10 -11 -3 0 6 5 15 10 18 6 4 10 12 9 18 -4 33 3 36 26 13 14
-14 25 -30 25 -36z m-1810 35 c0 -14 24 -16 45 -3 6 3 17 -1 25 -10 13 -14 12
-15 -3 -9 -11 4 -16 3 -12 -4 11 -17 -48 2 -70 22 -17 17 -18 19 -2 19 9 0 17
-7 17 -15z m38 -44 c11 -7 11 -9 -1 -14 -16 -6 -27 0 -27 15 0 10 11 10 28 -1z
m110 -16 c28 -19 37 -32 37 -55 1 -34 -1 -36 -22 -15 -16 17 -33 12 -33 -11 0
-8 -4 -14 -9 -14 -5 0 -7 10 -4 23 5 18 3 20 -8 10 -15 -14 -33 -18 -25 -5 6
10 -24 9 -41 -1 -6 -4 -16 0 -23 7 -14 18 3 56 25 56 8 0 15 7 15 15 0 23 46
18 88 -10z m596 10 c3 -8 3 -23 -1 -32 -3 -11 7 -5 24 13 l30 32 26 -45 c15
-24 23 -42 17 -38 -6 3 -10 -4 -10 -17 0 -17 -6 -24 -20 -24 -11 0 -20 4 -20
9 0 4 -4 5 -10 2 -5 -3 -10 -11 -10 -16 0 -6 5 -7 10 -4 6 3 10 2 10 -3 0 -6
9 -8 19 -5 16 4 19 1 14 -17 -4 -17 -2 -21 8 -18 8 3 13 13 13 22 -1 10 1 15
4 12 3 -3 12 0 20 7 10 7 13 8 9 1 -4 -7 0 -17 9 -24 20 -18 84 -127 84 -146
0 -8 4 -13 8 -10 5 3 28 -31 51 -74 23 -44 46 -82 52 -85 5 -4 6 -17 3 -31 -4
-14 -1 -31 7 -41 12 -14 12 -16 -2 -11 -19 7 -18 -14 1 -54 17 -37 27 -35 27
5 1 17 -1 26 -4 19 -5 -13 -23 -7 -23 9 0 6 5 7 10 4 6 -3 10 2 11 12 0 14 3
12 11 -7 15 -35 12 -101 -7 -119 -12 -13 -15 -13 -15 -1 0 11 -3 11 -12 2 -7
-7 -23 -11 -38 -11 -22 2 -22 2 -3 6 12 2 27 11 33 19 14 16 35 19 25 4 -3 -6
-1 -10 4 -10 16 0 13 27 -3 33 -8 3 -17 3 -20 -1 -4 -3 -26 -5 -51 -3 -36 2
-46 -1 -55 -19 -7 -12 -18 -19 -26 -16 -8 3 -14 1 -14 -4 0 -5 8 -11 18 -13
14 -4 14 -5 -3 -6 -12 0 -30 14 -47 37 -24 35 -25 40 -12 70 7 19 18 31 24 27
5 -3 10 -1 10 4 0 6 -11 10 -24 9 -16 -2 -22 -7 -18 -17 4 -10 1 -12 -7 -6
-10 6 -11 2 -6 -16 4 -15 -4 -8 -23 20 -29 42 -33 66 -17 103 6 15 9 15 31 -7
13 -13 24 -33 24 -45 0 -13 7 -20 20 -20 14 0 20 7 20 21 0 12 10 30 22 40
l21 19 -21 19 c-25 21 -29 41 -8 41 8 0 18 5 22 12 4 6 3 8 -3 5 -5 -3 -28 -7
-51 -8 -33 -2 -42 -7 -42 -21 0 -13 -8 -18 -30 -18 -30 0 -37 8 -21 26 4 5 0
17 -12 28 -12 11 -18 13 -15 5 3 -8 -2 -20 -9 -28 -18 -17 -34 -3 -36 32 -1
14 -5 23 -9 20 -8 -4 -12 11 -9 33 1 7 -5 14 -14 18 -8 3 -15 10 -15 15 0 6 7
8 16 4 14 -5 15 -3 5 14 -8 16 -8 22 3 26 10 4 12 0 8 -15 -3 -13 -1 -19 5
-15 5 3 9 -6 8 -21 -2 -15 0 -19 2 -9 2 9 7 15 11 13 4 -2 15 12 25 31 12 24
13 33 5 32 -29 -3 -38 2 -38 25 0 14 -5 28 -12 32 -8 5 -9 -2 -5 -27 7 -34 6
-34 -8 -9 l-15 25 6 -27 c5 -21 2 -28 -10 -28 -10 0 -13 -6 -9 -17 3 -11 -2
-8 -13 7 -15 19 -19 41 -18 95 1 42 6 71 13 73 14 5 15 39 1 47 -6 4 -8 11 -5
16 12 18 24 8 31 -26 9 -49 26 -44 18 5 -6 39 7 57 20 25z m1114 -29 c0 -17
-6 -24 -18 -23 -16 1 -16 3 -3 24 19 29 21 29 21 -1z m-1303 -21 c6 -1 9 -7 7
-14 -2 -8 4 -21 13 -31 8 -9 13 -25 9 -34 -4 -10 -1 -16 8 -16 18 0 41 -57 24
-63 -8 -3 -8 -8 2 -18 10 -11 12 -11 12 2 0 7 16 -17 34 -56 19 -38 32 -73 30
-77 -3 -4 7 -25 22 -47 15 -23 23 -45 18 -52 -4 -8 -3 -9 4 -5 8 5 12 -3 12
-26 0 -25 3 -29 10 -18 14 22 13 -5 -1 -33 -9 -18 -9 -20 2 -9 19 17 24 15 38
-15 7 -15 25 -43 42 -64 29 -37 37 -55 19 -44 -6 3 -7 -1 -4 -10 4 -9 12 -14
18 -12 6 3 17 -2 24 -9 16 -17 2 -18 -33 -2 -16 7 -25 19 -25 35 0 13 -7 26
-15 29 -8 4 -12 10 -9 15 3 5 -2 6 -11 3 -11 -4 -14 -2 -9 9 7 19 -13 60 -26
52 -5 -3 -11 -19 -15 -35 -4 -18 -11 -27 -17 -24 -7 4 -8 2 -4 -4 12 -19 23
-14 30 13 8 31 27 33 23 3 -1 -13 -13 -32 -26 -42 -23 -19 -23 -19 -100 19
-42 22 -78 41 -81 44 -3 4 -27 17 -54 31 -27 14 -64 39 -82 56 -19 17 -35 31
-36 30 -2 -1 2 4 9 10 7 6 13 14 13 16 0 11 -35 3 -40 -8 -4 -9 -8 -8 -17 1
-9 10 -3 15 31 24 39 10 83 41 58 41 -6 0 -12 -4 -14 -8 -1 -5 -22 -12 -45
-15 -39 -7 -42 -6 -52 25 -14 41 -14 41 7 21 11 -10 17 -21 15 -25 -2 -5 11
-8 29 -7 28 0 30 2 13 9 -15 7 -11 9 20 7 30 -1 40 -6 39 -18 -1 -11 5 -15 17
-12 12 4 19 0 19 -10 0 -8 2 -30 5 -48 4 -26 3 -30 -4 -14 -9 19 -10 19 -10
-2 -1 -13 4 -23 10 -23 8 0 7 -5 -1 -16 -8 -8 -9 -14 -4 -13 22 4 45 -2 40
-10 -3 -5 22 -23 55 -40 62 -32 98 -43 44 -14 -18 10 -25 18 -17 21 7 2 19 -2
27 -8 11 -9 15 -9 15 -1 0 12 -8 14 -55 15 -18 1 -29 6 -28 13 2 7 -4 10 -12
7 -8 -4 -15 -1 -15 5 0 7 20 11 50 11 l50 0 0 48 1 47 27 -33 27 -33 2 43 c2
39 1 41 -10 21 l-13 -23 -18 21 c-16 19 -16 25 -5 46 11 20 11 26 -1 33 -10 7
-11 10 -2 10 6 0 12 4 12 8 0 4 -9 8 -19 8 -11 0 -17 -4 -15 -8 3 -4 0 -8 -5
-8 -15 0 -14 -27 2 -33 6 -3 -8 -6 -33 -6 l-45 -1 2 42 c1 24 2 46 2 51 1 4 5
7 11 7 5 0 6 -8 3 -17 -5 -14 -2 -13 16 4 20 19 21 24 11 62 -6 23 -8 46 -5
51 3 5 1 18 -4 27 -10 17 -11 16 -9 -2 2 -35 -2 -56 -10 -51 -4 2 -9 -7 -10
-21 -1 -14 -6 -31 -12 -38 -5 -6 -7 -15 -3 -19 4 -4 1 -12 -7 -17 -11 -8 -12
-12 -2 -16 6 -2 12 -9 12 -14 0 -6 -4 -8 -9 -5 -4 3 -7 -5 -6 -17 2 -17 -3
-22 -22 -24 -26 -1 -26 -1 -21 74 3 49 10 78 19 84 11 7 10 9 -4 9 -16 0 -18
9 -16 75 1 41 6 72 10 69 9 -5 13 9 10 35 -2 8 2 10 11 5 7 -5 18 -9 23 -9z
m-448 -49 c-1 -6 6 -12 16 -14 10 -2 17 2 17 12 0 13 4 12 20 -4 21 -21 27
-50 10 -50 -5 0 -10 8 -11 18 0 9 -3 12 -6 5 -3 -10 -9 -10 -26 0 -12 7 -24
15 -27 18 -3 3 -14 11 -25 16 -17 10 -17 11 7 10 15 -1 26 -6 25 -11z m754 1
c-1 -12 -15 -9 -19 4 -3 6 1 10 8 8 6 -3 11 -8 11 -12z m600 -21 c-6 -8 -11
-18 -10 -22 3 -18 -1 -34 -9 -34 -4 0 -7 12 -6 28 1 40 2 42 20 42 13 0 14 -3
5 -14z m-341 -22 c0 -8 -4 -13 -9 -9 -6 3 -6 -7 -1 -26 5 -18 7 -37 3 -43 -3
-6 -3 -8 2 -4 15 14 47 -14 66 -59 22 -51 23 -57 9 -48 -12 8 -13 -5 -1 -24 5
-7 14 -11 20 -7 7 5 9 1 4 -11 -3 -10 -2 -14 2 -10 5 4 22 -25 37 -65 32 -84
34 -91 12 -60 -21 30 -34 28 -34 -7 0 -16 -6 -31 -15 -35 -8 -3 -15 -12 -15
-21 0 -8 -6 -15 -13 -15 -15 0 -44 66 -39 88 2 8 -1 11 -6 8 -5 -3 -20 16 -33
42 -13 26 -28 50 -34 54 -5 4 -6 8 -1 8 5 0 2 8 -7 18 -13 14 -14 21 -5 30 9
9 9 15 -1 25 -10 10 -11 9 -6 -5 4 -11 2 -18 -4 -18 -6 0 -11 6 -11 14 0 7 -7
19 -15 26 -8 7 -15 16 -15 21 0 13 23 6 36 -10 6 -8 18 -11 28 -8 18 7 22 47
4 47 -6 0 -1 11 11 24 13 14 18 26 13 30 -6 3 -13 0 -16 -6 -3 -7 -3 1 1 17 8
43 33 73 33 39z m310 -12 c0 -5 -7 -17 -16 -28 -14 -17 -15 -17 -10 -1 3 10 6
23 6 28 0 5 5 9 10 9 6 0 10 -4 10 -8z m108 -12 c7 -12 17 -18 22 -15 10 6 15
-27 12 -80 -2 -23 0 -26 8 -15 6 9 10 10 10 3 0 -7 -9 -21 -20 -31 -14 -13
-20 -33 -22 -66 -1 -43 -3 -47 -15 -31 -7 10 -16 16 -19 12 -4 -4 -2 -12 4
-19 12 -16 14 -88 1 -88 -17 0 -30 -39 -19 -59 11 -21 4 -51 -11 -51 -5 0 -7
12 -3 28 4 22 3 24 -6 12 -10 -13 -11 -12 -6 3 3 10 6 30 6 43 0 14 4 23 9 20
5 -3 11 6 14 19 2 14 0 28 -5 31 -5 3 -4 12 3 20 6 8 9 18 5 21 -4 4 -12 1
-17 -7 -8 -12 -9 -10 -5 6 5 14 2 21 -9 21 -18 0 -20 -18 -4 -34 13 -13 3 -36
-12 -28 -12 8 -12 62 0 70 11 6 9 70 -2 81 -4 4 -7 14 -7 23 0 14 2 14 11 1 9
-12 10 -10 6 8 -3 13 0 34 7 47 11 21 13 22 24 7 10 -15 11 -14 11 6 1 12 -3
22 -9 22 -5 0 -10 8 -10 18 1 15 2 15 15 -2 8 -11 15 -28 15 -38 0 -10 5 -18
10 -18 16 0 12 50 -5 56 -8 4 -15 10 -15 15 0 16 15 10 28 -11z m-388 -44 c0
-5 -7 -1 -15 10 -8 10 -14 24 -14 29 0 6 6 1 14 -9 8 -11 15 -24 15 -30z m284
-15 c-5 -23 -9 -29 -15 -19 -7 11 -9 10 -9 -1 0 -8 -3 -12 -6 -8 -3 3 2 19 12
36 22 37 26 35 18 -8z m-1187 -8 c-3 -10 -5 -4 -5 12 0 17 2 24 5 18 2 -7 2
-21 0 -30z m350 -15 c-3 -8 -6 -5 -6 6 -1 11 2 17 5 13 3 -3 4 -12 1 -19z
m1481 -51 c-13 -20 -26 -36 -30 -37 -9 0 23 62 37 72 18 13 16 0 -7 -35z
m-1471 11 c-3 -8 -6 -5 -6 6 -1 11 2 17 5 13 3 -3 4 -12 1 -19z m853 -28 c0
-5 -4 -10 -9 -10 -5 0 -14 -13 -20 -30 -5 -16 -13 -30 -16 -30 -3 0 2 16 10
36 8 20 15 38 15 40 0 2 5 4 10 4 6 0 10 -4 10 -10z m107 -22 c-3 -8 -6 -5 -6
6 -1 11 2 17 5 13 3 -3 4 -12 1 -19z m-115 -30 c-7 -7 -12 -8 -12 -2 0 14 12
26 19 19 2 -3 -1 -11 -7 -17z m163 -50 l3 -32 -14 24 c-7 14 -13 19 -14 12 0
-7 5 -22 10 -33 9 -16 6 -24 -16 -44 -15 -14 -30 -23 -33 -20 -3 4 1 10 8 15
8 4 11 15 8 24 -3 8 -2 18 2 20 5 3 11 24 15 47 8 49 27 41 31 -13z m-809 1
c1 -20 -2 -26 -7 -17 -7 10 -9 11 -9 0 0 -7 -5 -10 -11 -6 -7 4 -7 9 -2 13 5
3 12 14 16 24 9 24 12 21 13 -14z m651 -46 c8 -3 19 0 24 8 6 9 9 10 9 2 0 -6
-4 -15 -10 -18 -5 -3 -10 -21 -10 -38 -1 -18 -7 -45 -14 -62 -10 -24 -13 -26
-19 -12 -3 9 -2 17 3 17 6 0 10 8 10 18 0 22 -27 25 -35 4 -3 -8 1 -27 9 -43
8 -16 11 -29 6 -29 -5 0 -14 16 -20 35 -6 19 -16 35 -21 35 -6 0 -7 5 -4 10 3
6 1 10 -4 10 -18 0 -12 46 8 64 16 14 20 15 30 2 7 -8 9 -21 5 -28 -5 -10 -4
-10 6 -1 11 10 11 15 1 27 -9 10 -10 26 -5 48 l9 33 3 -38 c2 -23 9 -41 19
-44z m-51 30 c-11 -11 -17 4 -9 23 7 18 8 18 11 1 2 -10 1 -21 -2 -24z m514
22 c-7 -8 -20 -15 -29 -15 -13 1 -13 3 3 15 26 19 42 19 26 0z m-1099 -54 c-7
-4 -9 -16 -5 -27 6 -18 6 -18 -9 1 -18 23 -22 39 -7 30 6 -3 13 2 17 11 5 13
8 14 11 5 2 -7 -1 -17 -7 -20z m283 -46 c3 -8 1 -15 -4 -15 -6 0 -10 7 -10 15
0 8 2 15 4 15 2 0 6 -7 10 -15z m160 -28 c7 -6 6 -7 -4 -4 -8 2 -16 12 -17 23
-2 13 -1 15 4 4 3 -8 11 -19 17 -23z m893 26 c-9 -2 -14 -9 -11 -15 3 -5 -2
-8 -12 -7 -11 2 -24 0 -30 -3 -6 -4 -11 -1 -11 7 0 8 3 12 7 10 3 -2 12 0 20
6 8 5 24 8 35 8 17 -1 17 -2 2 -6z m44 -17 c5 3 9 0 9 -6 0 -15 -23 -7 -26 8
-1 7 0 8 3 2 2 -5 9 -8 14 -4z m-127 -11 c-4 -8 -18 -15 -33 -15 l-26 0 25 14
c33 19 40 19 34 1z m-546 -32 c1 -21 -3 -40 -10 -45 -10 -6 -9 -8 4 -8 9 0 18
5 20 11 2 6 9 -1 16 -16 7 -15 8 -24 2 -20 -6 4 -5 -5 2 -20 8 -17 17 -24 27
-20 9 3 -1 -10 -21 -28 -44 -38 -48 -51 -14 -45 14 3 30 1 38 -3 7 -4 18 -3
24 2 8 6 14 5 18 -6 7 -19 26 -20 26 -1 0 7 -10 16 -22 20 -18 4 -20 8 -11 17
17 17 56 -18 49 -44 -3 -14 0 -17 11 -13 11 4 13 2 9 -9 -3 -8 -1 -15 4 -15 5
0 7 -12 5 -27 -2 -16 -4 -36 -4 -46 -1 -10 -6 -15 -11 -12 -6 4 -8 21 -5 38 7
44 -15 70 -59 70 -19 0 -33 3 -31 7 2 3 -12 7 -32 7 -20 1 -40 7 -44 16 -11
19 -59 10 -59 -12 -1 -9 -10 -32 -21 -51 -11 -19 -18 -26 -14 -16 3 10 -2 31
-10 45 l-16 26 19 -22 c17 -19 21 -20 26 -7 3 9 6 34 5 57 -1 39 -1 40 -9 14
-5 -16 -6 -36 -4 -45 5 -15 4 -15 -6 0 -11 18 -4 64 11 74 5 3 14 -7 19 -21 6
-17 14 -23 22 -19 9 6 9 9 0 12 -7 2 -10 8 -6 13 3 5 0 9 -6 9 -6 0 -8 10 -4
24 3 13 1 27 -5 30 -6 4 -11 17 -10 29 l0 22 9 -22 c11 -27 22 -31 14 -5 -5
16 -5 16 9 -1 8 -10 13 -28 11 -40 -2 -12 -2 -16 2 -9 3 6 10 10 15 6 5 -3 4
7 -1 21 -7 18 -7 33 0 45 6 11 8 31 4 45 -3 14 -2 25 2 25 5 0 10 -17 12 -37z
m62 26 c0 -5 4 -7 10 -4 5 3 12 -5 16 -19 8 -33 26 -38 64 -19 17 8 33 13 36
11 2 -3 -8 -11 -24 -19 -33 -17 -53 -40 -48 -55 2 -6 -2 -11 -10 -11 -7 0 -11
4 -9 8 3 4 1 18 -4 31 -10 23 -16 11 -11 -22 1 -10 -3 -9 -14 5 -8 11 -10 22
-5 23 5 2 9 8 9 14 0 6 -7 8 -15 4 -16 -6 -32 35 -20 53 8 14 25 14 25 0z
m-347 -48 c20 9 20 9 5 -4 -24 -19 -23 -30 1 -17 17 8 22 5 35 -22 21 -41 20
-48 -4 -19 -11 12 -17 27 -14 32 3 5 -2 6 -11 2 -9 -3 -13 -9 -8 -12 15 -11
43 -60 43 -76 0 -8 -5 -15 -11 -15 -6 0 -9 -7 -5 -15 4 -11 -3 -9 -23 6 -19
14 -27 27 -23 37 4 11 7 12 10 4 2 -7 9 -9 15 -5 6 4 8 0 4 -10 -7 -18 8 -24
18 -7 7 11 -18 53 -26 45 -3 -2 -11 12 -18 32 -10 27 -15 32 -23 22 -7 -10 -8
-7 -4 11 3 14 6 32 7 40 1 8 4 3 6 -12 4 -25 7 -27 26 -17z m-6 17 c-3 -8 -6
-5 -6 6 -1 11 2 17 5 13 3 -3 4 -12 1 -19z m128 -8 c9 -17 11 -30 5 -30 -5 0
-10 7 -10 15 0 8 -4 15 -10 15 -5 0 -10 7 -10 15 0 23 8 18 25 -15z m775 21
c0 -5 -6 -12 -12 -15 -7 -3 -4 -4 7 -3 11 2 19 9 18 15 -4 15 6 15 32 -1 51
-30 83 -60 78 -74 -3 -8 0 -13 8 -11 17 4 76 -115 60 -120 -6 -2 -9 -8 -5 -13
3 -5 0 -9 -5 -9 -10 0 -15 33 -12 72 2 12 -3 16 -13 12 -9 -3 -16 -1 -16 6 0
6 5 8 12 4 7 -4 8 -3 4 5 -4 6 -12 9 -17 6 -5 -4 -9 -2 -9 4 0 6 -6 8 -14 5
-7 -3 -20 6 -29 20 -16 23 -16 26 1 36 16 11 16 11 0 6 -10 -3 -20 -1 -23 5
-4 5 -11 7 -16 3 -17 -10 -79 25 -73 41 7 16 24 21 24 6z m-135 -11 c-3 -5 -1
-10 4 -10 6 0 11 5 11 10 0 6 6 10 13 10 6 -1 -1 -12 -18 -25 -34 -29 -54 -33
-34 -8 10 11 10 14 2 9 -7 -4 -19 -4 -25 0 -9 6 -5 10 12 15 37 10 42 10 35
-1z m95 6 c0 -2 -7 -7 -16 -10 -8 -3 -12 -2 -9 4 6 10 25 14 25 6z m-217 -33
c-7 -2 -13 -9 -13 -14 0 -5 15 -1 34 7 32 16 35 16 65 -7 17 -12 31 -26 31
-31 0 -4 9 -8 21 -8 11 0 18 -4 15 -9 -3 -5 8 -11 25 -15 19 -3 36 -16 47 -36
9 -16 21 -30 25 -30 5 0 5 5 1 12 -4 7 -3 8 4 4 23 -14 0 -39 -48 -53 -24 -8
-96 -13 -82 -7 8 4 -3 14 -28 26 -22 11 -39 23 -36 25 2 3 18 -3 34 -13 30
-17 62 -14 62 6 0 6 -5 8 -11 4 -7 -4 -10 1 -7 12 2 11 13 20 26 22 12 2 22 7
22 12 0 5 -14 4 -32 -2 -25 -9 -33 -8 -42 3 -12 15 -46 22 -46 9 0 -5 -10 -6
-22 -2 -17 4 -20 2 -15 -13 5 -13 3 -16 -8 -11 -8 3 -15 0 -15 -7 0 -7 -5 -4
-11 6 -5 9 -15 17 -21 17 -6 0 -5 -6 3 -16 8 -10 -2 -7 -26 8 -22 12 -58 23
-80 24 -70 4 -104 21 -73 40 7 5 8 3 3 -6 -6 -9 -2 -10 16 -5 13 4 30 12 37
18 10 8 16 7 23 -4 7 -11 9 -11 9 4 0 9 5 17 10 17 6 0 10 -4 10 -10 0 -5 15
-10 34 -10 25 0 35 5 39 20 3 11 11 20 19 19 10 0 10 -2 1 -6z m-1463 -7 c0
-2 -7 -7 -16 -10 -8 -3 -12 -2 -9 4 6 10 25 14 25 6z m1420 -6 c13 -8 13 -10
-2 -10 -9 0 -20 5 -23 10 -8 13 5 13 25 0z m269 -5 c16 -8 31 -12 33 -10 3 3
13 -5 24 -17 10 -13 12 -17 4 -10 -20 17 -35 15 -19 -4 7 -8 21 -13 30 -11 24
7 55 -38 35 -50 -7 -4 -16 -15 -20 -23 -6 -14 -4 4 5 40 3 9 -5 16 -18 18 -13
2 -23 -2 -23 -9 0 -8 -7 -6 -20 6 -11 10 -17 22 -14 26 3 5 -10 9 -28 9 -42 0
-63 13 -55 34 8 20 30 20 66 1z m-1742 -8 c7 0 10 -4 7 -8 -2 -5 -11 -6 -19
-2 -11 4 -17 -4 -22 -28 -4 -19 -6 -37 -5 -41 1 -5 -3 -8 -9 -8 -8 0 -9 -11
-5 -32 3 -21 2 -27 -3 -18 -31 55 -12 161 27 145 9 -4 22 -8 29 -8z m1084 -27
c5 0 9 -7 9 -15 0 -15 -20 -22 -20 -7 0 4 -2 16 -4 27 -2 11 -1 14 1 8 3 -7 9
-13 14 -13z m-951 11 c0 -6 -5 -13 -10 -16 -6 -4 -8 -10 -6 -13 2 -4 -4 -19
-15 -32 -14 -20 -19 -21 -19 -8 0 9 5 20 10 23 6 4 7 11 4 17 -4 6 0 15 7 20
10 7 9 8 -6 3 -11 -4 -28 -10 -37 -12 -26 -8 -22 -22 5 -17 12 2 17 2 10 -1
-8 -4 -9 -16 -3 -36 7 -24 4 -42 -15 -82 -14 -29 -22 -41 -18 -27 3 14 6 31 6
38 0 6 4 12 9 12 4 0 8 5 8 10 0 6 -6 10 -14 10 -12 0 -31 -51 -27 -72 2 -13
-9 -9 -31 11 -19 18 -19 19 -1 15 14 -4 19 0 20 18 1 13 14 33 28 45 25 22 33
43 15 43 -5 0 -20 -12 -34 -27 -14 -15 -29 -23 -33 -19 -4 5 -2 11 5 13 6 3
12 11 12 19 0 8 3 13 8 13 21 -4 31 2 26 15 -3 9 5 20 23 29 32 17 73 21 73 8z
m30 -1 c0 -5 15 -11 33 -11 18 -1 24 -3 14 -6 -24 -6 -67 5 -67 17 0 6 5 10
10 10 6 0 10 -4 10 -10z m109 -16 c2 -2 -5 -4 -16 -4 -12 0 -23 7 -27 15 -5
13 -2 14 17 4 12 -6 24 -13 26 -15z m181 6 c8 -15 8 -20 -2 -20 -9 0 -9 -3 2
-10 10 -7 11 -10 2 -10 -7 0 -15 6 -18 14 -3 8 -13 12 -25 9 -10 -3 -19 0 -19
6 0 6 7 11 15 11 8 0 15 5 15 10 0 17 19 11 30 -10z m357 -2 c-3 -8 -6 -5 -6
6 -1 11 2 17 5 13 3 -3 4 -12 1 -19z m37 -16 c-7 -37 -24 -43 -24 -9 0 21 19
51 27 43 2 -1 0 -17 -3 -34z m-947 14 c0 -9 -6 -12 -16 -8 -14 5 -14 4 -1 -13
12 -14 24 -85 14 -85 -14 0 -33 14 -28 21 3 5 10 7 15 4 5 -4 9 -2 9 3 0 16
-13 22 -25 12 -8 -7 -11 -1 -11 21 1 18 9 36 20 45 24 17 23 17 23 0z m803 4
c0 -7 -13 -8 -35 -4 -30 5 -34 4 -29 -10 4 -10 1 -16 -9 -16 -10 0 -13 7 -10
20 4 16 14 20 44 20 22 0 39 -5 39 -10z m103 -34 c4 -9 -2 -13 -19 -13 -20 0
-22 2 -13 13 6 8 15 14 19 14 4 0 10 -6 13 -14z m144 -33 c-2 -22 -9 -38 -17
-41 -13 -3 -13 -2 0 7 11 8 11 11 2 11 -10 0 -10 5 -2 20 6 11 8 20 5 20 -4 0
-3 5 0 10 11 18 14 11 12 -27z m-587 21 c32 -5 33 -7 17 -19 -17 -12 -17 -14
5 -29 12 -9 28 -16 35 -16 7 0 13 -5 13 -10 0 -7 -6 -7 -19 0 -22 11 -38 13
-28 4 3 -4 -1 -14 -10 -23 -13 -12 -33 -15 -85 -13 -37 1 -68 -1 -68 -6 0 -4
35 -8 77 -9 64 -2 79 1 90 16 13 20 62 18 75 -3 5 -6 8 -1 8 12 0 15 -4 21
-12 16 -7 -4 -8 -3 -4 4 4 7 2 12 -5 12 -7 0 -10 3 -6 6 3 3 14 3 24 0 19 -6
26 -55 8 -57 -20 -2 -30 -5 -48 -13 -10 -5 -21 -6 -24 -2 -4 3 1 6 10 6 9 0
17 5 17 10 0 16 -26 12 -41 -6 -11 -13 -26 -15 -74 -11 -33 3 -51 2 -41 -2 18
-7 18 -8 2 -14 -25 -10 -38 -9 -31 3 3 6 -1 10 -9 10 -9 0 -16 -7 -16 -15 0
-11 -11 -15 -40 -15 -41 0 -45 6 -43 67 1 7 -3 10 -8 7 -13 -8 -11 20 3 34 9
9 9 12 0 12 -6 0 -14 -12 -18 -27 -9 -43 -14 -56 -19 -51 -19 18 30 108 64
119 21 7 161 9 201 3z m995 -63 c-3 -6 0 -11 8 -11 7 0 21 -16 30 -36 10 -19
12 -32 7 -29 -6 4 -16 19 -21 33 -10 27 -11 27 -26 7 -12 -15 -14 -16 -10 -3
3 9 1 19 -6 21 -9 3 -9 7 0 17 10 11 8 16 -10 24 -12 7 -24 20 -26 31 -3 16 3
14 29 -12 18 -17 29 -36 25 -42z m475 65 c0 -2 -6 -9 -13 -15 -10 -8 -14 -7
-14 4 0 8 6 15 14 15 7 0 13 -2 13 -4z m-208 -26 c12 -11 18 -20 12 -20 -11 1
-44 25 -44 34 0 11 10 7 32 -14z m-1154 -12 c17 -5 32 -10 32 -12 0 -2 -20 -2
-44 -2 -24 1 -40 4 -34 7 7 4 6 9 -1 14 -7 4 -18 1 -26 -5 -9 -8 -15 -8 -15
-2 0 14 21 22 40 15 8 -3 30 -9 48 -15z m219 10 c2 6 11 12 18 12 9 0 5 -9
-10 -26 -14 -15 -25 -34 -25 -43 0 -10 -8 -5 -20 14 -22 33 -27 60 -6 33 18
-25 29 -22 21 5 -5 18 -4 19 5 7 9 -11 13 -12 17 -2z m559 -10 c-3 -13 -5 -25
-5 -28 -1 -3 -5 2 -11 10 -5 9 -5 19 2 27 15 19 18 16 14 -9z m-440 -2 c3 -8
14 -12 27 -9 18 4 19 3 7 -6 -8 -6 -35 -10 -59 -9 -47 2 -62 -11 -42 -36 11
-13 1 -99 -13 -113 -8 -8 -7 12 3 65 5 23 4 42 0 42 -5 0 -9 -11 -9 -25 0 -18
-4 -23 -15 -19 -18 7 -20 -12 -2 -19 9 -4 9 -8 -2 -15 -12 -9 -12 -13 2 -27
10 -9 17 -22 18 -28 0 -7 6 1 13 16 13 28 13 28 13 -20 1 -34 -2 -42 -7 -28
-6 15 -9 16 -9 4 -1 -18 -35 -19 -53 -1 -9 9 -9 15 -1 23 8 8 13 7 18 -2 5 -8
4 -10 -3 -5 -7 4 -12 2 -12 -3 0 -6 9 -11 20 -11 23 0 24 4 10 31 -6 10 -18
19 -26 19 -11 0 -14 5 -9 18 7 15 10 34 14 70 0 7 6 10 13 6 7 -5 9 0 6 14 -6
22 12 44 55 68 30 16 37 16 43 0z m162 -16 c-3 -17 -1 -33 4 -36 4 -3 8 5 8
18 1 22 1 22 12 4 8 -15 8 -21 0 -24 -7 -2 -12 -11 -12 -19 0 -11 -5 -9 -18 8
-16 18 -17 28 -8 51 14 37 19 36 14 -2z m439 7 c1 -11 1 -18 0 -16 -2 2 -8 11
-15 20 -9 12 -9 16 1 16 7 0 14 -9 14 -20z m43 -2 c0 -7 8 -12 17 -11 10 0 26
-15 40 -39 24 -43 29 -60 13 -50 -14 8 -13 -8 1 -22 8 -8 9 -25 4 -50 -5 -21
-9 -41 -9 -45 -1 -3 -5 -10 -10 -15 -5 -5 -6 -3 -2 5 8 14 -10 17 -19 2 -3 -6
-12 -10 -18 -10 -7 0 -6 4 3 10 13 9 13 11 0 20 -10 6 -11 10 -2 10 15 0 16
63 1 92 -8 16 -8 22 2 29 10 6 7 14 -14 33 -31 29 -45 69 -21 59 8 -3 14 -11
14 -18z m430 -8 c0 -5 -4 -5 -10 -2 -5 3 -10 14 -10 23 0 15 2 15 10 2 5 -8
10 -19 10 -23z m50 -21 c0 -39 -6 -31 -14 19 -5 29 -4 36 3 25 6 -8 11 -28 11
-44z m-58 -16 c5 0 6 -4 3 -10 -11 -18 -25 -11 -26 13 -1 16 -2 18 -6 5 -2
-10 -8 -18 -12 -18 -5 0 -3 16 3 36 l11 35 9 -30 c5 -17 13 -31 18 -31z
m-1297 40 c3 -5 1 -10 -4 -10 -6 0 -11 5 -11 10 0 6 2 10 4 10 3 0 8 -4 11
-10z m-20 -27 c3 -16 9 -40 14 -55 12 -37 1 -43 -19 -10 -13 21 -14 31 -6 46
8 14 8 20 -1 23 -15 5 -17 23 -3 23 5 0 12 -12 15 -27z m1005 1 c0 5 7 3 15
-4 11 -9 12 -17 5 -30 -13 -25 -13 -30 3 -26 6 1 9 1 5 -1 -5 -3 -3 -13 2 -23
11 -21 5 -44 -22 -79 -12 -16 -18 -19 -18 -9 0 9 10 28 21 42 20 25 20 29 6
43 -15 15 -16 14 -12 -8 3 -13 -1 -9 -7 10 -9 27 -9 36 0 39 18 6 14 26 -8 40
-11 7 -20 18 -20 25 0 6 7 3 15 -7 8 -11 15 -16 15 -12z m213 -36 c-16 -16
-24 -17 -51 -7 -18 6 -44 9 -58 6 -13 -2 -27 -1 -29 3 -2 4 20 10 51 13 30 3
62 11 70 18 10 8 14 8 14 0 0 -6 -4 -11 -10 -11 -5 0 -10 -5 -10 -11 0 -21 30
12 31 35 2 19 2 18 6 -3 3 -15 -2 -31 -14 -43z m-1133 32 c22 -22 25 -38 10
-60 -8 -11 -9 -7 -5 15 6 29 6 29 -9 11 -9 -11 -16 -15 -16 -9 0 7 5 15 10 18
6 3 10 11 10 17 0 7 -6 6 -15 -2 -8 -7 -15 -10 -15 -7 0 3 -3 12 -6 21 -9 22
12 20 36 -4z m485 10 c-3 -5 -10 -10 -16 -10 -5 0 -9 5 -9 10 0 6 7 10 16 10
8 0 12 -4 9 -10z m-350 -38 c-2 -18 -6 -37 -10 -40 -5 -4 -5 6 -1 22 5 20 2
31 -9 40 -15 10 -14 12 3 12 17 0 20 -6 17 -34z m35 34 c0 -3 -4 -8 -10 -11
-5 -3 -10 -1 -10 4 0 6 5 11 10 11 6 0 10 -2 10 -4z m111 -22 c11 -10 25 -27
31 -37 8 -16 7 -18 -11 -12 -15 4 -21 2 -21 -9 0 -9 7 -13 19 -11 17 3 18 0 9
-25 -6 -20 -6 -35 1 -49 6 -11 11 -24 11 -30 0 -15 -27 -14 -36 1 -5 8 -2 9 9
5 10 -3 17 -3 17 2 0 15 -82 23 -92 9 -5 -8 -8 -2 -7 17 1 17 -1 44 -5 60 -6
24 -5 27 4 13 6 -10 18 -18 26 -18 9 0 13 -5 9 -12 -4 -7 0 -5 9 5 24 30 3 89
-25 72 -9 -6 -7 -11 6 -21 10 -8 15 -17 12 -21 -12 -12 -38 22 -31 40 8 21 22
22 46 0 22 -20 36 -10 15 12 -20 20 -54 19 -65 -1 -5 -9 -13 -16 -18 -15 -10
0 -10 -17 0 -78 6 -31 5 -42 -3 -37 -7 5 -9 1 -5 -8 4 -10 1 -16 -7 -16 -8 -1
0 -7 16 -15 25 -12 26 -14 5 -9 -33 8 -60 33 -60 55 0 32 40 121 62 138 26 22
51 20 79 -5z m522 11 c9 -8 13 -24 10 -35 -4 -16 -9 -18 -17 -10 -8 8 -7 13 4
20 15 9 13 11 -12 14 -14 1 -23 26 -10 26 6 0 17 -7 25 -15z m-403 -25 c0 -5
-2 -10 -4 -10 -3 0 -8 5 -11 10 -3 6 -1 10 4 10 6 0 11 -4 11 -10z m95 0 c-4
-6 -1 -17 5 -25 10 -12 9 -15 -4 -15 -10 0 -14 5 -11 10 3 6 -1 10 -9 10 -20
0 -28 -14 -20 -35 5 -11 9 -13 14 -6 3 7 20 13 37 14 18 1 29 7 26 13 -5 14
45 10 60 -5 7 -7 3 -8 -12 -4 -15 4 -21 1 -21 -10 0 -8 -5 -17 -12 -19 -8 -3
-2 -15 15 -32 16 -16 31 -25 34 -22 4 3 -4 15 -17 26 -26 22 -25 24 7 34 19 6
22 4 16 -10 -5 -12 -3 -15 6 -9 7 4 11 18 8 31 -6 34 0 30 18 -12 17 -40 19
-56 6 -35 -7 11 -11 10 -19 -6 -7 -13 -7 -24 0 -34 8 -11 9 -11 4 3 -3 10 -1
18 4 18 17 0 18 -15 5 -53 -15 -44 -42 -77 -62 -77 -23 0 -14 16 15 26 25 10
25 10 -13 9 -22 -2 -44 -4 -50 -6 -18 -6 -77 20 -70 31 4 6 3 10 -2 9 -16 -4
-62 13 -74 27 -15 18 1 17 25 -1 22 -17 52 -20 60 -6 3 4 -5 6 -18 4 -25 -5
-60 22 -50 38 3 6 12 2 19 -8 13 -16 14 -16 8 7 -3 14 -11 32 -18 40 -7 8 -16
26 -19 40 -6 23 -5 23 6 6 7 -11 20 -26 28 -35 8 -9 15 -31 14 -48 -1 -32 9
-43 21 -23 3 6 15 10 26 10 23 0 24 6 5 25 -12 12 -15 12 -22 -3 -6 -14 -9
-11 -14 13 -13 51 -11 63 12 85 23 21 44 27 33 10z m161 -15 c24 -37 12 -40
-15 -5 -12 17 -17 30 -12 30 6 0 18 -11 27 -25z m94 -24 c0 -7 6 -11 13 -8 8
3 14 0 15 -6 1 -7 5 -27 8 -44 5 -28 3 -33 -12 -34 -16 0 -15 -2 4 -9 23 -10
27 -18 14 -35 -8 -12 -58 -35 -75 -35 -19 1 25 30 44 30 10 0 20 4 23 9 3 5
-17 8 -44 6 -29 -1 -50 2 -50 7 0 6 13 8 30 5 17 -4 30 -2 30 3 0 6 -16 10
-35 10 -19 0 -35 5 -35 11 0 5 4 8 9 5 5 -4 7 2 4 12 -2 11 3 27 12 36 13 13
14 20 5 30 -8 11 -8 19 1 34 12 19 14 19 26 4 7 -9 13 -23 13 -31z m-1260 14
c0 -28 -21 -33 -40 -10 -10 12 -10 15 3 15 8 0 17 -3 20 -7 2 -5 3 -3 1 4 -2
10 5 23 13 23 2 0 3 -11 3 -25z m1100 15 c10 -6 1 -8 -29 -5 -24 2 -46 6 -49
9 -9 10 62 6 78 -4z m475 -20 c-3 -5 -16 -10 -28 -9 -21 0 -21 1 -2 9 28 12
37 12 30 0z m-1084 -33 c-10 -9 -11 -8 -5 6 3 10 9 15 12 12 3 -3 0 -11 -7
-18z m394 3 c-4 -11 -2 -20 4 -20 6 0 11 -7 11 -15 0 -8 -4 -15 -9 -15 -11 0
-24 48 -16 60 11 17 17 11 10 -10z m442 -2 c-3 -8 -6 -5 -6 6 -1 11 2 17 5 13
3 -3 4 -12 1 -19z m10 -40 c-3 -8 -6 -5 -6 6 -1 11 2 17 5 13 3 -3 4 -12 1
-19z m-827 -10 c0 -6 -6 -5 -15 2 -8 7 -15 14 -15 16 0 2 7 1 15 -2 8 -4 15
-11 15 -16z m361 -21 c-8 -8 -11 -3 -11 19 1 25 2 27 11 11 8 -14 8 -22 0 -30z
m-95 -32 c14 -13 13 -15 -4 -15 -11 0 -22 7 -26 15 -3 8 -1 15 5 15 6 0 17 -7
25 -15z m434 -25 c0 -5 -4 -10 -10 -10 -5 0 -10 5 -10 10 0 6 5 10 10 10 6 0
10 -4 10 -10z m-140 -34 c0 -2 -7 -7 -16 -10 -8 -3 -12 -2 -9 4 6 10 25 14 25
6z"/>
<path d="M2055 4320 c3 -5 8 -10 11 -10 2 0 4 5 4 10 0 6 -5 10 -11 10 -5 0
-7 -4 -4 -10z"/>
<path d="M1970 4113 c8 -3 19 -11 23 -17 6 -7 7 -6 4 4 -2 8 -12 16 -23 17
-13 2 -15 1 -4 -4z"/>
<path d="M2016 4087 c-16 -12 -16 -14 -2 -26 13 -11 17 -11 22 3 10 26 1 38
-20 23z"/>
<path d="M1545 4081 c-8 -14 13 -53 25 -46 5 3 11 -4 15 -15 8 -24 25 -27 25
-4 0 8 -4 12 -10 9 -6 -4 -9 3 -7 15 2 25 -37 58 -48 41z m25 -36 c0 -5 -5 -3
-10 5 -5 8 -10 20 -10 25 0 6 5 3 10 -5 5 -8 10 -19 10 -25z"/>
<path d="M1610 4055 c0 -8 5 -25 12 -39 8 -19 14 -23 24 -15 10 8 9 16 -4 40
-18 31 -32 38 -32 14z"/>
<path d="M1745 4009 c-15 -15 -16 -22 -7 -28 10 -6 10 -15 2 -36 -6 -15 -9
-30 -7 -32 6 -5 29 51 26 63 -1 5 1 17 6 27 11 27 1 30 -20 6z"/>
<path d="M1801 3952 c-1 -8 -6 -10 -13 -6 -10 5 -10 4 -1 -6 15 -16 28 -8 20
12 -4 11 -6 11 -6 0z"/>
<path d="M1580 3736 c0 -29 -20 -46 -21 -19 0 16 -1 16 -8 -2 -9 -21 -4 -45 9
-45 4 0 12 10 19 23 l12 22 -5 -23 c-3 -13 -2 -21 2 -17 9 9 9 85 0 85 -5 0
-8 -11 -8 -24z"/>
<path d="M1575 3640 c3 -5 10 -10 16 -10 5 0 9 5 9 10 0 6 -7 10 -16 10 -8 0
-12 -4 -9 -10z"/>
<path d="M1522 3471 c-11 -7 -11 -9 0 -14 9 -3 15 1 15 9 0 8 -1 14 -1 14 -1
0 -7 -4 -14 -9z"/>
<path d="M1926 3301 c1 -20 6 -26 25 -27 53 -2 55 -3 39 -14 -13 -8 -13 -11
-1 -22 10 -10 12 -10 7 0 -4 7 -1 12 8 12 29 0 5 29 -29 36 -22 4 -32 11 -29
19 3 7 -1 15 -8 18 -9 3 -13 -3 -12 -22z"/>
<path d="M2012 3228 c-6 -6 -12 -21 -12 -32 0 -20 1 -19 16 2 18 26 15 49 -4
30z"/>
<path d="M2025 3181 c-3 -12 -10 -19 -15 -16 -4 3 -8 -5 -7 -18 0 -12 -3 -31
-7 -42 -3 -11 5 4 19 34 14 29 24 56 21 58 -2 3 -7 -5 -11 -16z"/>
<path d="M2215 3970 c3 -5 11 -10 16 -10 6 0 7 5 4 10 -3 6 -11 10 -16 10 -6
0 -7 -4 -4 -10z"/>
<path d="M2267 3847 c-3 -8 1 -14 9 -14 16 0 19 13 5 21 -5 3 -11 0 -14 -7z"/>
<path d="M2246 3808 c3 -5 10 -6 15 -3 13 9 11 12 -6 12 -8 0 -12 -4 -9 -9z"/>
<path d="M2260 3720 c12 -8 12 -10 1 -10 -8 0 -12 -3 -8 -6 3 -3 9 -6 14 -6 4
0 14 -5 22 -11 11 -9 13 -9 8 0 -4 6 -3 14 3 18 17 11 1 25 -28 25 -21 0 -24
-2 -12 -10z"/>
<path d="M2343 3653 c-10 -3 -10 -10 -2 -24 9 -17 13 -18 27 -7 9 8 13 8 9 1
-5 -7 0 -9 13 -6 25 7 25 12 3 29 -19 14 -30 16 -50 7z"/>
<path d="M2350 3580 c0 -5 5 -10 10 -10 6 0 10 5 10 10 0 6 -4 10 -10 10 -5 0
-10 -4 -10 -10z"/>
<path d="M1495 3950 c3 -5 11 -10 16 -10 6 0 7 5 4 10 -3 6 -11 10 -16 10 -6
0 -7 -4 -4 -10z"/>
<path d="M2570 3771 c0 -5 9 -11 21 -14 12 -3 18 -10 14 -16 -3 -6 -1 -11 4
-11 21 0 11 27 -14 38 -14 6 -25 8 -25 3z"/>
<path d="M1940 3634 c0 -8 5 -12 10 -9 6 4 8 11 5 16 -9 14 -15 11 -15 -7z"/>
<path d="M2082 3478 c5 -14 38 -20 38 -7 0 6 5 7 10 4 6 -3 10 -1 10 4 0 6
-14 11 -31 11 -19 0 -29 -4 -27 -12z"/>
<path d="M2173 3483 c9 -2 23 -2 30 0 6 3 -1 5 -18 5 -16 0 -22 -2 -12 -5z"/>
<path d="M1940 3421 c0 -16 27 -31 44 -25 11 4 15 2 11 -8 -3 -8 1 -20 8 -27
12 -9 16 -8 21 5 4 12 10 13 19 6 8 -7 17 -7 28 1 23 18 30 44 13 51 -8 3 -14
-1 -14 -9 0 -8 -8 -15 -17 -15 -15 0 -16 2 -3 10 8 5 12 12 8 15 -3 3 -13 -1
-21 -9 -15 -16 -47 -12 -47 5 0 5 -4 9 -10 9 -5 0 -7 -8 -4 -17 5 -17 5 -17
-9 0 -15 18 -27 22 -27 8z m80 -41 c0 -5 -5 -10 -11 -10 -5 0 -7 5 -4 10 3 6
8 10 11 10 2 0 4 -4 4 -10z"/>
<path d="M2110 3405 c-10 -12 -10 -15 4 -15 9 0 16 7 16 15 0 8 -2 15 -4 15
-2 0 -9 -7 -16 -15z"/>
<path d="M2550 3664 c0 -8 5 -12 10 -9 6 3 10 10 10 16 0 5 -4 9 -10 9 -5 0
-10 -7 -10 -16z"/>
<path d="M1867 3637 c-11 -29 -9 -43 4 -30 6 6 9 19 7 29 -3 18 -4 18 -11 1z"/>
<path d="M2037 3580 c3 -10 12 -25 21 -32 13 -11 14 -11 9 2 -4 8 -10 23 -13
33 -9 24 -23 22 -17 -3z"/>
<path d="M2241 3429 c18 -11 39 -11 39 0 0 5 -12 9 -26 9 -18 0 -22 -3 -13 -9z"/>
<path d="M1383 3195 c1 -30 6 -55 12 -55 5 0 4 -4 -3 -9 -11 -7 -11 -9 1 -14
23 -9 31 39 15 90 -7 24 -16 43 -20 43 -4 0 -6 -25 -5 -55z"/>
<path d="M1384 3009 c-3 -6 -2 -15 3 -20 5 -5 9 -1 10 11 2 22 -2 25 -13 9z"/>
<path d="M1488 2943 c6 -2 18 -2 25 0 6 3 1 5 -13 5 -14 0 -19 -2 -12 -5z"/>
<path d="M1547 2897 c-4 -10 2 -13 20 -9 18 3 21 7 11 13 -18 12 -25 11 -31
-4z"/>
<path d="M1903 2946 c-13 -6 -23 -14 -23 -19 0 -9 36 9 45 23 3 6 5 9 3 9 -2
-1 -13 -6 -25 -13z"/>
<path d="M1240 2733 c0 -8 5 -13 12 -11 18 6 21 25 3 25 -8 0 -15 -7 -15 -14z"/>
<path d="M1323 2677 c-2 -4 4 -10 14 -14 10 -3 22 -8 27 -11 5 -3 6 1 1 9 -8
12 -6 12 8 0 15 -12 17 -11 17 7 0 17 -6 21 -31 19 -17 -1 -33 -5 -36 -10z"/>
<path d="M1463 2676 c-13 -6 -23 -14 -23 -18 0 -13 13 -9 40 12 27 21 19 24
-17 6z"/>
<path d="M1240 2565 c7 -8 16 -12 21 -9 5 3 9 -3 9 -14 0 -10 -11 -24 -25 -30
-27 -12 -32 -31 -14 -49 8 -8 8 -16 0 -30 -10 -16 -10 -15 -8 7 1 19 -2 25
-16 23 -15 -1 -18 4 -14 25 5 24 4 25 -8 9 -11 -15 -11 -27 -2 -58 7 -22 16
-40 21 -39 5 1 12 -4 16 -10 10 -17 32 23 30 53 -5 52 0 67 20 67 16 0 20 7
20 31 0 17 -4 28 -10 24 -5 -3 -10 0 -10 7 0 9 -3 9 -10 -2 -6 -10 -10 -11
-10 -2 0 6 -5 12 -11 12 -8 0 -8 -5 1 -15z"/>
<path d="M1360 2573 c0 -4 5 -15 10 -23 8 -13 10 -13 10 2 0 9 -4 20 -10 23
-5 3 -10 3 -10 -2z"/>
<path d="M1145 2539 c-4 -6 -5 -12 -2 -15 2 -3 7 2 10 11 7 17 1 20 -8 4z"/>
<path d="M1246 2391 c-4 -7 -5 -15 -2 -18 9 -9 19 4 14 18 -4 11 -6 11 -12 0z"/>
<path d="M1957 2396 c-4 -10 -1 -13 9 -9 15 6 19 23 5 23 -5 0 -11 -7 -14 -14z"/>
<path d="M1938 2275 c-3 -14 -1 -28 3 -31 5 -3 9 9 9 25 0 38 -6 40 -12 6z"/>
<path d="M1993 1983 c-19 -7 -16 -53 2 -53 12 0 35 36 35 54 0 4 -23 3 -37 -1z"/>
<path d="M2022 1925 c-28 -40 -26 -68 2 -40 14 14 15 20 4 26 -11 8 -5 13 12
11 3 0 7 8 7 19 2 25 2 25 -25 -16z"/>
<path d="M1925 1877 c-4 -10 -5 -21 -1 -24 10 -10 18 4 13 24 -4 17 -4 17 -12
0z"/>
<path d="M1821 1654 c0 -11 3 -14 6 -6 3 7 2 16 -1 19 -3 4 -6 -2 -5 -13z"/>
<path d="M1925 1649 c-11 -17 1 -21 15 -4 8 9 8 15 2 15 -6 0 -14 -5 -17 -11z"/>
<path d="M1826 1592 c-2 -4 -1 -14 3 -20 6 -10 14 -9 37 4 23 12 24 15 7 11
-13 -3 -23 -1 -23 4 0 11 -17 12 -24 1z"/>
<path d="M1852 1548 c-7 -7 -12 -19 -12 -27 0 -11 5 -8 16 7 18 25 15 39 -4
20z"/>
<path d="M1786 1498 c5 -7 2 -9 -9 -5 -15 6 -16 3 -8 -57 0 -5 8 -3 16 4 10 8
13 21 9 33 -4 13 -2 17 5 13 6 -4 11 -3 11 2 0 6 -7 13 -16 16 -10 4 -13 2 -8
-6z m4 -32 c0 -3 -4 -8 -10 -11 -5 -3 -10 -1 -10 4 0 6 5 11 10 11 6 0 10 -2
10 -4z"/>
<path d="M1688 1273 c6 -2 18 -2 25 0 6 3 1 5 -13 5 -14 0 -19 -2 -12 -5z"/>
<path d="M1700 1110 c0 -40 4 -70 10 -70 6 0 10 30 10 70 0 40 -4 70 -10 70
-6 0 -10 -30 -10 -70z"/>
<path d="M1743 1110 c0 -41 2 -58 4 -37 2 20 2 54 0 75 -2 20 -4 3 -4 -38z"/>
<path d="M1690 1020 c0 -5 -6 -8 -12 -6 -7 1 -10 1 -5 -1 4 -3 7 -11 7 -19 0
-19 16 -10 30 17 9 15 7 19 -5 19 -8 0 -15 -4 -15 -10z"/>
<path d="M1576 963 c-6 -15 1 -59 13 -78 3 -5 6 -14 6 -19 0 -5 6 -11 13 -13
9 -4 12 10 11 49 -1 41 -3 48 -9 28 -7 -21 -8 -22 -9 -4 -1 11 4 25 10 31 7 7
4 12 -10 16 -12 3 -22 -1 -25 -10z"/>
<path d="M1513 944 c-3 -8 -1 -20 6 -27 8 -8 11 -8 11 0 0 6 3 18 6 27 3 9 1
16 -5 16 -7 0 -14 -7 -18 -16z"/>
<path d="M1637 864 c-3 -4 -2 -15 4 -25 9 -18 5 -23 -13 -20 -4 0 -2 -11 4
-25 10 -21 13 -22 20 -9 17 29 17 53 0 60 -15 6 -15 8 3 15 15 6 16 9 4 9 -9
1 -19 -2 -22 -5z"/>
<path d="M1608 833 c7 -3 16 -2 19 1 4 3 -2 6 -13 5 -11 0 -14 -3 -6 -6z"/>
<path d="M1610 701 c0 -7 -4 -9 -10 -6 -5 3 -10 -1 -10 -9 0 -9 4 -16 9 -16
11 0 24 31 16 38 -3 3 -5 0 -5 -7z"/>
<path d="M1751 2594 c0 -11 3 -14 6 -6 3 7 2 16 -1 19 -3 4 -6 -2 -5 -13z"/>
<path d="M1751 2514 c0 -11 3 -14 6 -6 3 7 2 16 -1 19 -3 4 -6 -2 -5 -13z"/>
<path d="M1658 2443 c7 -3 16 -2 19 1 4 3 -2 6 -13 5 -11 0 -14 -3 -6 -6z"/>
<path d="M1600 2381 c0 -11 -5 -21 -12 -23 -9 -3 -9 -6 -1 -11 7 -4 15 5 22
23 6 18 6 30 0 30 -5 0 -9 -9 -9 -19z"/>
<path d="M1446 2356 c3 -8 18 -19 34 -26 29 -12 70 -50 55 -50 -5 0 0 -7 11
-15 18 -14 18 -14 -3 -10 -20 3 -21 0 -18 -36 2 -21 7 -44 11 -50 4 -7 7 -44
6 -83 -1 -60 1 -65 8 -36 5 19 6 46 4 60 -4 19 -3 22 5 10 6 -8 8 -41 6 -72
-3 -34 -1 -58 5 -58 6 0 10 -5 10 -11 0 -5 -4 -7 -10 -4 -5 3 -10 1 -10 -5 0
-6 -4 -9 -9 -6 -10 7 -22 -97 -11 -104 4 -3 10 -23 13 -45 4 -27 3 -35 -3 -25
-6 9 -10 10 -10 3 0 -25 13 -43 31 -43 16 0 18 5 13 28 -3 17 -2 22 3 14 6 -8
10 26 11 90 1 84 5 105 19 116 16 11 16 12 -1 12 -15 0 -17 9 -15 58 2 61 -3
88 -21 122 -6 12 -10 24 -7 26 4 4 31 -51 32 -66 3 -26 29 -80 39 -80 27 0 67
-26 72 -47 7 -27 24 -31 24 -5 0 10 5 23 12 30 8 8 9 15 2 22 -8 8 -15 6 -23
-4 -15 -18 -54 -9 -47 11 3 8 2 12 -2 9 -5 -3 -16 4 -25 14 -11 13 -12 20 -4
23 8 3 7 9 -4 18 -20 16 -38 65 -20 55 6 -4 11 0 12 11 1 34 24 -38 29 -92 2
-14 4 -10 9 10 5 21 12 30 26 30 17 -1 20 6 21 50 1 27 -1 39 -4 25 -4 -23 -5
-24 -13 -5 -7 19 -8 19 -8 -3 -1 -13 -5 -20 -11 -17 -6 3 -10 -4 -11 -17 0
-22 -1 -22 -8 -3 -5 11 -4 25 1 32 12 15 -31 14 -51 -1 -11 -8 -13 -8 -7 2 4
6 3 12 -3 12 -18 0 -34 41 -21 54 8 8 9 6 4 -9 -8 -19 -7 -19 10 -2 10 10 25
16 32 13 8 -3 14 -1 14 5 0 6 -8 9 -17 8 -39 -3 -51 2 -57 27 -6 21 -11 25
-31 20 -17 -4 -27 -1 -34 11 -9 15 -12 15 -20 4 -6 -10 -13 -11 -30 -2 -17 9
-20 9 -15 -3z m127 -47 c6 -23 -9 -16 -23 11 -8 16 -7 18 4 14 8 -3 16 -14 19
-25z m-28 -99 c3 -5 1 -10 -4 -10 -6 0 -11 5 -11 10 0 6 2 10 4 10 3 0 8 -4
11 -10z m25 -285 c0 -8 -4 -15 -10 -15 -5 0 -10 7 -10 15 0 8 5 15 10 15 6 0
10 -7 10 -15z m-3 -67 c-3 -7 -5 -2 -5 12 0 14 2 19 5 13 2 -7 2 -19 0 -25z"/>
<path d="M1440 2321 c0 -5 12 -8 26 -8 18 0 22 2 13 8 -18 11 -39 11 -39 0z"/>
<path d="M1492 2298 c-7 -7 -12 -27 -12 -46 0 -19 -4 -31 -10 -27 -5 3 -10 1
-10 -4 0 -6 6 -11 13 -11 8 0 17 21 23 50 6 28 10 50 9 50 0 0 -6 -5 -13 -12z"/>
<path d="M1507 2176 c10 -13 19 -23 21 -21 5 5 -22 45 -31 45 -4 0 0 -11 10
-24z"/>
<path d="M1640 2170 c0 -11 4 -20 9 -20 5 0 7 9 4 20 -3 11 -7 20 -9 20 -2 0
-4 -9 -4 -20z"/>
<path d="M1523 2050 c0 -30 2 -43 4 -27 2 15 2 39 0 55 -2 15 -4 2 -4 -28z"/>
<path d="M1522 1930 c0 -14 2 -19 5 -12 2 6 2 18 0 25 -3 6 -5 1 -5 -13z"/>
<path d="M1500 1912 c0 -7 -4 -10 -10 -7 -12 7 -23 -35 -17 -66 3 -16 5 -11 6
14 0 23 5 36 11 32 6 -3 10 0 10 7 0 9 3 9 10 -2 5 -8 10 -10 10 -5 0 6 -5 17
-10 25 -7 11 -10 11 -10 2z"/>
<path d="M1520 1814 c0 -21 4 -45 9 -53 5 -8 7 5 4 35 -7 61 -13 70 -13 18z"/>
<path d="M1491 1814 c0 -11 3 -14 6 -6 3 7 2 16 -1 19 -3 4 -6 -2 -5 -13z"/>
<path d="M1463 1784 c-3 -8 -1 -20 6 -27 8 -8 11 -4 11 16 0 30 -7 35 -17 11z"/>
<path d="M1300 1658 c0 -4 11 -8 25 -8 14 0 25 4 25 8 0 4 -11 8 -25 8 -14 0
-25 -4 -25 -8z"/>
<path d="M1309 1583 c-13 -3 -11 -9 13 -33 16 -17 30 -30 31 -30 1 0 3 11 3
24 1 18 -2 23 -14 19 -11 -5 -14 -2 -9 10 6 17 5 18 -24 10z"/>
<path d="M1574 2546 c-8 -22 3 -33 18 -18 9 9 9 15 0 24 -9 9 -13 7 -18 -6z"/>
<path d="M2134 2337 c3 -10 6 -36 6 -58 0 -21 4 -39 9 -39 11 0 2 79 -11 100
-8 12 -8 11 -4 -3z"/>
<path d="M1240 1760 c0 -5 5 -10 10 -10 6 0 10 5 10 10 0 6 -4 10 -10 10 -5 0
-10 -4 -10 -10z"/>
<path d="M1138 1743 c6 -2 12 -10 12 -18 0 -7 7 -19 16 -26 15 -12 16 -11 9
11 -8 26 -23 40 -40 39 -5 0 -4 -3 3 -6z"/>
<path d="M1186 1741 c-4 -7 -5 -15 -2 -18 9 -9 19 4 14 18 -4 11 -6 11 -12 0z"/>
<path d="M2151 1974 c0 -11 3 -14 6 -6 3 7 2 16 -1 19 -3 4 -6 -2 -5 -13z"/>
<path d="M2201 1929 c-9 -27 -13 -30 -26 -19 -9 7 -18 10 -22 6 -3 -3 -1 -6 7
-6 10 0 10 -3 1 -14 -8 -10 -9 -16 -1 -21 5 -3 10 -1 10 4 0 6 7 11 15 11 9 0
18 8 22 18 3 9 13 25 21 35 13 15 13 17 0 17 -9 0 -21 -14 -27 -31z"/>
<path d="M973 1933 c2 -17 -1 -31 -6 -30 -16 3 -30 -74 -16 -87 8 -8 9 -5 4
13 -4 14 -3 21 2 18 16 -10 35 67 23 94 -10 22 -10 22 -7 -8z"/>
<path d="M951 1774 c0 -11 3 -14 6 -6 3 7 2 16 -1 19 -3 4 -6 -2 -5 -13z"/>
<path d="M951 1644 c0 -11 3 -14 6 -6 3 7 2 16 -1 19 -3 4 -6 -2 -5 -13z"/>
<path d="M1005 1509 c-4 -6 -5 -12 -2 -15 2 -3 7 2 10 11 7 17 1 20 -8 4z"/>
<path d="M1206 1405 c4 -8 11 -15 16 -15 6 0 5 6 -2 15 -7 8 -14 15 -16 15 -2
0 -1 -7 2 -15z"/>
<path d="M1280 1394 c0 -6 -10 -16 -22 -22 -21 -10 -22 -11 -3 -11 32 -1 52
16 37 31 -7 7 -12 8 -12 2z"/>
<path d="M1031 1314 c0 -11 3 -14 6 -6 3 7 2 16 -1 19 -3 4 -6 -2 -5 -13z"/>
<path d="M305 1880 c3 -5 8 -10 11 -10 2 0 4 5 4 10 0 6 -5 10 -11 10 -5 0 -7
-4 -4 -10z"/>
<path d="M635 1830 c3 -5 8 -10 11 -10 2 0 4 5 4 10 0 6 -5 10 -11 10 -5 0 -7
-4 -4 -10z"/>
<path d="M418 1823 c7 -3 16 -2 19 1 4 3 -2 6 -13 5 -11 0 -14 -3 -6 -6z"/>
<path d="M70 1585 c0 -8 7 -15 15 -15 8 0 15 4 15 9 0 5 -7 11 -15 15 -9 3
-15 0 -15 -9z"/>
<path d="M2011 1554 c0 -11 3 -14 6 -6 3 7 2 16 -1 19 -3 4 -6 -2 -5 -13z"/>
<path d="M1918 1513 c6 -2 18 -2 25 0 6 3 1 5 -13 5 -14 0 -19 -2 -12 -5z"/>
<path d="M1960 1486 c0 -8 -5 -16 -10 -18 -7 -2 -7 -21 -1 -58 l9 -55 1 45 c1
33 6 50 21 60 11 8 20 20 20 27 0 7 -9 13 -20 13 -11 0 -20 -6 -20 -14z"/>
<path d="M2020 1469 c0 -18 2 -19 15 -9 15 12 12 30 -6 30 -5 0 -9 -10 -9 -21z"/>
<path d="M1896 1451 c-17 -18 -17 -21 -3 -15 18 7 24 -11 7 -21 -5 -3 -10 -12
-9 -18 0 -9 2 -9 6 1 10 24 23 11 34 -33 6 -25 15 -48 20 -51 5 -3 9 -10 9
-15 0 -6 -4 -7 -10 -4 -5 3 -10 2 -10 -4 0 -18 18 -21 24 -5 3 9 -1 30 -9 47
-8 16 -15 41 -15 54 0 12 -4 23 -9 23 -6 0 -11 14 -13 31 l-3 31 -19 -21z"/>
<path d="M2010 1431 c0 -5 -3 -16 -6 -25 -9 -23 13 -20 25 3 8 14 7 20 -4 25
-8 3 -15 1 -15 -3z"/>
<path d="M1885 1250 c3 -5 10 -10 16 -10 5 0 9 5 9 10 0 6 -7 10 -16 10 -8 0
-12 -4 -9 -10z"/>
<path d="M1873 1210 c2 -17 7 -33 12 -38 5 -4 4 -1 0 7 -6 11 -4 13 7 8 20 -7
56 17 40 27 -7 4 -12 2 -12 -3 0 -19 -17 -12 -23 9 -8 32 -27 23 -24 -10z"/>
<path d="M1841 1186 c-13 -14 -18 -26 -13 -30 6 -3 13 2 15 11 3 13 5 11 7 -7
2 -21 3 -20 10 10 5 19 7 36 6 37 -1 2 -13 -8 -25 -21z"/>
<path d="M1902 1140 c0 -14 2 -19 5 -12 2 6 2 18 0 25 -3 6 -5 1 -5 -13z"/>
<path d="M1940 1095 c-7 -8 -16 -12 -21 -9 -11 7 -11 -7 0 -24 9 -14 22 -2 34
31 8 21 3 22 -13 2z"/>
<path d="M1840 1000 c0 -11 4 -20 9 -20 5 0 7 9 4 20 -3 11 -7 20 -9 20 -2 0
-4 -9 -4 -20z"/>
<path d="M1890 931 c0 -25 6 -27 13 -6 4 8 2 17 -3 20 -6 4 -10 -3 -10 -14z"/>
<path d="M626 1413 c-4 -20 -3 -40 4 -53 16 -30 18 -23 11 35 -7 49 -7 49 -15
18z"/>
<path d="M723 1418 c-1 -10 3 -18 9 -16 18 6 21 25 5 31 -8 3 -13 -3 -14 -15z"/>
<path d="M589 1315 c-6 -40 -4 -53 7 -43 3 3 4 23 2 44 l-3 39 -6 -40z"/>
<path d="M632 1310 c0 -14 2 -19 5 -12 2 6 2 18 0 25 -3 6 -5 1 -5 -13z"/>
<path d="M876 1172 c-3 -6 -1 -14 5 -17 15 -10 25 3 12 16 -7 7 -13 7 -17 1z"/>
<path d="M552 1120 c0 -14 2 -19 5 -12 2 6 2 18 0 25 -3 6 -5 1 -5 -13z"/>
<path d="M586 1124 c-4 -9 -4 -19 -1 -22 3 -3 5 0 5 6 0 6 8 9 18 6 10 -4 13
-2 7 3 -5 4 -13 12 -16 16 -4 4 -9 0 -13 -9z"/>
<path d="M881 1124 c0 -11 3 -14 6 -6 3 7 2 16 -1 19 -3 4 -6 -2 -5 -13z"/>
<path d="M593 1081 c-7 -12 -13 -31 -13 -43 0 -20 1 -21 16 -6 9 8 14 27 12
42 -3 26 -3 26 -15 7z m4 -33 c-3 -8 -6 -5 -6 6 -1 11 2 17 5 13 3 -3 4 -12 1
-19z"/>
<path d="M562 1000 c0 -19 2 -27 5 -17 2 9 2 25 0 35 -3 9 -5 1 -5 -18z"/>
<path d="M560 756 c0 -3 11 -17 25 -32 17 -18 25 -22 25 -12 0 8 -8 22 -18 31
-18 16 -32 22 -32 13z"/>
<path d="M170 1294 c0 -10 -6 -14 -15 -10 -11 4 -15 -1 -15 -19 0 -19 5 -25
23 -25 13 0 28 -5 35 -12 16 -16 15 -48 -2 -48 -9 0 -12 7 -9 19 3 12 -2 20
-16 24 -14 3 -21 0 -21 -9 0 -8 7 -14 15 -14 8 0 12 -6 9 -13 -3 -8 2 -19 10
-26 13 -11 20 -9 42 8 15 12 21 21 14 21 -7 0 -10 7 -6 15 5 15 -36 65 -55 65
-6 0 -6 7 1 20 7 14 7 20 0 20 -5 0 -10 -7 -10 -16z"/>
<path d="M227 1140 c-3 -11 -1 -20 4 -20 5 0 9 9 9 20 0 11 -2 20 -4 20 -2 0
-6 -9 -9 -20z"/>
<path d="M2250 1316 c0 -8 4 -17 9 -20 5 -4 7 3 4 14 -6 23 -13 26 -13 6z"/>
<path d="M2141 1270 c10 -6 15 -20 13 -37 -2 -16 -1 -20 2 -10 3 9 14 17 25
17 12 0 17 4 14 11 -4 6 -9 8 -12 5 -3 -3 -12 1 -20 9 -8 8 -20 15 -26 15 -7
0 -5 -5 4 -10z"/>
<path d="M2280 1248 c0 -10 4 -18 9 -18 5 0 12 -8 14 -17 4 -14 5 -15 6 -2 0
8 -6 24 -14 35 -13 17 -14 17 -15 2z"/>
<path d="M2245 1160 c-3 -5 -1 -10 4 -10 6 0 11 5 11 10 0 6 -2 10 -4 10 -3 0
-8 -4 -11 -10z"/>
<path d="M2266 1123 c-6 -14 -5 -15 5 -6 7 7 10 15 7 18 -3 3 -9 -2 -12 -12z"/>
<path d="M2321 1074 c0 -11 3 -14 6 -6 3 7 2 16 -1 19 -3 4 -6 -2 -5 -13z"/>
<path d="M2378 975 c-3 -14 -1 -25 3 -25 5 0 9 11 9 25 0 14 -2 25 -4 25 -2 0
-6 -11 -8 -25z"/>
<path d="M2402 920 c0 -14 2 -19 5 -12 2 6 2 18 0 25 -3 6 -5 1 -5 -13z"/>
<path d="M2352 875 c-15 -18 -36 -20 -26 -3 4 7 3 8 -4 4 -17 -10 -15 -36 2
-36 7 0 19 7 26 14 8 11 18 12 36 5 17 -6 23 -6 19 1 -3 6 -13 10 -21 10 -8 0
-12 5 -9 10 9 15 -8 11 -23 -5z"/>
<path d="M1976 822 c-2 -4 -1 -14 5 -22 7 -12 9 -10 9 8 0 23 -5 28 -14 14z"/>
<path d="M1980 674 c0 -20 24 -44 44 -44 22 0 20 7 -9 35 -28 29 -35 31 -35 9z"/>
<path d="M2012 588 c-15 -15 -16 -28 -2 -28 6 0 10 6 10 14 0 8 6 17 13 19 6
3 7 6 2 6 -6 1 -16 -4 -23 -11z"/>
<path d="M1961 551 c-14 -4 -27 -13 -29 -21 -4 -12 -2 -13 9 -2 7 6 21 12 31
12 10 0 18 5 18 10 0 6 -1 10 -2 9 -2 -1 -14 -4 -27 -8z"/>
<path d="M1147 1175 c3 -8 9 -12 14 -9 12 7 11 11 -5 17 -10 4 -13 1 -9 -8z"/>
<path d="M1221 1173 c0 -10 3 -13 5 -6 3 7 12 9 21 6 11 -4 14 -2 9 5 -11 18
-36 14 -35 -5z"/>
<path d="M1230 1020 c0 -5 5 -10 10 -10 6 0 10 5 10 10 0 6 -4 10 -10 10 -5 0
-10 -4 -10 -10z"/>
<path d="M1226 992 c-2 -4 -1 -14 5 -22 7 -12 9 -10 9 8 0 23 -5 28 -14 14z"/>
<path d="M2034 1056 c-17 -13 -17 -16 -4 -28 8 -7 11 -9 7 -4 -3 5 1 15 11 22
9 7 14 15 11 18 -3 3 -14 -1 -25 -8z"/>
<path d="M403 1075 c0 -8 4 -15 9 -15 4 0 8 7 8 15 0 8 -4 15 -8 15 -5 0 -9
-7 -9 -15z"/>
<path d="M440 1060 c8 -5 20 -10 25 -10 6 0 3 5 -5 10 -8 5 -19 10 -25 10 -5
0 -3 -5 5 -10z"/>
<path d="M418 1043 c7 -3 16 -2 19 1 4 3 -2 6 -13 5 -11 0 -14 -3 -6 -6z"/>
<path d="M1066 1065 c-9 -9 -16 -24 -15 -33 0 -10 3 -12 5 -5 3 7 12 9 20 6
10 -4 13 0 8 13 -5 18 -5 18 10 0 13 -16 16 -17 16 -4 0 8 -6 21 -14 27 -11 9
-18 8 -30 -4z"/>
<path d="M1006 1005 c-9 -26 -7 -32 5 -12 6 10 9 21 6 23 -2 3 -7 -2 -11 -11z"/>
<path d="M1027 1007 c-11 -29 -9 -53 4 -40 6 6 9 21 7 34 -3 21 -4 22 -11 6z"/>
<path d="M1152 940 c2 -15 12 -29 26 -35 26 -12 29 -25 4 -25 -9 0 -23 9 -30
21 -7 11 -18 19 -25 16 -6 -2 -18 3 -26 11 -10 10 -16 11 -19 3 -2 -6 -8 -9
-13 -5 -5 3 -9 1 -9 -5 0 -5 5 -13 10 -16 6 -3 10 -2 10 4 0 13 63 -13 68 -28
2 -6 10 -11 17 -11 7 0 15 -9 18 -20 3 -14 10 -18 21 -14 14 5 15 2 6 -22 -6
-16 -8 -25 -4 -21 4 4 13 2 21 -4 8 -8 13 -8 13 -1 0 6 -6 12 -12 15 -10 3
-10 7 -1 19 10 12 10 18 -2 34 -8 11 -15 14 -15 7 0 -7 -5 -13 -10 -13 -7 0
-7 8 1 22 10 18 8 24 -8 37 -11 9 -25 25 -31 36 -12 19 -12 19 -10 -5z"/>
<path d="M1108 834 c-5 -4 -8 -20 -8 -36 0 -15 -5 -28 -11 -28 -5 0 -7 -4 -4
-10 18 -29 45 10 36 53 -3 16 -9 25 -13 21z"/>
<path d="M1135 750 c3 -5 8 -10 11 -10 2 0 4 5 4 10 0 6 -5 10 -11 10 -5 0 -7
-4 -4 -10z"/>
<path d="M1284 733 c3 -19 1 -33 -4 -33 -6 0 -10 -8 -10 -17 0 -14 2 -15 9 -5
7 11 9 11 14 -2 4 -10 1 -16 -8 -16 -10 0 -15 -10 -14 -32 1 -22 3 -26 6 -13
6 24 23 44 23 27 0 -6 9 -16 20 -22 18 -10 20 -8 20 21 0 23 -5 32 -21 36 -16
4 -20 12 -16 29 2 13 -2 32 -10 41 -13 16 -14 15 -9 -14z m46 -84 c0 -5 -4 -9
-10 -9 -5 0 -10 7 -10 16 0 8 5 12 10 9 6 -3 10 -10 10 -16z"/>
<path d="M1260 559 c0 -16 -4 -29 -8 -29 -5 0 -17 -6 -28 -14 -18 -14 -18 -15
10 -26 38 -14 49 -3 49 52 0 24 2 37 4 31 3 -7 10 -13 16 -13 16 0 -9 23 -28
26 -10 2 -15 -7 -15 -27z"/>
<path d="M1186 483 c-6 -14 -5 -15 5 -6 7 7 10 15 7 18 -3 3 -9 -2 -12 -12z"/>
<path d="M1344 478 c-4 -7 -3 -8 4 -4 7 4 12 2 12 -4 0 -6 5 -8 10 -5 6 3 10
10 10 16 0 13 -27 11 -36 -3z"/>
<path d="M1205 440 c4 -6 11 -8 16 -5 14 9 11 15 -7 15 -8 0 -12 -5 -9 -10z"/>
<path d="M820 1006 c0 -16 -4 -25 -10 -21 -12 7 -12 3 -4 -19 9 -24 24 -19 24
8 0 13 5 26 11 28 7 2 5 9 -5 17 -14 12 -16 10 -16 -13z"/>
<path d="M845 981 c-3 -5 -1 -12 5 -16 5 -3 10 1 10 9 0 18 -6 21 -15 7z"/>
<path d="M921 840 c0 -8 4 -22 9 -30 12 -18 12 -2 0 25 -6 13 -9 15 -9 5z"/>
<path d="M974 696 c-3 -8 -1 -22 4 -32 7 -13 9 -10 8 15 -1 34 -4 38 -12 17z"/>
<path d="M720 622 c0 -7 45 -41 54 -42 5 0 3 7 -5 16 -10 13 -10 17 2 24 10 7
4 9 -18 7 -18 -1 -33 -4 -33 -5z"/>
<path d="M898 543 c7 -3 16 -2 19 1 4 3 -2 6 -13 5 -11 0 -14 -3 -6 -6z"/>
<path d="M1000 455 c7 -8 17 -15 22 -15 6 0 5 7 -2 15 -7 8 -17 15 -22 15 -6
0 -5 -7 2 -15z"/>
<path d="M1442 782 c-3 -56 -2 -57 13 -28 8 16 12 38 9 52 -11 43 -19 33 -22
-24z"/>
<path d="M1390 800 c-9 -38 -7 -47 13 -62 18 -15 20 -19 7 -27 -8 -5 -18 -7
-22 -5 -10 7 8 -43 26 -68 22 -31 26 -7 13 72 -3 14 -5 25 -6 25 -2 0 -4 7 -6
17 -3 18 -24 56 -25 48z m30 -126 c0 -8 -4 -12 -10 -9 -5 3 -10 13 -10 21 0 8
5 12 10 9 6 -3 10 -13 10 -21z"/>
<path d="M1460 736 c0 -8 4 -17 9 -20 5 -4 7 3 4 14 -6 23 -13 26 -13 6z"/>
<path d="M1520 651 c0 -6 4 -13 10 -16 6 -3 7 1 4 9 -7 18 -14 21 -14 7z"/>
<path d="M1473 595 c-10 -55 -3 -81 13 -47 9 20 12 102 3 102 -3 0 -10 -25
-16 -55z"/>
<path d="M1833 875 c-6 -15 -7 -27 -2 -31 11 -6 22 19 17 40 -2 11 -6 9 -15
-9z"/>
<path d="M1801 852 c0 -7 -4 -11 -8 -9 -5 3 -8 -21 -8 -54 0 -32 2 -55 3 -49
2 5 10 10 18 10 8 0 15 7 15 15 1 8 3 20 4 25 1 6 3 16 4 23 1 8 4 7 11 -3 7
-11 10 -12 10 -2 0 8 -9 16 -19 19 -11 3 -22 12 -24 22 -3 9 -5 10 -6 3z"/>
<path d="M1801 654 c0 -11 3 -14 6 -6 3 7 2 16 -1 19 -3 4 -6 -2 -5 -13z"/>
<path d="M1799 408 c-8 -15 -4 -48 6 -48 8 0 10 9 7 25 -4 22 -9 31 -13 23z"/>
<path d="M1832 394 c-14 -16 -5 -18 17 -5 7 5 9 11 5 14 -5 3 -15 -1 -22 -9z"/>
<path d="M1860 533 c0 -13 5 -23 10 -23 13 0 13 11 0 30 -8 12 -10 11 -10 -7z"/>
<path d="M1891 514 c0 -11 3 -14 6 -6 3 7 2 16 -1 19 -3 4 -6 -2 -5 -13z"/>
<path d="M2451 511 c-10 -7 -10 -10 -1 -16 7 -4 16 -2 20 5 5 9 9 9 14 1 4 -6
13 -11 19 -11 7 0 3 7 -7 15 -23 17 -26 18 -45 6z"/>
<path d="M2530 460 c-13 -8 -13 -11 2 -26 15 -15 16 -14 15 10 -1 14 -2 26 -2
26 0 0 -7 -5 -15 -10z"/>
<path d="M2206 481 c-20 -8 -16 -12 17 -24 11 -4 16 -3 12 3 -3 6 -1 10 5 10
6 0 8 5 5 10 -7 11 -12 12 -39 1z"/>
<path d="M2096 439 c4 -8 -1 -9 -17 -5 -13 3 -6 -3 15 -13 44 -21 66 -18 66
10 0 15 -7 19 -36 19 -23 0 -33 -4 -28 -11z m49 -9 c3 -5 -1 -10 -9 -10 -9 0
-16 5 -16 10 0 6 4 10 9 10 6 0 13 -4 16 -10z"/>
<path d="M2000 431 c0 -5 9 -7 20 -4 11 3 20 7 20 9 0 2 -9 4 -20 4 -11 0 -20
-4 -20 -9z"/>
<path d="M2382 348 c-7 -7 -12 -15 -12 -19 0 -11 33 -4 37 8 6 17 -12 24 -25
11z"/>
<path d="M2346 465 c4 -8 12 -15 20 -15 8 0 11 6 8 15 -4 8 -12 15 -20 15 -8
0 -11 -6 -8 -15z"/>
<path d="M2397 459 c7 -7 15 -10 18 -7 3 3 -2 9 -12 12 -14 6 -15 5 -6 -5z"/>
<path d="M2430 420 c0 -5 5 -10 11 -10 5 0 7 5 4 10 -3 6 -8 10 -11 10 -2 0
-4 -4 -4 -10z"/>
<path d="M600 440 c-7 -17 -10 -33 -8 -36 3 -2 11 9 18 26 7 17 10 33 8 36 -3
2 -11 -9 -18 -26z"/>
<path d="M520 416 c0 -4 7 -14 15 -22 8 -9 15 -11 15 -6 0 5 -7 15 -15 22 -8
7 -15 9 -15 6z"/>
<path d="M981 344 c0 -11 3 -14 6 -6 3 7 2 16 -1 19 -3 4 -6 -2 -5 -13z"/>
<path d="M891 311 c-9 -6 1 -9 28 -9 23 -1 39 3 36 9 -8 11 -45 12 -64 0z"/>
<path d="M1435 350 c-3 -5 -1 -10 4 -10 6 0 11 5 11 10 0 6 -2 10 -4 10 -3 0
-8 -4 -11 -10z"/>
<path d="M2142 295 c15 -39 28 -54 28 -33 0 9 -9 26 -20 39 l-20 24 12 -30z"/>
<path d="M2151 217 c0 -16 3 -26 8 -23 5 4 12 0 14 -6 3 -8 6 -6 6 5 1 9 -3
17 -8 17 -5 0 -12 8 -14 18 -3 10 -5 6 -6 -11z"/>
<path d="M2146 155 c-3 -9 0 -15 9 -15 8 0 15 7 15 15 0 8 -4 15 -9 15 -5 0
-11 -7 -15 -15z"/>
<path d="M2378 283 c7 -3 16 -2 19 1 4 3 -2 6 -13 5 -11 0 -14 -3 -6 -6z"/>
<path d="M1462 199 c-10 -32 -10 -44 -1 -53 9 -8 10 -8 5 2 -4 7 -3 19 4 27 6
8 10 26 8 40 -3 24 -4 22 -16 -16z"/>
<path d="M2020 256 c0 -8 4 -17 9 -20 5 -4 7 3 4 14 -6 23 -13 26 -13 6z"/>
</g>
</svg>
