<svg width="223" height="54" viewBox="0 0 223 54" fill="none" xmlns="http://www.w3.org/2000/svg">
<path fill-rule="evenodd" clip-rule="evenodd" d="M143.239 46.3848C141.883 46.3848 140.528 46.2153 139.172 45.8764C137.848 45.5376 136.646 44.9523 135.568 44.1205C134.521 43.2887 133.658 42.1797 132.98 40.7935C132.303 39.4072 131.964 37.6667 131.964 35.5718C131.964 34.8017 132.025 33.8775 132.149 32.7993C132.272 31.7211 132.503 30.6121 132.842 29.4723C133.211 28.3324 133.704 27.208 134.32 26.099C134.967 24.9592 135.799 23.9426 136.816 23.0492C137.832 22.1558 139.065 21.4319 140.512 20.8774C141.96 20.3229 143.685 20.0456 145.688 20.0456C147.29 20.0456 148.645 20.2305 149.754 20.6001C150.863 20.9698 151.757 21.4781 152.434 22.125C153.112 22.7412 153.605 23.4651 153.913 24.2969C154.221 25.1286 154.375 26.022 154.375 26.977C154.375 28.3941 154.082 29.5955 153.497 30.5813C152.943 31.5671 152.203 32.3988 151.279 33.0766C150.386 33.7235 149.385 34.2318 148.276 34.6015C147.167 34.9711 146.073 35.2638 144.995 35.4794C143.917 35.6643 142.915 35.7875 141.991 35.8491C141.098 35.8799 140.405 35.8953 139.912 35.8953C139.912 36.4806 139.989 37.0659 140.143 37.6513C140.328 38.2058 140.589 38.6987 140.928 39.1299C141.267 39.5612 141.714 39.9155 142.268 40.1927C142.823 40.47 143.501 40.6086 144.302 40.6086C145.103 40.6086 145.719 40.4854 146.15 40.239C146.612 39.9617 146.982 39.669 147.259 39.361C147.536 39.0221 147.767 38.7295 147.952 38.483C148.168 38.2058 148.445 38.0671 148.784 38.0671C148.938 38.0671 149.2 38.1133 149.569 38.2058C149.97 38.2674 150.37 38.4214 150.771 38.6678C151.171 38.9143 151.526 39.2532 151.834 39.6844C152.142 40.1157 152.296 40.6702 152.296 41.348C152.296 42.2413 152.018 43.0115 151.464 43.6584C150.909 44.3053 150.186 44.829 149.292 45.2295C148.43 45.63 147.459 45.9227 146.381 46.1075C145.303 46.2923 144.255 46.3848 143.239 46.3848ZM151.372 17.5041C151.125 17.5041 150.817 17.3809 150.447 17.1345C150.078 16.8572 149.677 16.5029 149.246 16.0717C148.845 15.6096 148.414 15.1013 147.952 14.5468C147.521 13.9923 147.105 13.4069 146.704 12.7908C146.088 13.4069 145.457 13.9923 144.81 14.5468C144.194 15.1013 143.593 15.6096 143.008 16.0717C142.453 16.5029 141.945 16.8572 141.483 17.1345C141.052 17.3809 140.713 17.5041 140.466 17.5041C140.251 17.5041 140.004 17.4271 139.727 17.2731C139.48 17.0883 139.234 16.888 138.988 16.6724C138.772 16.4259 138.572 16.1949 138.387 15.9792C138.233 15.7636 138.156 15.6096 138.156 15.5172C138.156 15.3939 138.341 15.0859 138.71 14.593C139.111 14.1001 139.604 13.5148 140.189 12.837C140.805 12.1285 141.467 11.3892 142.176 10.619C142.915 9.81806 143.608 9.0479 144.255 8.30856C144.44 8.09292 144.841 7.92349 145.457 7.80026C146.104 7.67704 146.72 7.61543 147.305 7.61543C147.706 7.61543 148.168 7.66163 148.691 7.75405C149.246 7.84647 149.6 8.03131 149.754 8.30856L151.233 10.8038C151.726 11.6048 152.173 12.3441 152.573 13.0219C152.973 13.6996 153.297 14.2695 153.543 14.7316C153.79 15.1937 153.913 15.4555 153.913 15.5172C153.913 15.5788 153.821 15.7174 153.636 15.933C153.451 16.1487 153.22 16.3797 152.943 16.6262C152.696 16.8418 152.419 17.0421 152.111 17.2269C151.834 17.4117 151.587 17.5041 151.372 17.5041ZM111.29 45.7378C112.399 46.1691 113.554 46.3848 114.756 46.3848C116.45 46.3848 117.852 46.0151 118.961 45.2757C120.1 44.5364 120.948 43.5814 121.502 42.4108C121.502 43.1193 121.61 43.7046 121.826 44.1667C122.072 44.598 122.396 44.9523 122.796 45.2295C123.227 45.476 123.72 45.6608 124.275 45.784C124.86 45.8764 125.476 45.9227 126.123 45.9227H127.787C128.218 45.9227 128.48 45.861 128.572 45.7378C128.665 45.6146 128.742 45.3681 128.803 44.9985C128.834 44.6596 128.88 43.9819 128.942 42.9653C129.034 41.9179 129.142 40.6856 129.265 39.2686C129.388 37.8207 129.512 36.2496 129.635 34.5553L130.005 29.3799C130.128 27.6239 130.251 25.9296 130.374 24.2969C130.498 22.6641 130.605 21.2163 130.698 19.9532C130.79 18.6594 130.867 17.6274 130.929 16.8572L131.021 15.702C131.021 15.1783 130.944 14.6854 130.79 14.2233C130.636 13.7304 130.374 13.2991 130.005 12.9295C129.635 12.5598 129.142 12.2671 128.526 12.0515C127.91 11.8358 127.14 11.728 126.215 11.728H124.413C124.167 11.728 123.997 11.7434 123.905 11.7742C123.813 11.7742 123.736 11.805 123.674 11.8666C123.551 11.9899 123.474 12.3904 123.443 13.0681C123.381 14.0539 123.32 14.9318 123.258 15.702L123.073 18.0124C123.042 18.7826 122.996 19.6144 122.935 20.5077C122.873 21.4011 122.811 22.4485 122.75 23.6499C122.503 22.3253 121.903 21.4011 120.948 20.8774C120.023 20.3229 118.791 20.0456 117.251 20.0456C115.649 20.0456 114.247 20.2921 113.046 20.785C111.875 21.2779 110.859 21.9402 109.996 22.772C109.164 23.5729 108.471 24.4971 107.917 25.5445C107.362 26.5919 106.931 27.6701 106.623 28.7791C106.315 29.8881 106.099 30.9972 105.976 32.1062C105.853 33.1844 105.791 34.1702 105.791 35.0635C105.791 37.0659 106.022 38.7757 106.484 40.1927C106.977 41.6098 107.624 42.7804 108.425 43.7046C109.257 44.6288 110.212 45.3065 111.29 45.7378ZM115.264 28.2708C116.034 26.8846 117.205 26.1914 118.776 26.1914C119.546 26.1914 120.178 26.3609 120.67 26.6997C121.163 27.0386 121.548 27.4853 121.826 28.0398C122.103 28.5943 122.288 29.2412 122.38 29.9806C122.473 30.6891 122.519 31.4284 122.519 32.1986C122.519 34.9711 122.072 37.0043 121.179 38.2982C120.285 39.592 119.176 40.239 117.852 40.239C117.112 40.239 116.496 40.0541 116.003 39.6844C115.541 39.3148 115.172 38.8219 114.894 38.2058C114.617 37.5896 114.417 36.8965 114.294 36.1264C114.201 35.3562 114.155 34.5707 114.155 33.7697C114.155 31.4592 114.525 29.6263 115.264 28.2708ZM84.4668 33.7235C81.9715 35.2946 80.7238 37.4664 80.7238 40.239C80.7238 41.348 80.8933 42.303 81.2321 43.1039C81.6018 43.8741 82.0793 44.5056 82.6646 44.9985C83.2807 45.4914 83.9893 45.8456 84.7902 46.0613C85.622 46.2769 86.5 46.3848 87.4241 46.3848C89.3341 46.3848 90.8744 45.9843 92.045 45.1833C93.2465 44.3824 94.2169 43.4428 94.9562 42.3646C95.2026 43.6276 95.6955 44.6134 96.4349 45.3219C97.1742 46.0305 98.2832 46.3848 99.7619 46.3848C100.809 46.3848 101.687 46.1999 102.396 45.8302C103.135 45.4606 103.705 44.9831 104.106 44.3978C104.537 43.8124 104.845 43.1655 105.03 42.457C105.215 41.7484 105.307 41.0553 105.307 40.3776C105.307 40.1311 105.168 39.9771 104.891 39.9155C104.614 39.8539 104.29 39.7615 103.921 39.6382C103.582 39.515 103.274 39.2994 102.997 38.9913C102.719 38.6524 102.581 38.0979 102.581 37.3278C102.581 36.9889 102.611 36.3882 102.673 35.5256C102.766 34.6631 102.858 33.7543 102.95 32.7993C103.074 31.8135 103.166 30.8893 103.228 30.0268C103.32 29.1334 103.366 28.5173 103.366 28.1784C103.366 25.5907 102.596 23.5883 101.056 22.1713C99.5155 20.7542 97.0356 20.0456 93.6161 20.0456C91.8602 20.0456 90.3199 20.2305 88.9952 20.6001C87.6706 20.9698 86.5616 21.4781 85.6682 22.125C84.8056 22.7412 84.1433 23.4805 83.6812 24.3431C83.2499 25.2056 83.0343 26.1144 83.0343 27.0694C83.0343 29.4415 84.6054 30.6275 87.7476 30.6275C88.2097 30.6275 88.5486 30.5967 88.7642 30.5351C88.9798 30.4427 89.1185 30.2578 89.1801 29.9806C89.3033 29.4261 89.4419 28.9178 89.596 28.4557C89.75 27.9936 89.9502 27.6085 90.1967 27.3004C90.4431 26.9616 90.7666 26.6997 91.1671 26.5149C91.5675 26.3301 92.0912 26.2376 92.7382 26.2376C93.9088 26.2376 94.679 26.5303 95.0486 27.1156C95.4183 27.7009 95.6031 28.4865 95.6031 29.4723C95.6031 29.8111 95.5877 30.1038 95.5569 30.3502C95.5569 30.5659 95.5415 30.8431 95.5107 31.182C90.6434 31.3052 86.9621 32.1524 84.4668 33.7235ZM92.7382 35.156C93.5083 35.0327 94.2939 34.9711 95.0948 34.9711C95.0332 35.8645 94.8638 36.6347 94.5865 37.2816C94.3093 37.9285 93.9704 38.483 93.5699 38.9451C93.2003 39.3764 92.769 39.6998 92.2761 39.9155C91.7832 40.1311 91.2903 40.239 90.7974 40.239C90.2737 40.239 89.7808 40.1003 89.3187 39.8231C88.8874 39.5458 88.6718 39.0529 88.6718 38.3444C88.6718 37.7283 88.8566 37.2046 89.2263 36.7733C89.596 36.342 90.0735 36.0031 90.6588 35.7567C91.2749 35.4794 91.968 35.2792 92.7382 35.156ZM166.908 36.2188C166.6 37.4818 166.261 38.7603 165.892 40.0541C165.768 39.3148 165.63 38.4368 165.476 37.4202C165.353 36.4036 165.214 35.3562 165.06 34.278C164.937 33.169 164.798 32.0754 164.644 30.9972C164.49 29.8881 164.351 28.887 164.228 27.9936C164.136 27.0694 164.043 26.2838 163.951 25.6369L163.766 24.3431C163.612 23.5421 163.35 22.8952 162.98 22.4023C162.642 21.9094 162.133 21.5243 161.456 21.2471C160.809 20.9698 159.977 20.785 158.96 20.6926C157.975 20.5693 156.773 20.5077 155.356 20.5077C154.925 20.5077 154.57 20.631 154.293 20.8774C154.016 21.1238 153.862 21.3549 153.831 21.5705C153.831 21.6321 153.862 21.7554 153.924 21.9402C153.985 22.0942 154.093 22.4177 154.247 22.9106C154.401 23.3727 154.617 24.0504 154.894 24.9438C155.171 25.8064 155.541 26.977 156.003 28.4557C156.465 29.9344 157.02 31.7827 157.666 34.0007C158.344 36.188 159.13 38.8219 160.023 41.9025C160.177 42.4262 160.347 42.9345 160.531 43.4274C160.716 43.8895 160.947 44.3053 161.225 44.675C161.502 45.0447 161.841 45.3527 162.241 45.5992C162.672 45.8148 163.212 45.9227 163.858 45.9227H167.971C168.402 45.9227 168.71 45.8918 168.895 45.8302C169.08 45.7686 169.296 45.5684 169.542 45.2295C169.819 44.7982 170.251 44.0435 170.836 42.9653C171.421 41.8563 172.053 40.5778 172.731 39.1299C173.408 37.6821 174.101 36.1418 174.81 34.509C175.549 32.8763 176.212 31.3206 176.797 29.8419C177.382 28.3324 177.86 26.9924 178.229 25.8218C178.599 24.6511 178.784 23.804 178.784 23.2803C178.784 22.6333 178.507 22.125 177.952 21.7554C177.428 21.3857 176.797 21.1084 176.058 20.9236C175.318 20.7388 174.564 20.631 173.793 20.6001C173.023 20.5693 172.407 20.5539 171.945 20.5539C171.329 20.5539 170.928 20.6309 170.744 20.785C170.559 20.9082 170.42 21.1855 170.328 21.6167C169.804 23.804 169.342 25.7601 168.941 27.4853C168.572 29.1796 168.218 30.7507 167.879 32.1986C167.571 33.6157 167.247 34.9557 166.908 36.2188ZM190.602 40.239C191.496 40.239 192.266 40.1157 192.913 39.8693C193.59 39.6228 194.176 39.3456 194.669 39.0375C195.162 38.7295 195.577 38.4522 195.916 38.2058C196.255 37.9593 196.563 37.8361 196.84 37.8361C197.549 37.8361 197.903 38.2982 197.903 39.2224C197.903 39.438 197.857 39.7461 197.765 40.1465C197.672 40.5162 197.549 40.9167 197.395 41.348C197.241 41.7484 197.072 42.1335 196.887 42.5032C196.733 42.8729 196.579 43.1501 196.425 43.335C196.271 43.489 195.993 43.7354 195.593 44.0743C195.223 44.4132 194.715 44.752 194.068 45.0909C193.421 45.4298 192.666 45.7224 191.804 45.9689C190.941 46.2461 189.986 46.3848 188.939 46.3848C187.768 46.3848 186.551 46.2153 185.288 45.8764C184.056 45.5068 182.932 44.8907 181.915 44.0281C180.898 43.1347 180.051 41.9487 179.373 40.47C178.727 38.9605 178.403 37.0813 178.403 34.8325C178.403 34.0316 178.449 33.1228 178.542 32.1062C178.665 31.0588 178.896 29.996 179.235 28.9178C179.574 27.8087 180.02 26.7305 180.575 25.6831C181.16 24.6049 181.93 23.6499 182.885 22.8182C183.84 21.9864 184.98 21.3241 186.305 20.8312C187.66 20.3075 189.262 20.0456 191.111 20.0456C192.62 20.0456 193.914 20.2305 194.992 20.6001C196.101 20.939 197.01 21.4165 197.718 22.0326C198.427 22.6179 198.951 23.3111 199.29 24.112C199.659 24.913 199.844 25.7755 199.844 26.6997C199.844 28.3633 199.32 29.5955 198.273 30.3964C197.226 31.1666 195.747 31.5517 193.837 31.5517C193.375 31.5517 193.051 31.5209 192.866 31.4592C192.712 31.3668 192.635 31.182 192.635 30.9047C192.635 30.1654 192.62 29.5031 192.589 28.9178C192.558 28.3324 192.466 27.8395 192.312 27.4391C192.189 27.0386 191.989 26.7305 191.711 26.5149C191.434 26.2992 191.034 26.1914 190.51 26.1914C189.555 26.1914 188.785 26.4995 188.199 27.1156C187.645 27.7317 187.214 28.4865 186.906 29.3799C186.628 30.2424 186.443 31.1358 186.351 32.06C186.289 32.9841 186.259 33.7543 186.259 34.3704C186.259 36.5576 186.597 38.0825 187.275 38.9451C187.984 39.8077 189.093 40.239 190.602 40.239ZM212.312 38.6678C211.757 38.0209 210.833 37.6975 209.539 37.6975C208.677 37.6975 207.953 37.8361 207.367 38.1133C206.782 38.3906 206.32 38.7603 205.981 39.2224C205.642 39.6844 205.396 40.2082 205.242 40.7935C205.088 41.3788 205.011 41.9795 205.011 42.5956C205.011 43.6738 205.257 44.5826 205.75 45.3219C206.243 46.0305 207.183 46.3848 208.569 46.3848C209.524 46.3848 210.294 46.2153 210.879 45.8764C211.495 45.5068 211.958 45.0755 212.266 44.5826C212.604 44.0589 212.835 43.5044 212.959 42.9191C213.082 42.3338 213.144 41.7947 213.144 41.3018C213.144 40.1619 212.866 39.284 212.312 38.6678ZM212.45 34.3242C212.604 34.2318 212.789 33.9699 213.005 33.5387C213.529 32.4296 214.314 31.3822 215.362 30.3964C216.44 29.4107 217.518 28.3787 218.596 27.3004C219.674 26.2222 220.614 25.0516 221.415 23.7886C222.216 22.5255 222.616 21.0776 222.616 19.4449C222.616 18.3667 222.416 17.3347 222.016 16.3489C221.646 15.3323 221.061 14.4544 220.26 13.715C219.459 12.9449 218.427 12.3441 217.164 11.9129C215.932 11.4508 214.437 11.2197 212.681 11.2197C211.203 11.2197 209.739 11.3892 208.292 11.728C206.875 12.0361 205.596 12.529 204.456 13.2067C203.347 13.8844 202.438 14.747 201.73 15.7944C201.052 16.8418 200.713 18.0895 200.713 19.5373C200.713 20.9236 201.098 21.9556 201.869 22.6333C202.67 23.2803 204.01 23.6037 205.889 23.6037C206.443 23.6037 206.782 23.5575 206.905 23.4651C207.059 23.3419 207.167 23.1108 207.229 22.772C207.352 22.1558 207.491 21.5397 207.645 20.9236C207.799 20.2767 208.03 19.6914 208.338 19.1677C208.646 18.644 209.046 18.2127 209.539 17.8738C210.063 17.535 210.741 17.3655 211.572 17.3655C212.651 17.3655 213.421 17.689 213.883 18.3359C214.376 18.952 214.622 19.6298 214.622 20.3691C214.622 21.0776 214.422 21.7554 214.022 22.4023C213.652 23.0184 213.174 23.6345 212.589 24.2507C212.004 24.836 211.372 25.4367 210.694 26.0528C210.048 26.6381 209.431 27.2388 208.846 27.855C208.261 28.4711 207.768 29.118 207.367 29.7957C206.998 30.4427 206.813 31.1204 206.813 31.8289C206.813 32.5683 207.075 33.1998 207.598 33.7235C208.122 34.2164 208.985 34.4628 210.186 34.4628H211.85C212.096 34.4628 212.296 34.4166 212.45 34.3242ZM74.4481 39.8693C73.8012 40.1157 73.031 40.239 72.1376 40.239C70.6282 40.239 69.5191 39.8077 68.8106 38.9451C68.1329 38.0825 67.794 36.5576 67.794 34.3704C67.794 33.7543 67.8248 32.9841 67.8864 32.06C67.906 31.8638 67.9298 31.669 67.9578 31.4755C67.9627 31.4412 67.9678 31.4069 67.9731 31.3726C68.077 30.691 68.233 30.0268 68.4409 29.3799C68.749 28.4865 69.1803 27.7317 69.7348 27.1156C70.3201 26.4995 71.0902 26.1914 72.0452 26.1914C72.5689 26.1914 72.9694 26.2992 73.2467 26.5149C73.5239 26.7305 73.7241 27.0386 73.8474 27.4391C74.0014 27.8395 74.0938 28.3324 74.1246 28.9178C74.1554 29.5031 74.1708 30.1654 74.1708 30.9047C74.1708 31.182 74.2479 31.3668 74.4019 31.4592C74.5867 31.5209 74.9102 31.5517 75.3723 31.5517C77.2822 31.5517 78.7609 31.1666 79.8083 30.3964C80.8557 29.5955 81.3794 28.3633 81.3794 26.6997C81.3794 25.7755 81.1946 24.913 80.8249 24.112C80.4861 23.3111 79.9624 22.6179 79.2538 22.0326C78.5453 21.4165 77.6365 20.939 76.5275 20.6001C76.2047 20.4895 75.8626 20.3954 75.5012 20.3178C74.6553 20.1364 73.7036 20.0456 72.6459 20.0456C71.9463 20.0456 71.282 20.0832 70.653 20.1582C69.6202 20.2814 68.6826 20.5057 67.8402 20.8312C67.5205 20.9502 67.2115 21.079 66.9132 21.2177C65.976 21.6537 65.1452 22.1872 64.4207 22.8182C63.7645 23.3897 63.1955 24.0195 62.7139 24.7074C62.5529 24.9374 62.4016 25.1738 62.2602 25.4167C62.2089 25.5046 62.159 25.5935 62.1103 25.6831C61.5558 26.7305 61.1091 27.8087 60.7702 28.9178C60.4314 29.996 60.2003 31.0588 60.0771 32.1062C59.9847 33.1228 59.9385 34.0316 59.9385 34.8325C59.9385 37.0813 60.2619 38.9605 60.9089 40.47C61.5866 41.9487 62.4338 43.1347 63.4504 44.0281C64.467 44.8907 65.5914 45.5068 66.8236 45.8764C68.0867 46.2153 69.3035 46.3848 70.4741 46.3848C71.5215 46.3848 72.4765 46.2461 73.3391 45.9689C74.2016 45.7224 74.9564 45.4298 75.6033 45.0909C76.2502 44.752 76.7585 44.4132 77.1282 44.0743C77.5287 43.7354 77.8059 43.489 77.96 43.335C78.114 43.1501 78.268 42.8729 78.4221 42.5032C78.6069 42.1335 78.7763 41.7484 78.9304 41.348C79.0844 40.9167 79.2076 40.5162 79.3 40.1465C79.3925 39.7461 79.4387 39.438 79.4387 39.2224C79.4387 38.2982 79.0844 37.8361 78.3759 37.8361C78.0986 37.8361 77.7905 37.9593 77.4517 38.2058C77.1128 38.4522 76.6969 38.7295 76.204 39.0375C75.7111 39.3456 75.1258 39.6228 74.4481 39.8693ZM145.291 25.0683C146.02 24.9138 146.789 25.308 147.192 25.9139C147.612 26.549 147.648 27.2785 147.495 28.0088C147.305 28.8919 146.837 29.774 146.422 30.4764C146.202 30.8529 145.959 31.2162 145.696 31.5651L145.693 31.5694C145.386 31.9791 144.832 32.1661 144.339 32.0266L144.334 32.0246C143.913 31.9064 143.5 31.7648 143.097 31.5984C142.341 31.2908 141.435 30.8727 140.748 30.2851C140.184 29.7972 139.771 29.1948 139.72 28.4349C139.673 27.709 140.047 26.9292 140.72 26.6105C141.499 26.2423 142.617 26.4487 143.355 26.8746C143.684 26.0886 144.448 25.2472 145.291 25.0683Z" fill="#7723CD"/>
<path d="M51.3087 16.5119C50.695 19.8579 47.8785 22.277 45.0223 21.9142C42.1721 21.55 40.3559 18.5414 40.9756 15.194C41.5941 11.8411 44.6381 8.18682 47.4883 8.55104C50.3458 8.91943 51.9284 13.1646 51.3087 16.5119Z" fill="#7723CD"/>
<path d="M30.0056 0.917705C33.107 0.204447 36.6282 3.98047 37.4772 7.67182C38.3261 11.3632 36.4939 14.9311 33.3925 15.6444C30.2911 16.3576 27.0842 13.9486 26.2353 10.2572C25.3864 6.56586 26.9042 1.63096 30.0056 0.917705Z" fill="#7723CD"/>
<path d="M14.0367 4.59026C17.1381 3.877 20.6593 7.65303 21.5082 11.3444C22.3572 15.0357 20.5249 18.6037 17.4235 19.3169C14.3221 20.0302 11.1153 17.6211 10.2664 13.9298C9.41746 10.2384 10.9353 5.30352 14.0367 4.59026Z" fill="#7723CD"/>
<path d="M1.68624 27.9241C-0.333531 25.1837 -0.764398 20.6737 1.64509 19.094C4.04985 17.5213 8.38444 19.4787 10.4055 22.2245C12.4252 24.9649 12.1058 28.4646 9.70107 30.0373C7.29031 31.6115 3.7 30.6658 1.68624 27.9241Z" fill="#7723CD"/>
<path fill-rule="evenodd" clip-rule="evenodd" d="M36.5063 46.4462C35.8167 47.2902 34.928 48.1415 33.9209 48.4873C33.7271 48.5516 33.5255 48.5984 33.3187 48.6303C32.4472 48.765 31.4841 48.635 30.6273 48.43C29.16 48.086 27.5718 47.615 26.1577 48.218C24.6189 48.8751 23.8904 50.5473 22.6698 51.6664C20.6206 53.5445 17.203 53.601 14.9113 52.1807C12.6195 50.7604 11.3837 48.1568 11.1499 45.5387C10.9202 42.9133 11.577 40.2584 12.4381 37.7083C14.4586 31.7405 18.6675 24.9803 25.2406 22.7623C31.8428 20.5346 39.2579 23.3726 44.4811 26.8962C46.7112 28.4032 48.8422 30.1174 50.2501 32.3453C51.6504 34.5698 52.2446 37.3899 51.2819 39.9083C50.6312 41.6104 49.1627 43.0874 47.4245 43.7882C46.5908 44.1242 45.6951 44.2817 44.7979 44.1998C43.8782 44.1157 42.976 43.802 42.0764 43.612C41.363 43.4614 40.6513 43.3885 39.9338 43.5696C39.157 43.7661 38.5194 44.2234 37.9511 44.7808C37.429 45.2929 36.9655 45.8895 36.5063 46.4462ZM31.7075 29.0667C32.9503 28.8032 34.262 29.4753 34.9484 30.5083C35.6646 31.5912 35.7269 32.8348 35.4649 34.0799C35.1414 35.5855 34.3431 37.0894 33.6362 38.2869C33.2616 38.9287 32.847 39.5481 32.3981 40.1431L32.3941 40.1504C31.8696 40.8488 30.9248 41.1676 30.0844 40.9297L30.0768 40.9263C29.3592 40.7249 28.654 40.4834 27.9672 40.1998C26.6793 39.6754 25.133 38.9625 23.9634 37.9607C23.0006 37.1289 22.2968 36.1018 22.2105 34.8064C22.1307 33.5688 22.767 32.2393 23.9154 31.696C25.2432 31.0681 27.1485 31.4201 28.4069 32.1462C28.9682 30.8061 30.2707 29.3717 31.7075 29.0667Z" fill="#7723CD"/>
</svg>
